<svg xmlns="http://www.w3.org/2000/svg" xmlns:xlink="http://www.w3.org/1999/xlink" contentStyleType="text/css" data-diagram-type="DESCRIPTION" height="347px" preserveAspectRatio="none" style="width:957px;height:347px;background:#FFFFFF;" version="1.1" viewBox="0 0 957 347" width="957px" zoomAndPan="magnify"><title>Commongateway Architecture</title><defs/><g><text fill="#000000" font-family="sans-serif" font-size="14" font-weight="bold" lengthAdjust="spacing" textLength="239.0391" x="352.4128" y="22.9951">Commongateway Architecture</text><!--entity Website--><g class="entity" data-entity="Website" data-source-line="4" data-uid="ent0002" id="entity_Website"><ellipse cx="335.61" cy="51.2969" fill="#F1F1F1" rx="8" ry="8" style="stroke:#181818;stroke-width:0.5;"/><text fill="#000000" font-family="sans-serif" font-size="14" lengthAdjust="spacing" textLength="138.8037" x="266.2081" y="81.292">Open WOO Website</text></g><!--entity Harvester--><g class="entity" data-entity="Harvester" data-source-line="5" data-uid="ent0003" id="entity_Harvester"><ellipse cx="538.61" cy="51.2969" fill="#F1F1F1" rx="8" ry="8" style="stroke:#181818;stroke-width:0.5;"/><text fill="#000000" font-family="sans-serif" font-size="14" lengthAdjust="spacing" textLength="166.4961" x="455.362" y="81.292">Sitemap XML / robot.txt</text></g><!--entity CMS--><g class="entity" data-entity="CMS" data-source-line="8" data-uid="ent0004" id="entity_CMS"><rect fill="#F1F1F1" height="46.2969" rx="2.5" ry="2.5" style="stroke:#181818;stroke-width:0.5;" width="204.1992" x="12.51" y="295.5869"/><rect fill="#F1F1F1" height="10" style="stroke:#181818;stroke-width:0.5;" width="15" x="196.7092" y="300.5869"/><rect fill="#F1F1F1" height="2" style="stroke:#181818;stroke-width:0.5;" width="4" x="194.7092" y="302.5869"/><rect fill="#F1F1F1" height="2" style="stroke:#181818;stroke-width:0.5;" width="4" x="194.7092" y="306.5869"/><text fill="#000000" font-family="sans-serif" font-size="14" lengthAdjust="spacing" textLength="164.1992" x="27.51" y="328.582">Open Webconcept CMS</text></g><!--entity Gateway--><g class="entity" data-entity="Gateway" data-source-line="9" data-uid="ent0005" id="entity_Gateway"><rect fill="#F1F1F1" height="46.2969" rx="2.5" ry="2.5" style="stroke:#181818;stroke-width:0.5;" width="169.3496" x="351.93" y="157.2969"/><rect fill="#F1F1F1" height="10" style="stroke:#181818;stroke-width:0.5;" width="15" x="501.2796" y="162.2969"/><rect fill="#F1F1F1" height="2" style="stroke:#181818;stroke-width:0.5;" width="4" x="499.2796" y="164.2969"/><rect fill="#F1F1F1" height="2" style="stroke:#181818;stroke-width:0.5;" width="4" x="499.2796" y="168.2969"/><text fill="#000000" font-family="sans-serif" font-size="14" lengthAdjust="spacing" textLength="129.3496" x="366.93" y="190.292">Common Gateway</text></g><!--entity Zaaksysteem--><g class="entity" data-entity="Zaaksysteem" data-source-line="10" data-uid="ent0006" id="entity_Zaaksysteem"><rect fill="#F1F1F1" height="46.2969" rx="2.5" ry="2.5" style="stroke:#181818;stroke-width:0.5;" width="134.083" x="455.57" y="295.5869"/><rect fill="#F1F1F1" height="10" style="stroke:#181818;stroke-width:0.5;" width="15" x="569.653" y="300.5869"/><rect fill="#F1F1F1" height="2" style="stroke:#181818;stroke-width:0.5;" width="4" x="567.653" y="302.5869"/><rect fill="#F1F1F1" height="2" style="stroke:#181818;stroke-width:0.5;" width="4" x="567.653" y="306.5869"/><text fill="#000000" font-family="sans-serif" font-size="14" lengthAdjust="spacing" textLength="94.083" x="470.57" y="328.582">Zaaksysteem</text></g><!--entity Raadsinfo--><g class="entity" data-entity="Raadsinfo" data-source-line="11" data-uid="ent0007" id="entity_Raadsinfo"><rect fill="#F1F1F1" height="46.2969" rx="2.5" ry="2.5" style="stroke:#181818;stroke-width:0.5;" width="214.5146" x="737.35" y="295.5869"/><rect fill="#F1F1F1" height="10" style="stroke:#181818;stroke-width:0.5;" width="15" x="931.8646" y="300.5869"/><rect fill="#F1F1F1" height="2" style="stroke:#181818;stroke-width:0.5;" width="4" x="929.8646" y="302.5869"/><rect fill="#F1F1F1" height="2" style="stroke:#181818;stroke-width:0.5;" width="4" x="929.8646" y="306.5869"/><text fill="#000000" font-family="sans-serif" font-size="14" lengthAdjust="spacing" textLength="174.5146" x="752.35" y="328.582">Raadsinformatiesysteem</text></g><!--link Website to Gateway--><g class="link" data-entity-1="Website" data-entity-2="Gateway" data-source-line="14" data-uid="lnk8" id="link_Website_Gateway"><path d="M338,59.9369 C342.74,74.2469 354.37,105.5769 371.61,127.2969 C380.34,138.2869 387.0272,144.7748 397.8772,153.1348" fill="none" id="Website-to-Gateway" style="stroke:#181818;stroke-width:1;"/><polygon fill="#181818" points="402.63,156.7969,397.9422,148.1352,398.6693,153.7451,393.0594,154.4723,402.63,156.7969" style="stroke:#181818;stroke-width:1;"/><text fill="#000000" font-family="sans-serif" font-size="13" lengthAdjust="spacing" textLength="122.7192" x="372.61" y="123.3638">Directly connected</text></g><!--link Harvester to Gateway--><g class="link" data-entity-1="Harvester" data-entity-2="Gateway" data-source-line="15" data-uid="lnk9" id="link_Harvester_Gateway"><path d="M535.84,59.8969 C530.4,74.1469 517.32,105.3769 499.61,127.2969 C490.78,138.2269 484.0468,144.7732 473.3668,153.2632" fill="none" id="Harvester-to-Gateway" style="stroke:#181818;stroke-width:1;"/><polygon fill="#181818" points="468.67,156.9969,478.2043,154.5276,472.584,153.8855,473.226,148.2652,468.67,156.9969" style="stroke:#181818;stroke-width:1;"/><text fill="#000000" font-family="sans-serif" font-size="13" lengthAdjust="spacing" textLength="103.6382" x="510.61" y="123.3638">Generated from</text></g><!--link Gateway to CMS--><g class="link" data-entity-1="Gateway" data-entity-2="CMS" data-source-line="16" data-uid="lnk10" id="link_Gateway_CMS"><path d="M351.77,186.2969 C237.74,193.6969 46.8,209.5369 25.61,233.5869 C6,255.8469 28.93,275.9503 58.65,292.2603" fill="none" id="Gateway-to-CMS" style="stroke:#181818;stroke-width:1;"/><polygon fill="#181818" points="63.91,295.1469,57.9444,287.3103,59.5267,292.7414,54.0956,294.3236,63.91,295.1469" style="stroke:#181818;stroke-width:1;"/><text fill="#000000" font-family="sans-serif" font-size="13" lengthAdjust="spacing" textLength="130.9204" x="26.61" y="246.6538">Scrapes periodically</text><text fill="#000000" font-family="sans-serif" font-size="13" lengthAdjust="spacing" textLength="97.519" x="43.3107" y="261.7866">Uses as source</text></g><!--reverse link Gateway to CMS--><g class="link" data-entity-1="Gateway" data-entity-2="CMS" data-source-line="21" data-uid="lnk14" id="link_Gateway_CMS"><path d="M345.6687,194.5438 C304.9387,202.4038 262.2,213.8669 221.61,233.5869 C189.3,249.2869 157.63,276.0069 137.24,295.1269" fill="none" id="Gateway-backto-CMS" style="stroke:#181818;stroke-width:1;"/><polygon fill="#181818" points="351.56,193.4069,341.9651,191.1847,346.6506,194.3543,343.481,199.0398,351.56,193.4069" style="stroke:#181818;stroke-width:1;"/><text fill="#000000" font-family="sans-serif" font-size="13" lengthAdjust="spacing" textLength="194.0479" x="222.61" y="254.1538">Notifies of changes or deletes</text></g><!--link Gateway to Zaaksysteem--><g class="link" data-entity-1="Gateway" data-entity-2="Zaaksysteem" data-source-line="17" data-uid="lnk11" id="link_Gateway_Zaaksysteem"><path d="M429.63,204.0769 C425.5,221.9669 422.92,246.9469 433.61,265.5869 C440.73,278.0169 446.9885,284.6349 459.2385,292.1649" fill="none" id="Gateway-to-Zaaksysteem" style="stroke:#181818;stroke-width:1;"/><polygon fill="#181818" points="464.35,295.3069,458.7774,287.1862,460.0904,292.6885,454.588,294.0015,464.35,295.3069" style="stroke:#181818;stroke-width:1;"/><text fill="#000000" font-family="sans-serif" font-size="13" lengthAdjust="spacing" textLength="130.9204" x="434.61" y="246.6538">Scrapes periodically</text><text fill="#000000" font-family="sans-serif" font-size="13" lengthAdjust="spacing" textLength="97.519" x="451.3107" y="261.7866">Uses as source</text></g><!--reverse link Gateway to Zaaksysteem--><g class="link" data-entity-1="Gateway" data-entity-2="Zaaksysteem" data-source-line="22" data-uid="lnk16" id="link_Gateway_Zaaksysteem"><path d="M527.0828,199.9498 C545.9428,207.6698 558.15,216.7869 569.61,233.5869 C583.28,253.6369 566.39,277.9669 549.17,295.3069" fill="none" id="Gateway-backto-Zaaksysteem" style="stroke:#181818;stroke-width:1;"/><polygon fill="#181818" points="521.53,197.6769,528.3439,204.7882,526.1573,199.571,531.3745,197.3844,521.53,197.6769" style="stroke:#181818;stroke-width:1;"/><text fill="#000000" font-family="sans-serif" font-size="13" lengthAdjust="spacing" textLength="194.0479" x="574.61" y="254.1538">Notifies of changes or deletes</text></g><!--link Gateway to Raadsinfo--><g class="link" data-entity-1="Gateway" data-entity-2="Raadsinfo" data-source-line="18" data-uid="lnk12" id="link_Gateway_Raadsinfo"><path d="M521.4,187.3369 C607.9,194.5869 735.25,209.0469 777.61,233.5869 C802.49,248.0069 818.691,270.3302 830.031,289.9802" fill="none" id="Gateway-to-Raadsinfo" style="stroke:#181818;stroke-width:1;"/><polygon fill="#181818" points="833.03,295.1769,831.9959,285.3825,830.5308,290.8463,825.067,289.3811,833.03,295.1769" style="stroke:#181818;stroke-width:1;"/><text fill="#000000" font-family="sans-serif" font-size="13" lengthAdjust="spacing" textLength="130.9204" x="812.61" y="246.6538">Scrapes periodically</text><text fill="#000000" font-family="sans-serif" font-size="13" lengthAdjust="spacing" textLength="97.519" x="829.3107" y="261.7866">Uses as source</text></g><!--SRC=[dP5DJyCm38Rl-HNMBfm6Tmv8CAI1n9Yq2GqXBbxgRj7QE4eyHlyzRhUM83W0fzhnuu_thJYf22PSr-mtA7J01gwZtJeXA_j8nfp1Kw88zruebcWxEB0dByODRwDv80-h-HnMj4xQF09CVPnpIyrh3F0yUu0BYBncEPTtwV0xZ6-K56sNtg3TaIy-joLZ-x1VHslBtb8GcCoMtGZzvjXH5qoFmZhY5EVK2-8kDRgOwWx9yXnR81R9-P9ZZU8exnXAxUKBghJEFcrTIERa0OmBFlZnLRyVBk7MHVMuQa15U8seC8C3F-1JyXGrAw2CN9k-q8EgNA6bZHWeGQ3ek70MgwfvzVe3KtjcudsqzAqrq_lV4OC1lnsWFZsok5BBdLUclN-y3rya7mdjunBi5lsc3ICKL95GCldTVslz0000]--></g></svg>