<svg xmlns="http://www.w3.org/2000/svg" xmlns:xlink="http://www.w3.org/1999/xlink" contentStyleType="text/css" data-diagram-type="DESCRIPTION" height="370px" preserveAspectRatio="none" style="width:1213px;height:370px;background:#FFFFFF;" version="1.1" viewBox="0 0 1213 370" width="1213px" zoomAndPan="magnify"><title>Commonground</title><defs/><g><text fill="#888888" font-family="sans-serif" font-size="10" lengthAdjust="spacing" textLength="70.835" x="1128.6729" y="9.2822">OpenWoo.app</text><text fill="#000000" font-family="sans-serif" font-size="14" font-weight="bold" lengthAdjust="spacing" textLength="125.1523" x="537.1778" y="35.6357">Commonground</text><!--cluster Publicatie platformen --><g class="cluster" data-entity="Publicatie platformen " data-source-line="6" data-uid="ent0002" id="cluster_Publicatie platformen "><rect fill="none" height="127.29" rx="2.5" ry="2.5" style="stroke:#181818;stroke-width:1;" width="542" x="118.46" y="56.9375"/><path d="M304.4102,56.9375 L304.4102,66.2344 L294.4102,76.2344 L118.46,76.2344" fill="none" style="stroke:#181818;stroke-width:1;"/><text fill="#000000" font-family="sans-serif" font-size="14" font-weight="bold" lengthAdjust="spacing" textLength="171.0762" x="121.46" y="70.9326">Publicatie platformen</text></g><!--cluster Services--><g class="cluster" data-entity="Services" data-source-line="15" data-uid="ent0008" id="cluster_Services"><rect fill="none" height="87.29" rx="2.5" ry="2.5" style="stroke:#181818;stroke-width:1;" width="196" x="774.46" y="76.9375"/><path d="M850.9942,76.9375 L850.9942,86.2344 L840.9942,96.2344 L774.46,96.2344" fill="none" style="stroke:#181818;stroke-width:1;"/><text fill="#000000" font-family="sans-serif" font-size="14" font-weight="bold" lengthAdjust="spacing" textLength="66.5342" x="777.46" y="90.9326">Services</text></g><!--cluster Integratie--><g class="cluster" data-entity="Integratie" data-source-line="20" data-uid="ent0010" id="cluster_Integratie"><rect fill="none" height="96.3" rx="2.5" ry="2.5" style="stroke:#181818;stroke-width:1;" width="132" x="347.46" y="248.7275"/><path d="M436.1827,248.7275 L436.1827,258.0244 L426.1827,268.0244 L347.46,268.0244" fill="none" style="stroke:#181818;stroke-width:1;"/><text fill="#000000" font-family="sans-serif" font-size="14" font-weight="bold" lengthAdjust="spacing" textLength="78.7227" x="350.46" y="262.7226">Integratie</text></g><!--cluster API--><g class="cluster" data-entity="API" data-source-line="25" data-uid="ent0012" id="cluster_API"><rect fill="none" height="97.3" rx="2.5" ry="2.5" style="stroke:#181818;stroke-width:1;" width="132" x="822.46" y="248.2275"/><path d="M858.7647,248.2275 L858.7647,257.5244 L848.7647,267.5244 L822.46,267.5244" fill="none" style="stroke:#181818;stroke-width:1;"/><text fill="#000000" font-family="sans-serif" font-size="14" font-weight="bold" lengthAdjust="spacing" textLength="26.3047" x="825.46" y="262.2226">API</text></g><!--entity KOOP--><g class="entity" data-entity="KOOP" data-source-line="7" data-uid="ent0003" id="entity_KOOP"><ellipse cx="154.4611" cy="100.4375" fill="#CCE5FF" rx="8" ry="8" style="stroke:#181818;stroke-width:0.5;"/><path d="M154.4611,108.4375 L154.4611,135.4375 M141.4611,116.4375 L167.4611,116.4375 M154.4611,135.4375 L141.4611,150.4375 M154.4611,135.4375 L167.4611,150.4375" fill="none" style="stroke:#181818;stroke-width:0.5;"/><text fill="#000000" font-family="sans-serif" font-size="14" lengthAdjust="spacing" textLength="39.6621" x="134.63" y="164.9326">KOOP</text></g><!--entity WOOGLE--><g class="entity" data-entity="WOOGLE" data-source-line="8" data-uid="ent0004" id="entity_WOOGLE"><ellipse cx="241.468" cy="100.4375" fill="#CCE5FF" rx="8" ry="8" style="stroke:#181818;stroke-width:0.5;"/><path d="M241.468,108.4375 L241.468,135.4375 M228.468,116.4375 L254.468,116.4375 M241.468,135.4375 L228.468,150.4375 M241.468,135.4375 L254.468,150.4375" fill="none" style="stroke:#181818;stroke-width:0.5;"/><text fill="#000000" font-family="sans-serif" font-size="14" lengthAdjust="spacing" textLength="63.376" x="209.78" y="164.9326">WOOGLE</text></g><!--entity Website--><g class="entity" data-entity="Website" data-source-line="9" data-uid="ent0005" id="entity_Website"><ellipse cx="344.46" cy="130.0775" fill="#1ABC9C" rx="8" ry="8" style="stroke:#181818;stroke-width:0.5;"/><text fill="#000000" font-family="sans-serif" font-size="14" lengthAdjust="spacing" textLength="56.6289" x="316.1455" y="160.0726">Website</text></g><!--entity Themasite--><g class="entity" data-entity="Themasite" data-source-line="10" data-uid="ent0006" id="entity_Themasite"><ellipse cx="461.46" cy="130.0775" fill="#1ABC9C" rx="8" ry="8" style="stroke:#181818;stroke-width:0.5;"/><text fill="#000000" font-family="sans-serif" font-size="14" lengthAdjust="spacing" textLength="77.9912" x="422.4644" y="160.0726">Thema site</text></g><!--entity Searchsite--><g class="entity" data-entity="Searchsite" data-source-line="11" data-uid="ent0007" id="entity_Searchsite"><ellipse cx="593.46" cy="130.0775" fill="#1ABC9C" rx="8" ry="8" style="stroke:#181818;stroke-width:0.5;"/><text fill="#000000" font-family="sans-serif" font-size="14" lengthAdjust="spacing" textLength="87.0215" x="549.9493" y="160.0726">Zoek pagina</text></g><!--entity OWS--><g class="entity" data-entity="OWS" data-source-line="16" data-uid="ent0009" id="entity_OWS"><polygon fill="#1ABC9C" points="790.18,111.9375,944.7376,111.9375,954.7376,130.0859,944.7376,148.2344,790.18,148.2344,800.18,130.0859" style="stroke:#181818;stroke-width:0.5;"/><text fill="#000000" font-family="sans-serif" font-size="14" lengthAdjust="spacing" textLength="124.5576" x="810.18" y="134.9326">OpenWoo Service</text></g><!--entity OI--><g class="entity" data-entity="OI" data-source-line="21" data-uid="ent0011" id="entity_OI"><path d="M363.15,293.7275 C363.15,283.7275 413.4649,283.7275 413.4649,283.7275 C413.4649,283.7275 463.7799,283.7275 463.7799,293.7275 L463.7799,319.0244 C463.7799,329.0244 413.4649,329.0244 413.4649,329.0244 C413.4649,329.0244 363.15,329.0244 363.15,319.0244 L363.15,293.7275" fill="#1ABC9C" style="stroke:#181818;stroke-width:0.5;"/><path d="M363.15,293.7275 C363.15,303.7275 413.4649,303.7275 413.4649,303.7275 C413.4649,303.7275 463.7799,303.7275 463.7799,293.7275" fill="none" style="stroke:#181818;stroke-width:0.5;"/><text fill="#000000" font-family="sans-serif" font-size="14" lengthAdjust="spacing" textLength="80.6299" x="373.15" y="320.7226">Open Index</text></g><!--entity Bronnen--><g class="entity" data-entity="Bronnen" data-source-line="26" data-uid="ent0013" id="entity_Bronnen"><rect fill="#CCE5FF" height="46.2969" rx="2.5" ry="2.5" style="stroke:#181818;stroke-width:0.5;" width="99.1582" x="838.88" y="283.2275"/><rect fill="#CCE5FF" height="10" style="stroke:#181818;stroke-width:0.5;" width="15" x="918.0382" y="288.2275"/><rect fill="#CCE5FF" height="2" style="stroke:#181818;stroke-width:0.5;" width="4" x="916.0382" y="290.2275"/><rect fill="#CCE5FF" height="2" style="stroke:#181818;stroke-width:0.5;" width="4" x="916.0382" y="294.2275"/><text fill="#000000" font-family="sans-serif" font-size="14" lengthAdjust="spacing" textLength="59.1582" x="853.88" y="316.2226">Bronnen</text></g><!--link KOOP to OI--><g class="link" data-entity-1="KOOP" data-entity-2="OI" data-source-line="30" data-uid="lnk14" id="link_KOOP_OI"><path d="M134.28,138.0475 C93.09,153.3075 6,191.5875 39.46,232.2275 C79.89,281.3275 264.5296,297.5986 356.9696,302.8286" fill="none" id="KOOP-to-OI" style="stroke:#181818;stroke-width:1;"/><polygon fill="#181818" points="362.96,303.1675,354.2003,298.6655,357.968,302.8851,353.7484,306.6527,362.96,303.1675" style="stroke:#181818;stroke-width:1;"/><text fill="#000000" font-family="sans-serif" font-size="13" lengthAdjust="spacing" textLength="165.2231" x="40.46" y="220.7944">Indexeerd (XML Sitemap)</text></g><!--link WOOGLE to OI--><g class="link" data-entity-1="WOOGLE" data-entity-2="OI" data-source-line="31" data-uid="lnk15" id="link_WOOGLE_OI"><path d="M221.33,168.4775 C213.31,188.8675 208.67,213.6575 221.46,232.2275 C253.04,278.0475 311.4885,294.3516 356.9785,300.7516" fill="none" id="WOOGLE-to-OI" style="stroke:#181818;stroke-width:1;"/><polygon fill="#181818" points="362.92,301.5875,354.565,296.3726,357.9688,300.8909,353.4505,304.2946,362.92,301.5875" style="stroke:#181818;stroke-width:1;"/><text fill="#000000" font-family="sans-serif" font-size="13" lengthAdjust="spacing" textLength="100.4517" x="222.46" y="220.7944">Indexeerd (API)</text></g><!--link Website to OI--><g class="link" data-entity-1="Website" data-entity-2="OI" data-source-line="32" data-uid="lnk16" id="link_Website_OI"><path d="M341.63,138.8375 C335.71,156.3175 323.68,199.8375 337.46,232.2275 C346.28,252.9575 359.4597,266.941 375.6697,279.731" fill="none" id="Website-to-OI" style="stroke:#181818;stroke-width:1;"/><polygon fill="#181818" points="380.38,283.4475,375.7922,274.7325,376.4547,280.3504,370.8368,281.0129,380.38,283.4475" style="stroke:#181818;stroke-width:1;"/><text fill="#000000" font-family="sans-serif" font-size="13" lengthAdjust="spacing" textLength="97.2334" x="338.46" y="220.7944">Bevraagd (API)</text></g><!--link Themasite to OI--><g class="link" data-entity-1="Themasite" data-entity-2="OI" data-source-line="33" data-uid="lnk17" id="link_Themasite_OI"><path d="M460.79,138.8375 C459.15,155.9575 454.38,198.2075 444.46,232.2275 C439.29,249.9775 433.5854,263.7542 426.8954,278.0342" fill="none" id="Themasite-to-OI" style="stroke:#181818;stroke-width:1;"/><polygon fill="#181818" points="424.35,283.4675,431.7904,277.0145,426.4712,278.9397,424.5459,273.6206,424.35,283.4675" style="stroke:#181818;stroke-width:1;"/><text fill="#000000" font-family="sans-serif" font-size="13" lengthAdjust="spacing" textLength="97.2334" x="452.46" y="220.7944">Bevraagd (API)</text></g><!--link Searchsite to OI--><g class="link" data-entity-1="Searchsite" data-entity-2="OI" data-source-line="34" data-uid="lnk18" id="link_Searchsite_OI"><path d="M592.75,138.9175 C590.68,157.3275 583.17,203.9675 558.46,232.2275 C533.69,260.5675 500.9533,277.1822 469.9133,288.5622" fill="none" id="Searchsite-to-OI" style="stroke:#181818;stroke-width:1;"/><polygon fill="#181818" points="464.28,290.6275,474.1069,291.2851,468.9744,288.9064,471.3531,283.774,464.28,290.6275" style="stroke:#181818;stroke-width:1;"/><text fill="#000000" font-family="sans-serif" font-size="13" lengthAdjust="spacing" textLength="97.2334" x="577.46" y="220.7944">Bevraagd (API)</text></g><!--link OWS to OI--><g class="link" data-entity-1="OWS" data-entity-2="OI" data-source-line="35" data-uid="lnk19" id="link_OWS_OI"><path d="M844.61,148.5875 C808.58,170.6275 743.3,208.4675 683.46,232.2275 C609.33,261.6675 525.0465,282.189 469.9465,294.009" fill="none" id="OWS-to-OI" style="stroke:#181818;stroke-width:1;stroke-dasharray:7.0,7.0;"/><polygon fill="#181818" points="464.08,295.2675,473.7188,297.2908,468.9688,294.2188,472.0408,289.4688,464.08,295.2675" style="stroke:#181818;stroke-width:1;"/><text fill="#000000" font-family="sans-serif" font-size="13" lengthAdjust="spacing" textLength="69.2148" x="753.46" y="220.7944">Slaat op in</text></g><!--link OWS to Bronnen--><g class="link" data-entity-1="OWS" data-entity-2="Bronnen" data-source-line="37" data-uid="lnk20" id="link_OWS_Bronnen"><path d="M870.28,148.7075 C868.16,168.9475 865.75,203.1275 869.46,232.2275 C871.67,249.5375 874.9845,262.864 879.3145,277.194" fill="none" id="OWS-to-Bronnen" style="stroke:#181818;stroke-width:1;"/><polygon fill="#181818" points="881.05,282.9375,882.2758,273.1652,879.6038,278.1512,874.6178,275.4792,881.05,282.9375" style="stroke:#181818;stroke-width:1;"/><text fill="#000000" font-family="sans-serif" font-size="13" lengthAdjust="spacing" textLength="130.9204" x="870.46" y="213.2944">Scrapes periodically</text><text fill="#000000" font-family="sans-serif" font-size="13" lengthAdjust="spacing" textLength="97.519" x="887.1607" y="228.4272">Uses as source</text></g><!--reverse link OWS to Bronnen--><g class="link" data-entity-1="OWS" data-entity-2="Bronnen" data-source-line="40" data-uid="lnk22" id="link_OWS_Bronnen"><path d="M942.9188,150.8558 C968.7888,161.3658 990.4,175.4275 1005.46,200.2275 C1027.57,236.6475 979.29,267.7275 938.2,286.4475" fill="none" id="OWS-backto-Bronnen" style="stroke:#181818;stroke-width:1;"/><polygon fill="#181818" points="937.36,148.5975,944.1926,155.6908,941.9923,150.4794,947.2037,148.2791,937.36,148.5975" style="stroke:#181818;stroke-width:1;"/><text fill="#000000" font-family="sans-serif" font-size="13" lengthAdjust="spacing" textLength="194.0479" x="1011.46" y="220.7944">Notifies of changes or deletes</text></g><text fill="#888888" font-family="sans-serif" font-size="10" lengthAdjust="spacing" textLength="70.835" x="564.3364" y="359.8097">OpenWoo.app</text><!--SRC=[VPDDRzGm48Rl-HMZz41xs9KezC0UAhK8eHKBMP5MMw5UPfr9OZNnMBQtW13_dSc7qwQYcvC_ddazVbydwD0GVEIsPLCvFfWYAPa3kHLabioEUOdM9ZLXyN8jUGFRmxxH2eCci0s6abrB1autY1LSmEtwB2aTjWJf_y4K_YGW7wh03j8lMRPDPUQX6y69KdHHbiy8W7INPPytdz8E6eOpJ1lfl4Gb9-vextMW5Avo6CTmyXRtweDwYTxKr28CjEZsqsFy3wO7i5XfWtr1JkXKFQlusxcJatlKYlpWn_l9ZBWUhsyToyn3EheR2mSlibq-brrB9vNhlHoKtqtAJrjHky20U_GqY4jjGRz6tVLSzjgnCLDwvvFcrNOTnHItbeK9a8vqV_zOEKNHwtqd2LgpyRMsFkaJNHJyqomkkwDNGoj4he3JkwyRoCM-5krPCiRw6Ylj23C6EeEkwT59wv5vYl4OzIoxOrWNmdBPxQqWRn03i9KdaVGRiJ3w88XoQCc39QUva8VVDB_lpQsN9V7Byy4fwZpwna6N_NyXFYMnVd6mNHkYl1e9gUCIL8scweOE2ceeaFy7]--></g></svg>