<svg xmlns="http://www.w3.org/2000/svg" xmlns:xlink="http://www.w3.org/1999/xlink" contentStyleType="text/css" data-diagram-type="DESCRIPTION" height="1085px" preserveAspectRatio="none" style="width:895px;height:1085px;background:#FFFFFF;" version="1.1" viewBox="0 0 895 1085" width="895px" zoomAndPan="magnify"><title>Open Catalogi</title><defs/><g><text fill="#888888" font-family="sans-serif" font-size="10" lengthAdjust="spacing" textLength="63.2666" x="818.1743" y="9.2822">Components</text><text fill="#000000" font-family="sans-serif" font-size="14" font-weight="bold" lengthAdjust="spacing" textLength="111.3574" x="385.0417" y="35.6357">Open Catalogi</text><!--cluster Azure--><g class="cluster" data-entity="Azure" data-source-line="10" data-uid="ent0005" id="cluster_Azure"><path d="M29.0641,947.2853 C32.013,941.2365 37.8835,941.3069 40.9979,947.1188 C44.7254,941.2687 49.4959,941.7996 53.506,946.7928 C56.0562,940.8861 61.8288,940.3034 65.2267,945.9313 C67.4564,939.7566 72.4844,939.7031 76.2418,944.3806 C80.136,940.0437 86.2949,939.811 88.2615,946.4848 C91.5049,941.5623 96.0956,940.3984 99.9953,945.7341 C103.6979,941.4169 108.9219,941.2734 110.9385,947.4862 C115.0758,942.249 118.6928,941.1487 122.6798,947.6367 C128.0919,951.3951 128.9889,956.9319 122.9451,960.9192 C131.2081,964.0527 131.9949,970.5506 124.8547,975.6772 C131.1138,979.233 131.9565,984.2691 125.6086,988.5625 C131.2669,993.9523 130.6257,999.2974 123.7056,1003.033 C128.8651,1007.3528 128.6898,1011.0833 123.6946,1015.3941 C131.1203,1019.9658 129.7689,1025.1779 123.2572,1029.3116 C119.1618,1034.6058 114.6,1035.3814 110.8505,1028.9457 C107.8706,1035.7714 102.5612,1035.6578 98.5528,1029.9553 C95.4802,1036.2304 91.4991,1037.0454 87.1342,1031.1696 C84.0684,1035.4464 79.8294,1035.1875 77.0252,1030.8622 C72.9065,1036.9771 66.9942,1035.7988 64.6594,1029.1359 C61.5399,1034.7753 55.8971,1036.771 51.562,1030.4691 C47.5885,1035.2822 44.2945,1036.0796 40.7947,1030.0009 C36.6579,1034.764 32.863,1034.3504 29.1921,1029.442 C21.1191,1026.8728 20.8183,1021.1924 26.2437,1015.7223 C18.5353,1012.3585 16.9105,1007.8136 22.9229,1001.2923 C16.5094,999.0946 14.6691,993.1505 20.7017,988.7489 C15.095,983.2266 16.0345,979.1862 22.9794,975.8867 C17.1601,969.4002 18.2101,962.8552 27.217,960.4345 C20.7379,954.8627 21.1967,950.8417 29.0641,947.2853" fill="none" style="stroke:#181818;stroke-width:1;"/><text fill="#000000" font-family="sans-serif" font-size="14" font-weight="bold" lengthAdjust="spacing" textLength="45.3496" x="52.351" y="964.816">Azure</text></g><!--cluster Internet--><g class="cluster" data-entity="Internet" data-source-line="14" data-uid="ent0007" id="cluster_Internet"><path d="M367.6134,68.3713 C374.5287,59.9306 382.4792,59.2873 388.4961,69.3834 C393.9846,61.4179 402.1049,62.2965 406.7289,70.3664 C412.3772,57.7397 420.1505,59.0484 428.8104,67.1597 C436.6809,57.8788 442.9628,59.2421 449.1193,68.9892 C453.2595,60.4227 462.1313,57.5895 468.1435,67.0091 C474.8367,58.7839 481.9631,58.6823 487.8172,67.9526 C492.8388,57.7609 500.7848,58.8101 506.5119,67.2447 C513.7227,56.4688 521.1237,55.9375 529.0334,66.5072 C534.6122,59.7364 542.9953,60.2379 546.7293,68.6565 C552.6457,58.6461 560.9212,59.5748 566.0851,69.391 C571.8079,59.8294 580.8343,59.0468 586.6592,69.2849 C591.9936,57.7253 600.5042,57.8218 607.7694,67.3523 C613.6907,59.2421 621.0789,61.207 624.9544,69.4961 C633.7153,58.8752 646.0774,62.139 651.0258,73.9309 C651.634,73.8468 651.8004,74.1615 651.7109,74.6994 C664.4943,81.1051 665.1766,92.248 652.8955,99.8348 C667.1344,107.502 664.9121,116.4653 654.6576,125.795 C663.5344,134.0808 662.7234,141.1088 652.3324,147.3125 C666.5693,160.2933 661.4488,173.7558 644.0258,178.2309 C646.5324,177.7617 648.2177,178.6545 647.5817,181.551 C639.7221,190.8023 631.1535,191.6093 625.1001,179.6377 C620.1384,187.7965 612.3867,188.1275 608.1625,178.9185 C602.7352,189.3606 595.8535,190.2767 588.3028,181.0639 C583.1925,190.6344 575.3767,192.4784 568.5024,182.8867 C561.0511,194.5748 551.842,192.1629 546.1064,181.191 C540.9626,189.0878 532.7389,189.1554 528.1387,180.5973 C523.4889,192.0361 514.9365,191.9932 507.7405,183.1594 C499.888,191.3267 492.9445,192.4131 486.8528,181.2562 C481.0659,190.6067 474.1991,190.8528 467.4138,182.3428 C460.1831,191.6232 452.2992,191.7946 446.3445,181.0033 C440.2152,188.6215 433.765,188.5644 427.6763,180.9536 C421.0453,189.6358 414.6787,189.0726 408.5184,180.433 C402.2329,188.1654 396.3253,187.7645 390.244,180.1893 C374.942,193.5769 366.3648,188.0768 360.0258,171.2309 C361.9111,171.333 362.8255,172.376 362.0899,174.2626 C349.8228,167.3301 348.1506,155.8046 360.8354,147.6939 C347.9182,142.083 349.404,132.3634 359.1176,125.0368 C350.1656,117.6225 349.3259,106.1122 362.6068,102.0766 C346.8134,90.8502 348.8192,73.8823 367.0258,66.9309 C367.7897,67.0575 368.0892,67.739 367.6134,68.3713" fill="none" style="stroke:#181818;stroke-width:1;"/><text fill="#000000" font-family="sans-serif" font-size="14" font-weight="bold" lengthAdjust="spacing" textLength="64.4219" x="473.3149" y="84.926">Internet</text></g><!--cluster Kubernetes--><g class="cluster" data-entity="Kubernetes" data-source-line="22" data-uid="ent0011" id="cluster_Kubernetes"><path d="M42.9895,379.2275 C60.2863,355.6917 77.3408,364.0129 89.4496,384.6803 C101.9281,354.3706 122.3232,356.2779 142.0911,377.1887 C153.8258,356.208 171.8689,357.9562 183.8804,376.899 C198.6107,351.4211 224.3487,351.7178 239.8939,375.9814 C255.2134,358.6878 268.0869,355.2296 281.0356,378.3923 C291.9995,352.4567 314.0635,356.9986 327.2852,376.0724 C339.5331,349.983 360.2719,347.1294 377.2179,371.4156 C396.2455,351.2884 413.5954,353.8353 428.3114,376.5568 C444.2726,360.2569 457.4619,357.2046 469.5373,380.5931 C484.0058,354.7781 510.4661,357.7017 525.2276,380.2559 C541.1605,358.657 554.7343,358.0138 569.2467,381.6387 C580.9903,355.5874 601.8373,357.6047 616.8121,378.3548 C630.3433,353.4516 651.7567,357.074 665.0097,378.6433 C682.2937,357.3557 703.1985,358.4767 714.0258,385.2309 C715.4298,383.8059 716.6486,383.7049 717.7331,385.5888 C746.9307,401.6138 741.1623,420.1755 719.4033,437.8296 C740.5106,448.6103 740.4542,468.7143 723.194,482.7339 C739.7127,498.6035 737.8782,517.3449 715.3714,526.1894 C739.1744,533.6529 740.0535,554.9422 721.7532,568.7229 C742.4707,581.8614 744.7866,595.2846 723.6987,610.3758 C743.3575,623.8784 743.8427,643.0708 721.1021,654.0527 C744.9013,669.1482 743.1192,693.1858 715.5264,702.3481 C736.6485,718.1101 737.9452,735.1148 715.4544,750.8119 C738.114,765.1521 737.0727,778.3686 715.8101,793.0784 C732.307,809.3105 733.8238,830.9031 707.0258,838.8209 C708.8196,838.0044 709.8066,838.9602 709.9329,840.7099 C698.7141,862.1588 680.17,860.669 666.205,843.8477 C649.4263,867.0288 634.0473,866.7624 618.1145,842.9814 C603.8886,864.7934 582.2356,863.7248 568.6624,842.2361 C558.8855,866.8101 537.5789,866.8359 522.8992,847.3255 C505.1535,871.7187 489.4588,868.5152 472.9514,846.0067 C458.8775,871.6909 439.3445,871.9621 423.0517,848.2481 C409.3835,871.8471 385.5903,872.1261 374.1881,846.0204 C361.4649,863.8915 346.8527,866.6158 332.9006,847.3881 C317.86,870.3779 301.3175,870.4309 286.1199,847.5481 C271.6017,875.4037 247.1639,872.4845 233.785,846.4418 C221.8071,868.6952 197.7845,868.1295 183.9631,848.6423 C171.4847,865.1605 154.9008,862.7922 144.7106,845.95 C130.8231,871.1757 107.4031,873.7478 92.6665,846.797 C68.2788,871.7382 44.5155,861.2989 34.0258,831.8209 C37.7601,830.2647 39.2593,832.2486 39.1779,835.7262 C19.9843,821.7176 20.8059,808.5053 39.9106,795.1888 C17.5887,783.5529 13.2645,763.1946 35.8844,747.7448 C15.9932,733.5154 15.6132,713.0269 36.1821,699.0448 C12.7635,685.4537 14.6871,666.1747 37.0022,653.4054 C17.5155,643.0459 17.2204,630.6849 32.616,616.2118 C9.8588,603.6124 6,581.8852 31.1474,567.8317 C11.6376,556.5127 14.358,536.9791 32.0681,526.4889 C11.1918,510.0255 10.0225,493.6126 35.9923,481.209 C16.7493,467.7261 12.7524,451.6687 33.996,436.3827 C12.5879,414.3678 10.6434,393.985 41.0258,378.2309 C42.0675,377.4973 42.9998,377.8885 42.9895,379.2275" fill="none" style="stroke:#181818;stroke-width:1;"/><text fill="#000000" font-family="sans-serif" font-size="14" font-weight="bold" lengthAdjust="spacing" textLength="91.2188" x="328.4164" y="396.226">Kubernetes</text></g><!--cluster Layer 5 (interaction)--><g class="cluster" data-entity="Layer 5 (interaction)" data-source-line="24" data-uid="ent0012" id="cluster_Layer 5 (interaction)"><path d="M52.5258,413.2309 L216.3852,413.2309 A3.75,3.75 0 0 1 218.8852,415.7309 L225.8852,435.5277 L475.5258,435.5277 A2.5,2.5 0 0 1 478.0258,438.0277 L478.0258,575.0309 A2.5,2.5 0 0 1 475.5258,577.5309 L52.5258,577.5309 A2.5,2.5 0 0 1 50.0258,575.0309 L50.0258,415.7309 A2.5,2.5 0 0 1 52.5258,413.2309" fill="none" style="stroke:#000000;stroke-width:1.5;"/><line style="stroke:#000000;stroke-width:1.5;" x1="50.0258" x2="225.8852" y1="435.5277" y2="435.5277"/><text fill="#000000" font-family="sans-serif" font-size="14" font-weight="bold" lengthAdjust="spacing" textLength="162.8594" x="54.0258" y="428.226">Layer 5 (interaction)</text></g><!--cluster React NL Design--><g class="cluster" data-entity="React NL Design" data-source-line="25" data-uid="ent0013" id="cluster_React NL Design"><path d="M76.5258,456.2309 L206.8618,456.2309 A3.75,3.75 0 0 1 209.3618,458.7309 L216.3618,478.5277 L243.5258,478.5277 A2.5,2.5 0 0 1 246.0258,481.0277 L246.0258,551.0309 A2.5,2.5 0 0 1 243.5258,553.5309 L76.5258,553.5309 A2.5,2.5 0 0 1 74.0258,551.0309 L74.0258,458.7309 A2.5,2.5 0 0 1 76.5258,456.2309" fill="none" style="stroke:#000000;stroke-width:1.5;"/><line style="stroke:#000000;stroke-width:1.5;" x1="74.0258" x2="216.3618" y1="478.5277" y2="478.5277"/><text fill="#000000" font-family="sans-serif" font-size="14" font-weight="bold" lengthAdjust="spacing" textLength="129.3359" x="78.0258" y="471.226">React NL Design</text></g><!--cluster Vue NL Design--><g class="cluster" data-entity="Vue NL Design" data-source-line="29" data-uid="ent0015" id="cluster_Vue NL Design"><path d="M272.5258,456.2309 L388.4448,456.2309 A3.75,3.75 0 0 1 390.9448,458.7309 L397.9448,478.5277 L451.5258,478.5277 A2.5,2.5 0 0 1 454.0258,481.0277 L454.0258,551.0309 A2.5,2.5 0 0 1 451.5258,553.5309 L272.5258,553.5309 A2.5,2.5 0 0 1 270.0258,551.0309 L270.0258,458.7309 A2.5,2.5 0 0 1 272.5258,456.2309" fill="none" style="stroke:#000000;stroke-width:1.5;"/><line style="stroke:#000000;stroke-width:1.5;" x1="270.0258" x2="397.9448" y1="478.5277" y2="478.5277"/><text fill="#000000" font-family="sans-serif" font-size="14" font-weight="bold" lengthAdjust="spacing" textLength="114.9189" x="274.0258" y="471.226">Vue NL Design</text></g><!--cluster layer4--><g class="cluster" data-entity="layer4" data-source-line="35" data-uid="ent0017" id="cluster_layer4"><path d="M504.5258,456.2309 L623.3637,456.2309 A3.75,3.75 0 0 1 625.8637,458.7309 L632.8637,478.5277 L695.5258,478.5277 A2.5,2.5 0 0 1 698.0258,481.0277 L698.0258,551.0309 A2.5,2.5 0 0 1 695.5258,553.5309 L504.5258,553.5309 A2.5,2.5 0 0 1 502.0258,551.0309 L502.0258,458.7309 A2.5,2.5 0 0 1 504.5258,456.2309" fill="none" style="stroke:#000000;stroke-width:1.5;"/><line style="stroke:#000000;stroke-width:1.5;" x1="502.0258" x2="632.8637" y1="478.5277" y2="478.5277"/><text fill="#000000" font-family="sans-serif" font-size="14" font-weight="bold" lengthAdjust="spacing" textLength="117.8379" x="506.0258" y="471.226">Layer 4 (Logic)</text></g><!--cluster layer2--><g class="cluster" data-entity="layer2" data-source-line="40" data-uid="ent0019" id="cluster_layer2"><path d="M151.5258,634.5309 L255.0102,634.5309 A3.75,3.75 0 0 1 257.5102,637.0309 L264.5102,656.8277 L508.5258,656.8277 A2.5,2.5 0 0 1 511.0258,659.3277 L511.0258,812.3209 A2.5,2.5 0 0 1 508.5258,814.8209 L151.5258,814.8209 A2.5,2.5 0 0 1 149.0258,812.3209 L149.0258,637.0309 A2.5,2.5 0 0 1 151.5258,634.5309" fill="none" style="stroke:#000000;stroke-width:1.5;"/><line style="stroke:#000000;stroke-width:1.5;" x1="149.0258" x2="264.5102" y1="656.8277" y2="656.8277"/><text fill="#000000" font-family="sans-serif" font-size="14" font-weight="bold" lengthAdjust="spacing" textLength="102.4844" x="153.0258" y="649.526">Layer 2 (API)</text></g><!--cluster Open Catalogi App--><g class="cluster" data-entity="Open Catalogi App" data-source-line="43" data-uid="ent0020" id="cluster_Open Catalogi App"><path d="M191.5258,685.5309 L339.6352,685.5309 A3.75,3.75 0 0 1 342.1352,688.0309 L349.1352,707.8277 L476.5258,707.8277 A2.5,2.5 0 0 1 479.0258,710.3277 L479.0258,780.3209 A2.5,2.5 0 0 1 476.5258,782.8209 L191.5258,782.8209 A2.5,2.5 0 0 1 189.0258,780.3209 L189.0258,688.0309 A2.5,2.5 0 0 1 191.5258,685.5309" fill="none" style="stroke:#000000;stroke-width:1.5;"/><line style="stroke:#000000;stroke-width:1.5;" x1="189.0258" x2="349.1352" y1="707.8277" y2="707.8277"/><text fill="#000000" font-family="sans-serif" font-size="14" font-weight="bold" lengthAdjust="spacing" textLength="147.1094" x="193.0258" y="700.526">Open Catalogi App</text></g><!--cluster Layer 1 (data)--><g class="cluster" data-entity="Layer 1 (data)" data-source-line="53" data-uid="ent0023" id="cluster_Layer 1 (data)"><path d="M156.5258,895.8209 L269.3139,895.8209 A3.75,3.75 0 0 1 271.8139,898.3209 L278.8139,918.1177 L507.5258,918.1177 A2.5,2.5 0 0 1 510.0258,920.6177 L510.0258,1057.6209 A2.5,2.5 0 0 1 507.5258,1060.1209 L156.5258,1060.1209 A2.5,2.5 0 0 1 154.0258,1057.6209 L154.0258,898.3209 A2.5,2.5 0 0 1 156.5258,895.8209" fill="none" style="stroke:#000000;stroke-width:1.5;"/><line style="stroke:#000000;stroke-width:1.5;" x1="154.0258" x2="278.8139" y1="918.1177" y2="918.1177"/><text fill="#000000" font-family="sans-serif" font-size="14" font-weight="bold" lengthAdjust="spacing" textLength="111.7881" x="158.0258" y="910.816">Layer 1 (data)</text></g><!--cluster Search index--><g class="cluster" data-entity="Search index" data-source-line="55" data-uid="ent0024" id="cluster_Search index"><path d="M180.5258,938.8209 L283.9077,938.8209 A3.75,3.75 0 0 1 286.4077,941.3209 L293.4077,961.1177 L345.5258,961.1177 A2.5,2.5 0 0 1 348.0258,963.6177 L348.0258,1033.6209 A2.5,2.5 0 0 1 345.5258,1036.1209 L180.5258,1036.1209 A2.5,2.5 0 0 1 178.0258,1033.6209 L178.0258,941.3209 A2.5,2.5 0 0 1 180.5258,938.8209" fill="none" style="stroke:#000000;stroke-width:1.5;"/><line style="stroke:#000000;stroke-width:1.5;" x1="178.0258" x2="293.4077" y1="961.1177" y2="961.1177"/><text fill="#000000" font-family="sans-serif" font-size="14" font-weight="bold" lengthAdjust="spacing" textLength="102.3818" x="182.0258" y="953.816">Search index</text></g><!--cluster Object Store--><g class="cluster" data-entity="Object Store" data-source-line="59" data-uid="ent0026" id="cluster_Object Store"><path d="M374.5258,938.8209 L474.4008,938.8209 A3.75,3.75 0 0 1 476.9008,941.3209 L483.9008,961.1177 L483.5258,961.1177 A2.5,2.5 0 0 1 486.0258,963.6177 L486.0258,1033.6209 A2.5,2.5 0 0 1 483.5258,1036.1209 L374.5258,1036.1209 A2.5,2.5 0 0 1 372.0258,1033.6209 L372.0258,941.3209 A2.5,2.5 0 0 1 374.5258,938.8209" fill="none" style="stroke:#000000;stroke-width:1.5;"/><line style="stroke:#000000;stroke-width:1.5;" x1="372.0258" x2="483.9008" y1="961.1177" y2="961.1177"/><text fill="#000000" font-family="sans-serif" font-size="14" font-weight="bold" lengthAdjust="spacing" textLength="98.875" x="376.0258" y="953.816">Object Store</text></g><!--entity identity--><g class="entity" data-entity="identity" data-source-line="11" data-uid="ent0006" id="entity_identity"><rect fill="#F1F1F1" height="46.2969" rx="2.5" ry="2.5" style="stroke:#181818;stroke-width:0.5;" width="77.2969" x="36.3758" y="973.8209"/><rect fill="#F1F1F1" height="10" style="stroke:#181818;stroke-width:0.5;" width="15" x="93.6727" y="978.8209"/><rect fill="#F1F1F1" height="2" style="stroke:#181818;stroke-width:0.5;" width="4" x="91.6727" y="980.8209"/><rect fill="#F1F1F1" height="2" style="stroke:#181818;stroke-width:0.5;" width="4" x="91.6727" y="984.8209"/><text fill="#000000" font-family="sans-serif" font-size="14" lengthAdjust="spacing" textLength="37.2969" x="51.3758" y="1006.816">ADFS</text></g><!--entity user--><g class="entity" data-entity="user" data-source-line="15" data-uid="ent0008" id="entity_user"><ellipse cx="384.0209" cy="102.4309" fill="#F1F1F1" rx="8" ry="8" style="stroke:#181818;stroke-width:0.5;"/><path d="M384.0209,110.4309 L384.0209,137.4309 M371.0209,118.4309 L397.0209,118.4309 M384.0209,137.4309 L371.0209,152.4309 M384.0209,137.4309 L397.0209,152.4309" fill="none" style="stroke:#181818;stroke-width:0.5;"/><text fill="#000000" font-family="sans-serif" font-size="14" lengthAdjust="spacing" textLength="31.9102" x="368.0658" y="166.926">User</text></g><!--entity adminUser--><g class="entity" data-entity="adminUser" data-source-line="16" data-uid="ent0009" id="entity_adminUser"><ellipse cx="457.0279" cy="102.4309" fill="#F1F1F1" rx="8" ry="8" style="stroke:#181818;stroke-width:0.5;"/><path d="M457.0279,110.4309 L457.0279,137.4309 M444.0279,118.4309 L470.0279,118.4309 M457.0279,137.4309 L444.0279,152.4309 M457.0279,137.4309 L470.0279,152.4309" fill="none" style="stroke:#181818;stroke-width:0.5;"/><text fill="#000000" font-family="sans-serif" font-size="14" lengthAdjust="spacing" textLength="44.8643" x="434.5958" y="166.926">Admin</text></g><!--entity externalCatalouge--><g class="entity" data-entity="externalCatalouge" data-source-line="17" data-uid="ent0010" id="entity_externalCatalouge"><ellipse cx="579.0245" cy="102.4309" fill="#F1F1F1" rx="8" ry="8" style="stroke:#181818;stroke-width:0.5;"/><path d="M579.0245,110.4309 L579.0245,137.4309 M566.0245,118.4309 L592.0245,118.4309 M579.0245,137.4309 L566.0245,152.4309 M579.0245,137.4309 L592.0245,152.4309" fill="none" style="stroke:#181818;stroke-width:0.5;"/><text fill="#000000" font-family="sans-serif" font-size="14" lengthAdjust="spacing" textLength="128.8574" x="514.5958" y="166.926">Externe Catalogus</text></g><!--entity ui--><g class="entity" data-entity="ui" data-source-line="26" data-uid="ent0014" id="entity_ui"><rect fill="#F1F1F1" height="46.2969" rx="2.5" ry="2.5" style="stroke:#181818;stroke-width:0.5;" width="139.0391" x="90.5058" y="491.2309"/><rect fill="#F1F1F1" height="10" style="stroke:#181818;stroke-width:0.5;" width="15" x="209.5449" y="496.2309"/><rect fill="#F1F1F1" height="2" style="stroke:#181818;stroke-width:0.5;" width="4" x="207.5449" y="498.2309"/><rect fill="#F1F1F1" height="2" style="stroke:#181818;stroke-width:0.5;" width="4" x="207.5449" y="502.2309"/><text fill="#000000" font-family="sans-serif" font-size="14" lengthAdjust="spacing" textLength="99.0391" x="105.5058" y="524.226">User Interface</text></g><!--entity admin--><g class="entity" data-entity="admin" data-source-line="30" data-uid="ent0016" id="entity_admin"><rect fill="#F1F1F1" height="46.2969" rx="2.5" ry="2.5" style="stroke:#181818;stroke-width:0.5;" width="151.9932" x="286.0258" y="491.2309"/><rect fill="#F1F1F1" height="10" style="stroke:#181818;stroke-width:0.5;" width="15" x="418.019" y="496.2309"/><rect fill="#F1F1F1" height="2" style="stroke:#181818;stroke-width:0.5;" width="4" x="416.019" y="498.2309"/><rect fill="#F1F1F1" height="2" style="stroke:#181818;stroke-width:0.5;" width="4" x="416.019" y="502.2309"/><text fill="#000000" font-family="sans-serif" font-size="14" lengthAdjust="spacing" textLength="111.9932" x="301.0258" y="524.226">Admin Interface</text></g><!--entity service--><g class="entity" data-entity="service" data-source-line="36" data-uid="ent0018" id="entity_service"><rect fill="#F1F1F1" height="46.2969" rx="2.5" ry="2.5" style="stroke:#181818;stroke-width:0.5;" width="164.0791" x="517.9858" y="491.2309"/><rect fill="#F1F1F1" height="10" style="stroke:#181818;stroke-width:0.5;" width="15" x="662.0649" y="496.2309"/><rect fill="#F1F1F1" height="2" style="stroke:#181818;stroke-width:0.5;" width="4" x="660.0649" y="498.2309"/><rect fill="#F1F1F1" height="2" style="stroke:#181818;stroke-width:0.5;" width="4" x="660.0649" y="502.2309"/><text fill="#000000" font-family="sans-serif" font-size="14" lengthAdjust="spacing" textLength="124.0791" x="532.9858" y="524.226">Synchronysations</text></g><!--entity SearchAPI--><g class="entity" data-entity="SearchAPI" data-source-line="44" data-uid="ent0021" id="entity_SearchAPI"><rect fill="#F1F1F1" height="46.2969" rx="2.5" ry="2.5" style="stroke:#181818;stroke-width:0.5;" width="115.0039" x="205.5258" y="720.5309"/><rect fill="#F1F1F1" height="10" style="stroke:#181818;stroke-width:0.5;" width="15" x="300.5297" y="725.5309"/><rect fill="#F1F1F1" height="2" style="stroke:#181818;stroke-width:0.5;" width="4" x="298.5297" y="727.5309"/><rect fill="#F1F1F1" height="2" style="stroke:#181818;stroke-width:0.5;" width="4" x="298.5297" y="731.5309"/><text fill="#000000" font-family="sans-serif" font-size="14" lengthAdjust="spacing" textLength="75.0039" x="220.5258" y="753.526">Search API</text></g><!--entity ObjectsAPI--><g class="entity" data-entity="ObjectsAPI" data-source-line="45" data-uid="ent0022" id="entity_ObjectsAPI"><rect fill="#F1F1F1" height="46.2969" rx="2.5" ry="2.5" style="stroke:#181818;stroke-width:0.5;" width="107.1289" x="355.4658" y="720.5309"/><rect fill="#F1F1F1" height="10" style="stroke:#181818;stroke-width:0.5;" width="15" x="442.5947" y="725.5309"/><rect fill="#F1F1F1" height="2" style="stroke:#181818;stroke-width:0.5;" width="4" x="440.5947" y="727.5309"/><rect fill="#F1F1F1" height="2" style="stroke:#181818;stroke-width:0.5;" width="4" x="440.5947" y="731.5309"/><text fill="#000000" font-family="sans-serif" font-size="14" lengthAdjust="spacing" textLength="67.1289" x="370.4658" y="753.526">CRUD API</text></g><!--entity search--><g class="entity" data-entity="search" data-source-line="56" data-uid="ent0025" id="entity_search"><rect fill="#F1F1F1" height="46.2969" rx="2.5" ry="2.5" style="stroke:#181818;stroke-width:0.5;" width="138.54" x="193.7558" y="973.8209"/><rect fill="#F1F1F1" height="10" style="stroke:#181818;stroke-width:0.5;" width="15" x="312.2959" y="978.8209"/><rect fill="#F1F1F1" height="2" style="stroke:#181818;stroke-width:0.5;" width="4" x="310.2959" y="980.8209"/><rect fill="#F1F1F1" height="2" style="stroke:#181818;stroke-width:0.5;" width="4" x="310.2959" y="984.8209"/><text fill="#000000" font-family="sans-serif" font-size="14" lengthAdjust="spacing" textLength="98.54" x="208.7558" y="1006.816">Elastic Search</text></g><!--entity db--><g class="entity" data-entity="db" data-source-line="60" data-uid="ent0027" id="entity_db"><rect fill="#F1F1F1" height="46.2969" rx="2.5" ry="2.5" style="stroke:#181818;stroke-width:0.5;" width="70.5225" x="387.7658" y="973.8209"/><rect fill="#F1F1F1" height="10" style="stroke:#181818;stroke-width:0.5;" width="15" x="438.2883" y="978.8209"/><rect fill="#F1F1F1" height="2" style="stroke:#181818;stroke-width:0.5;" width="4" x="436.2883" y="980.8209"/><rect fill="#F1F1F1" height="2" style="stroke:#181818;stroke-width:0.5;" width="4" x="436.2883" y="984.8209"/><text fill="#000000" font-family="sans-serif" font-size="14" lengthAdjust="spacing" textLength="30.5225" x="402.7658" y="1006.816">ORC</text></g><!--entity f5extern--><g class="entity" data-entity="f5extern" data-source-line="5" data-uid="ent0002" id="entity_f5extern"><ellipse cx="194.0258" cy="278.2309" fill="#F1F1F1" rx="8" ry="8" style="stroke:#181818;stroke-width:0.5;"/><text fill="#000000" font-family="sans-serif" font-size="14" lengthAdjust="spacing" textLength="142.2832" x="122.8842" y="308.226">F5 extern (port 443)</text></g><!--entity f5intern--><g class="entity" data-entity="f5intern" data-source-line="6" data-uid="ent0003" id="entity_f5intern"><ellipse cx="457.0258" cy="278.2309" fill="#F1F1F1" rx="8" ry="8" style="stroke:#181818;stroke-width:0.5;"/><text fill="#000000" font-family="sans-serif" font-size="14" lengthAdjust="spacing" textLength="138.1475" x="387.9521" y="308.226">F5 intern (port 443)</text></g><!--entity hipp--><g class="entity" data-entity="hipp" data-source-line="8" data-uid="ent0004" id="entity_hipp"><ellipse cx="817.0258" cy="514.3809" fill="#F1F1F1" rx="8" ry="8" style="stroke:#181818;stroke-width:0.5;"/><text fill="#000000" font-family="sans-serif" font-size="14" lengthAdjust="spacing" textLength="142.8301" x="745.6108" y="544.376">Hipp (outd of scope)</text></g><!--link externalCatalouge to hipp--><g class="link" data-entity-1="externalCatalouge" data-entity-2="hipp" data-source-line="64" data-uid="lnk28" id="link_externalCatalouge_hipp"><path d="M605.6789,175.6769 C659.3889,261.4969 782.3022,457.9052 808.9822,500.5252" fill="none" id="externalCatalouge-hipp" style="stroke:#181818;stroke-width:1;stroke-dasharray:7.0,7.0;"/><polygon fill="#181818" points="602.4958,170.5909,603.8797,180.342,605.1484,174.8293,610.6611,176.0979,602.4958,170.5909" style="stroke:#181818;stroke-width:1;"/><polygon fill="#181818" points="812.1658,505.6109,810.7808,495.8599,809.5128,501.3728,803.9999,500.1047,812.1658,505.6109" style="stroke:#181818;stroke-width:1;"/><text fill="#000000" font-family="sans-serif" font-size="13" lengthAdjust="spacing" textLength="30.4307" x="687.0258" y="282.7978">PKIO</text></g><!--link hipp to SearchAPI--><g class="link" data-entity-1="hipp" data-entity-2="SearchAPI" data-source-line="65" data-uid="lnk29" id="link_hipp_SearchAPI"><path d="M803.4412,525.4507 C784.4312,539.3407 742.3158,568.4009 698.0258,585.5309 C647.2158,605.1809 632.1158,604.0409 578.0258,610.5309 C551.5358,613.7009 361.0458,605.0309 338.0258,618.5309 C299.9058,640.8809 280.6581,685.2239 271.1581,714.4939" fill="none" id="hipp-SearchAPI" style="stroke:#181818;stroke-width:1;stroke-dasharray:7.0,7.0;"/><polygon fill="#181818" points="808.2858,521.9109,798.6591,523.9908,804.2487,524.8607,803.3788,530.4503,808.2858,521.9109" style="stroke:#181818;stroke-width:1;"/><polygon fill="#181818" points="269.3058,720.2009,275.8888,712.8753,270.8494,715.4451,268.2796,710.4056,269.3058,720.2009" style="stroke:#181818;stroke-width:1;"/><text fill="#000000" font-family="sans-serif" font-size="13" lengthAdjust="spacing" textLength="161.7573" x="674.0258" y="606.5978">Catalogus uitwisselingen</text></g><!--link user to f5extern--><g class="link" data-entity-1="user" data-entity-2="f5extern" data-source-line="68" data-uid="lnk30" id="link_user_f5extern"><path d="M363.046,148.9976 C324.456,178.2776 237.6552,244.1235 207.7852,266.7935" fill="none" id="user-f5extern" style="stroke:#181818;stroke-width:1;stroke-dasharray:7.0,7.0;"/><polygon fill="#181818" points="367.8258,145.3709,358.2382,147.6243,363.8426,148.3931,363.0738,153.9975,367.8258,145.3709" style="stroke:#181818;stroke-width:1;"/><polygon fill="#181818" points="203.0058,270.4209,212.5931,268.1661,206.9886,267.3981,207.7567,261.7936,203.0058,270.4209" style="stroke:#181818;stroke-width:1;"/><text fill="#000000" font-family="sans-serif" font-size="13" lengthAdjust="spacing" textLength="118.936" x="290.0258" y="215.2978">Browser ANONIEM</text></g><!--link adminUser to f5intern--><g class="link" data-entity-1="adminUser" data-entity-2="f5intern" data-source-line="69" data-uid="lnk31" id="link_adminUser_f5intern"><path d="M457.0258,176.5809 C457.0258,210.2809 457.0258,245.2009 457.0258,263.4909" fill="none" id="adminUser-f5intern" style="stroke:#181818;stroke-width:1;stroke-dasharray:7.0,7.0;"/><polygon fill="#181818" points="457.0258,170.5809,453.0258,179.5809,457.0258,175.5809,461.0258,179.5809,457.0258,170.5809" style="stroke:#181818;stroke-width:1;"/><polygon fill="#181818" points="457.0258,269.4909,461.0258,260.4909,457.0258,264.4909,453.0258,260.4909,457.0258,269.4909" style="stroke:#181818;stroke-width:1;"/><text fill="#000000" font-family="sans-serif" font-size="13" lengthAdjust="spacing" textLength="154.2925" x="458.0258" y="215.2978">Browser MET JWT Claim</text></g><!--link f5extern to ui--><g class="link" data-entity-1="f5extern" data-entity-2="ui" data-source-line="70" data-uid="lnk32" id="link_f5extern_ui"><path d="M182.9604,291.6858 C173.9404,302.2058 162.8458,317.2809 157.0258,337.2309 C141.4758,390.5209 148.4499,450.881 154.4199,484.941" fill="none" id="f5extern-ui" style="stroke:#181818;stroke-width:1;stroke-dasharray:7.0,7.0;"/><polygon fill="#181818" points="186.8658,287.1309,177.971,291.3596,183.6113,290.9266,184.0442,296.5669,186.8658,287.1309" style="stroke:#181818;stroke-width:1;"/><polygon fill="#181818" points="155.4558,490.8509,157.8419,481.2954,154.5926,485.926,149.9621,482.6766,155.4558,490.8509" style="stroke:#181818;stroke-width:1;"/><text fill="#000000" font-family="sans-serif" font-size="13" lengthAdjust="spacing" textLength="255.8359" x="158.0258" y="350.2978">Alleen openbare endpoints en objecten</text></g><!--link f5intern to admin--><g class="link" data-entity-1="f5intern" data-entity-2="admin" data-source-line="71" data-uid="lnk33" id="link_f5intern_admin"><path d="M451.6105,292.5808 C438.6705,324.4808 393.9418,434.7111 373.3818,485.3811" fill="none" id="f5intern-admin" style="stroke:#181818;stroke-width:1;stroke-dasharray:7.0,7.0;"/><polygon fill="#181818" points="453.8658,287.0209,446.7761,293.8573,451.9863,291.6542,454.1894,296.8644,453.8658,287.0209" style="stroke:#181818;stroke-width:1;"/><polygon fill="#181818" points="371.1258,490.9409,378.2162,484.1052,373.0058,486.3078,370.8032,481.0973,371.1258,490.9409" style="stroke:#181818;stroke-width:1;"/><text fill="#000000" font-family="sans-serif" font-size="13" lengthAdjust="spacing" textLength="92.6631" x="432.0258" y="350.2978">Alle endpionts</text></g><!--link ui to SearchAPI--><g class="link" data-entity-1="ui" data-entity-2="SearchAPI" data-source-line="72" data-uid="lnk34" id="link_ui_SearchAPI"><path d="M172.753,543.4656 C192.503,587.0356 230.6291,671.1859 250.3391,714.6759" fill="none" id="ui-SearchAPI" style="stroke:#181818;stroke-width:1;stroke-dasharray:7.0,7.0;"/><polygon fill="#181818" points="170.2758,538.0009,170.3484,547.8495,172.3401,542.5548,177.6347,544.5466,170.2758,538.0009" style="stroke:#181818;stroke-width:1;"/><polygon fill="#181818" points="252.8158,720.1409,252.744,710.2923,250.7519,715.5867,245.4574,713.5946,252.8158,720.1409" style="stroke:#181818;stroke-width:1;"/><text fill="#000000" font-family="sans-serif" font-size="13" lengthAdjust="spacing" textLength="92.6631" x="204.0258" y="606.5978">Alle endpionts</text></g><!--link admin to ObjectsAPI--><g class="link" data-entity-1="admin" data-entity-2="ObjectsAPI" data-source-line="73" data-uid="lnk35" id="link_admin_ObjectsAPI"><path d="M367.9209,543.8766 C376.9309,587.4466 394.1612,670.7751 403.1512,714.2651" fill="none" id="admin-ObjectsAPI" style="stroke:#181818;stroke-width:1;stroke-dasharray:7.0,7.0;"/><polygon fill="#181818" points="366.7058,538.0009,364.6113,547.6244,367.7184,542.8973,372.4455,546.0044,366.7058,538.0009" style="stroke:#181818;stroke-width:1;"/><polygon fill="#181818" points="404.3658,720.1409,406.4611,710.5175,403.3536,715.2444,398.6267,712.1369,404.3658,720.1409" style="stroke:#181818;stroke-width:1;"/><text fill="#000000" font-family="sans-serif" font-size="13" lengthAdjust="spacing" textLength="92.6631" x="382.0258" y="606.5978">Alle endpionts</text></g><!--link ObjectsAPI to db--><g class="link" data-entity-1="ObjectsAPI" data-entity-2="db" data-source-line="74" data-uid="lnk36" id="link_ObjectsAPI_db"><path d="M410.2658,766.9809 C412.9158,814.5409 418.7615,919.5302 421.4315,967.3702" fill="none" id="ObjectsAPI-to-db" style="stroke:#181818;stroke-width:1;stroke-dasharray:7.0,7.0;"/><polygon fill="#181818" points="421.7658,973.3609,425.2581,964.152,421.4872,968.3686,417.2705,964.5978,421.7658,973.3609" style="stroke:#181818;stroke-width:1;"/><text fill="#000000" font-family="sans-serif" font-size="13" lengthAdjust="spacing" textLength="43.437" x="417.0258" y="875.8878">Persist</text></g><!--link SearchAPI to search--><g class="link" data-entity-1="SearchAPI" data-entity-2="search" data-source-line="75" data-uid="lnk37" id="link_SearchAPI_search"><path d="M263.0258,766.9809 C263.0258,814.5409 263.0258,919.5209 263.0258,967.3609" fill="none" id="SearchAPI-to-search" style="stroke:#181818;stroke-width:1;stroke-dasharray:7.0,7.0;"/><polygon fill="#181818" points="263.0258,973.3609,267.0258,964.3609,263.0258,968.3609,259.0258,964.3609,263.0258,973.3609" style="stroke:#181818;stroke-width:1;"/><text fill="#000000" font-family="sans-serif" font-size="13" lengthAdjust="spacing" textLength="51.3018" x="264.0258" y="875.8878">Look up</text></g><!--link layer2 to identity--><g class="link" data-entity-1="layer2" data-entity-2="identity" data-source-line="76" data-uid="lnk38" id="link_layer2_identity"><path d="M148.9638,769.3918 C148.8829,769.6399 148.8014,769.8895 148.7194,770.1407 C148.3916,771.1454 148.0558,772.1743 147.7124,773.2265 C142.2183,790.0615 134.7821,812.8484 126.7558,837.4434 C110.7033,886.6334 94.1522,937.3519 84.1972,967.8569" fill="none" id="layer2-to-identity" style="stroke:#181818;stroke-width:1;stroke-dasharray:7.0,7.0;"/><polygon fill="#181818" points="82.3358,973.5609,88.9306,966.2459,83.887,968.8076,81.3253,963.764,82.3358,973.5609" style="stroke:#181818;stroke-width:1;"/><text fill="#000000" font-family="sans-serif" font-size="13" lengthAdjust="spacing" textLength="36.1245" x="117.0258" y="875.8878">AUTH</text></g><!--link service to ObjectsAPI--><g class="link" data-entity-1="service" data-entity-2="ObjectsAPI" data-source-line="77" data-uid="lnk39" id="link_service_ObjectsAPI"><path d="M581.0158,538.0009 C544.4058,581.5709 468.3761,672.0576 431.8261,715.5476" fill="none" id="service-to-ObjectsAPI" style="stroke:#181818;stroke-width:1;stroke-dasharray:7.0,7.0;"/><polygon fill="#181818" points="427.9658,720.1409,436.8184,715.8245,431.1827,716.3131,430.6941,710.6774,427.9658,720.1409" style="stroke:#181818;stroke-width:1;"/><text fill="#000000" font-family="sans-serif" font-size="13" lengthAdjust="spacing" textLength="36.1245" x="533.0258" y="606.5978">AUTH</text></g><text fill="#888888" font-family="sans-serif" font-size="10" lengthAdjust="spacing" textLength="144.0625" x="368.6892" y="1075.4031">Open Catalogi | Components</text><!--SRC=[RLHDSzem4BthL-nmSY_CD8MBfzCP5yY4Xa26Z_QGoK7O2wWnaiUIIcYQ_zwLX6qmkLcxRz_RjrhP29DZ3BC29GouuRdQ2hPHoc3PYi8_6AXzeIHAezaEUUOWPo4c95LjU8hGkUq3lj99GbIeqa2lz-LJ1xY6JJ_4Ms1_-W0SuXVKTw8e85BMPA0se5DLO43lAC5OcYkRGIVvQqlil35uIeQtYsTm095Hdy8SsNiD6tj-D8JagL4bT5OQIqzdwQCA9jbUI1_bxcjrbXfvErYDoMeF2oPv7g9sYyo9LghtTkrLKPCkAtZwmhVaRCAFM48V8k-M-8MIPEsjGSoHeZ2Tm12rs4gNWoVN3Ooh0GMhLZYzkkwdnNQLjzGky-weqlNQQgi7qOIs80sppbsivuaMHvdkIYMFchk6TM2Ydlw853zYke4eUHoVyTmGpndgSkkIeWWDBv2NwGwezDbLXYETA3MOhuPrOhR-ZQdHBkF4tzd5948Bdo7AIC0FjycT58JCy3LeZdAkZKXFOfKpztr16YHXGGk1eN0s7mHqjWxZl5e8-DhjVlCx6yFZ_NZ6t6S8rjRYPgleHir1Q8sva5ka5y7SVWPyzQPY-5wgWmidqzbqF7fWzRPMmDCxQv0FeoNy-BM4GSx5dbLC0Mv534cU8rq7FJAvvYK2ognGn48hJb7lcxgfYNsTLmsb7azRGRy7AwxSjH2-Be2QIxn2DIc0RgOEak3PceQ8fHRQi9g_IOShYs6Yr0lOWfsshafN_mMIMYtls6brw_H5BmJu3m00]--></g></svg>