<svg xmlns="http://www.w3.org/2000/svg" xmlns:xlink="http://www.w3.org/1999/xlink" contentStyleType="text/css" data-diagram-type="DESCRIPTION" height="498px" preserveAspectRatio="none" style="width:1198px;height:498px;background:#FFFFFF;" version="1.1" viewBox="0 0 1198 498" width="1198px" zoomAndPan="magnify"><title>Samenwerking OpenWoo.app en Datamask</title><defs/><g><text fill="#888888" font-family="sans-serif" font-size="10" lengthAdjust="spacing" textLength="70.835" x="1113.165" y="9.2822">OpenWoo.app</text><text fill="#000000" font-family="sans-serif" font-size="14" font-weight="bold" lengthAdjust="spacing" textLength="340.8535" x="421.5732" y="35.6357">Samenwerking OpenWoo.app en Datamask</text><!--cluster Publicatie platformen --><g class="cluster" data-entity="Publicatie platformen " data-source-line="7" data-uid="ent0002" id="cluster_Publicatie platformen "><rect fill="none" height="127.3" rx="2.5" ry="2.5" style="stroke:#181818;stroke-width:1;" width="449" x="401" y="56.9375"/><path d="M586.9502,56.9375 L586.9502,66.2344 L576.9502,76.2344 L401,76.2344" fill="none" style="stroke:#181818;stroke-width:1;"/><text fill="#000000" font-family="sans-serif" font-size="14" font-weight="bold" lengthAdjust="spacing" textLength="171.0762" x="404" y="70.9326">Publicatie platformen</text></g><!--cluster Integratie--><g class="cluster" data-entity="Integratie" data-source-line="17" data-uid="ent0007" id="cluster_Integratie"><rect fill="none" height="240.59" rx="2.5" ry="2.5" style="stroke:#181818;stroke-width:1;" width="429" x="155" y="233.2375"/><path d="M243.7227,233.2375 L243.7227,242.5344 L233.7227,252.5344 L155,252.5344" fill="none" style="stroke:#181818;stroke-width:1;"/><text fill="#000000" font-family="sans-serif" font-size="14" font-weight="bold" lengthAdjust="spacing" textLength="78.7227" x="158" y="247.2326">Integratie</text></g><!--cluster API--><g class="cluster" data-entity="API" data-source-line="24" data-uid="ent0011" id="cluster_API"><rect fill="none" height="96.3" rx="2.5" ry="2.5" style="stroke:#181818;stroke-width:1;" width="124" x="7" y="377.5275"/><path d="M43.3047,377.5275 L43.3047,386.8244 L33.3047,396.8244 L7,396.8244" fill="none" style="stroke:#181818;stroke-width:1;"/><text fill="#000000" font-family="sans-serif" font-size="14" font-weight="bold" lengthAdjust="spacing" textLength="26.3047" x="10" y="391.5226">API</text></g><!--cluster Legenda--><g class="cluster" data-entity="Legenda" data-source-line="28" data-uid="ent0013" id="cluster_Legenda"><rect fill="none" height="97.3" rx="2.5" ry="2.5" style="stroke:#181818;stroke-width:1;" width="318" x="874" y="71.9375"/><path d="M951.3682,71.9375 L951.3682,81.2344 L941.3682,91.2344 L874,91.2344" fill="none" style="stroke:#181818;stroke-width:1;"/><text fill="#000000" font-family="sans-serif" font-size="14" font-weight="bold" lengthAdjust="spacing" textLength="67.3682" x="877" y="85.9326">Legenda</text></g><!--entity KOOP--><g class="entity" data-entity="KOOP" data-source-line="8" data-uid="ent0003" id="entity_KOOP"><ellipse cx="437.0011" cy="100.4375" fill="#008B6C" rx="8" ry="8" style="stroke:#181818;stroke-width:0.5;"/><path d="M437.0011,108.4375 L437.0011,135.4375 M424.0011,116.4375 L450.0011,116.4375 M437.0011,135.4375 L424.0011,150.4375 M437.0011,135.4375 L450.0011,150.4375" fill="none" style="stroke:#181818;stroke-width:0.5;"/><text fill="#000000" font-family="sans-serif" font-size="14" lengthAdjust="spacing" textLength="39.6621" x="417.17" y="164.9326">KOOP</text></g><!--entity WOOGLE--><g class="entity" data-entity="WOOGLE" data-source-line="9" data-uid="ent0004" id="entity_WOOGLE"><ellipse cx="523.998" cy="100.4375" fill="#008B6C" rx="8" ry="8" style="stroke:#181818;stroke-width:0.5;"/><path d="M523.998,108.4375 L523.998,135.4375 M510.998,116.4375 L536.998,116.4375 M523.998,135.4375 L510.998,150.4375 M523.998,135.4375 L536.998,150.4375" fill="none" style="stroke:#181818;stroke-width:0.5;"/><text fill="#000000" font-family="sans-serif" font-size="14" lengthAdjust="spacing" textLength="63.376" x="492.31" y="164.9326">WOOGLE</text></g><!--entity Website--><g class="entity" data-entity="Website" data-source-line="10" data-uid="ent0005" id="entity_Website"><ellipse cx="627" cy="130.0875" fill="#008B6C" rx="8" ry="8" style="stroke:#181818;stroke-width:0.5;"/><text fill="#000000" font-family="sans-serif" font-size="14" lengthAdjust="spacing" textLength="56.6289" x="598.6855" y="160.0826">Website</text></g><!--entity PublicatiePagina--><g class="entity" data-entity="PublicatiePagina" data-source-line="11" data-uid="ent0006" id="entity_PublicatiePagina"><ellipse cx="766" cy="130.0875" fill="#F16E06" rx="8" ry="8" style="stroke:#181818;stroke-width:0.5;"/><text fill="#000000" font-family="sans-serif" font-size="14" lengthAdjust="spacing" textLength="120.3945" x="705.8027" y="160.0826">Publicatie pagina</text></g><!--entity OI--><g class="entity" data-entity="OI" data-source-line="18" data-uid="ent0008" id="entity_OI"><path d="M454.69,422.5275 C454.69,412.5275 505.0049,412.5275 505.0049,412.5275 C505.0049,412.5275 555.3199,412.5275 555.3199,422.5275 L555.3199,447.8244 C555.3199,457.8244 505.0049,457.8244 505.0049,457.8244 C505.0049,457.8244 454.69,457.8244 454.69,447.8244 L454.69,422.5275" fill="#008B6C" style="stroke:#181818;stroke-width:0.5;"/><path d="M454.69,422.5275 C454.69,432.5275 505.0049,432.5275 505.0049,432.5275 C505.0049,432.5275 555.3199,432.5275 555.3199,422.5275" fill="none" style="stroke:#181818;stroke-width:0.5;"/><text fill="#000000" font-family="sans-serif" font-size="14" lengthAdjust="spacing" textLength="80.6299" x="464.69" y="449.5226">Open Index</text></g><!--entity FCS--><g class="entity" data-entity="FCS" data-source-line="19" data-uid="ent0009" id="entity_FCS"><rect fill="#008B6C" height="46.2969" rx="2.5" ry="2.5" style="stroke:#181818;stroke-width:0.5;" width="198.2314" x="369.88" y="268.2375"/><rect fill="#008B6C" height="10" style="stroke:#181818;stroke-width:0.5;" width="15" x="548.1114" y="273.2375"/><rect fill="#008B6C" height="2" style="stroke:#181818;stroke-width:0.5;" width="4" x="546.1114" y="275.2375"/><rect fill="#008B6C" height="2" style="stroke:#181818;stroke-width:0.5;" width="4" x="546.1114" y="279.2375"/><text fill="#000000" font-family="sans-serif" font-size="14" lengthAdjust="spacing" textLength="158.2314" x="384.88" y="301.2326">Federatieve Connectie</text></g><!--entity OWS--><g class="entity" data-entity="OWS" data-source-line="20" data-uid="ent0010" id="entity_OWS"><polygon fill="#008B6C" points="170.72,273.2375,325.2776,273.2375,335.2776,291.3859,325.2776,309.5344,170.72,309.5344,180.72,291.3859" style="stroke:#181818;stroke-width:0.5;"/><text fill="#000000" font-family="sans-serif" font-size="14" lengthAdjust="spacing" textLength="124.5576" x="190.72" y="296.2326">OpenWoo Service</text></g><!--entity DatamaskDB--><g class="entity" data-entity="DatamaskDB" data-source-line="25" data-uid="ent0012" id="entity_DatamaskDB"><path d="M23.48,422.5275 C23.48,412.5275 69.0029,412.5275 69.0029,412.5275 C69.0029,412.5275 114.5259,412.5275 114.5259,422.5275 L114.5259,447.8244 C114.5259,457.8244 69.0029,457.8244 69.0029,457.8244 C69.0029,457.8244 23.48,457.8244 23.48,447.8244 L23.48,422.5275" fill="#F16E06" style="stroke:#181818;stroke-width:0.5;"/><path d="M23.48,422.5275 C23.48,432.5275 69.0029,432.5275 69.0029,432.5275 C69.0029,432.5275 114.5259,432.5275 114.5259,422.5275" fill="none" style="stroke:#181818;stroke-width:0.5;"/><text fill="#000000" font-family="sans-serif" font-size="14" lengthAdjust="spacing" textLength="71.0459" x="33.48" y="449.5226">Datamask</text></g><!--entity OpenWoo.app--><g class="entity" data-entity="OpenWoo.app" data-source-line="29" data-uid="ent0014" id="entity_OpenWoo.app"><rect fill="#008B6C" height="46.2969" rx="2.5" ry="2.5" style="stroke:#181818;stroke-width:0.5;" width="139.1689" x="890.42" y="106.9375"/><rect fill="#008B6C" height="10" style="stroke:#181818;stroke-width:0.5;" width="15" x="1009.5889" y="111.9375"/><rect fill="#008B6C" height="2" style="stroke:#181818;stroke-width:0.5;" width="4" x="1007.5889" y="113.9375"/><rect fill="#008B6C" height="2" style="stroke:#181818;stroke-width:0.5;" width="4" x="1007.5889" y="117.9375"/><text fill="#000000" font-family="sans-serif" font-size="14" lengthAdjust="spacing" textLength="99.1689" x="905.42" y="139.9326">OpenWoo.app</text></g><!--entity Datamask--><g class="entity" data-entity="Datamask" data-source-line="30" data-uid="ent0015" id="entity_Datamask"><rect fill="#F16E06" height="46.2969" rx="2.5" ry="2.5" style="stroke:#181818;stroke-width:0.5;" width="111.0459" x="1064.48" y="106.9375"/><rect fill="#F16E06" height="10" style="stroke:#181818;stroke-width:0.5;" width="15" x="1155.5259" y="111.9375"/><rect fill="#F16E06" height="2" style="stroke:#181818;stroke-width:0.5;" width="4" x="1153.5259" y="113.9375"/><rect fill="#F16E06" height="2" style="stroke:#181818;stroke-width:0.5;" width="4" x="1153.5259" y="117.9375"/><text fill="#000000" font-family="sans-serif" font-size="14" lengthAdjust="spacing" textLength="71.0459" x="1079.48" y="139.9326">Datamask</text></g><!--reverse link OWS to DatamaskDB--><g class="link" data-entity-1="OWS" data-entity-2="DatamaskDB" data-source-line="36" data-uid="lnk16" id="link_OWS_DatamaskDB"><path d="M219.1474,313.016 C203.6374,322.746 189.43,332.1775 173,344.5275 C144.23,366.1575 113.21,393.4575 92.61,412.2175" fill="none" id="OWS-backto-DatamaskDB" style="stroke:#181818;stroke-width:1;"/><polygon fill="#181818" points="224.23,309.8275,214.4803,311.2219,219.9945,312.4846,218.7317,317.9987,224.23,309.8275" style="stroke:#181818;stroke-width:1;"/><text fill="#000000" font-family="sans-serif" font-size="13" lengthAdjust="spacing" textLength="100.4707" x="174" y="357.5944">Woo verzoeken</text></g><!--link OWS to OI--><g class="link" data-entity-1="OWS" data-entity-2="OI" data-source-line="37" data-uid="lnk17" id="link_OWS_OI"><path d="M284.15,309.9075 C329.98,335.6975 410.3114,380.8944 460.4114,409.0944" fill="none" id="OWS-to-OI" style="stroke:#181818;stroke-width:1;stroke-dasharray:7.0,7.0;"/><polygon fill="#181818" points="465.64,412.0375,459.7591,404.1372,461.2828,409.585,455.835,411.1087,465.64,412.0375" style="stroke:#181818;stroke-width:1;"/><text fill="#000000" font-family="sans-serif" font-size="13" lengthAdjust="spacing" textLength="69.2148" x="373" y="357.5944">Slaat op in</text></g><!--link FCS to OI--><g class="link" data-entity-1="FCS" data-entity-2="OI" data-source-line="39" data-uid="lnk18" id="link_FCS_OI"><path d="M474.7,314.8475 C481.48,341.5575 491.2426,380.0122 497.9626,406.4622" fill="none" id="FCS-to-OI" style="stroke:#181818;stroke-width:1;"/><polygon fill="#181818" points="499.44,412.2775,501.1007,402.5697,498.2088,407.4315,493.347,404.5396,499.44,412.2775" style="stroke:#181818;stroke-width:1;"/><text fill="#000000" font-family="sans-serif" font-size="13" lengthAdjust="spacing" textLength="62.3911" x="487" y="357.5944">Bevraagd</text></g><!--link KOOP to FCS--><g class="link" data-entity-1="KOOP" data-entity-2="FCS" data-source-line="41" data-uid="lnk19" id="link_KOOP_FCS"><path d="M416.79,135.2975 C371.14,145.6575 266.75,174.7275 303,217.2375 C310.3,225.7975 342.37,221.5275 353,225.2375 C382.88,235.6475 408.9497,250.328 431.4297,264.748" fill="none" id="KOOP-to-FCS" style="stroke:#181818;stroke-width:1;"/><polygon fill="#181818" points="436.48,267.9875,431.0643,259.7613,432.2714,265.2879,426.7449,266.495,436.48,267.9875" style="stroke:#181818;stroke-width:1;"/><text fill="#000000" font-family="sans-serif" font-size="13" lengthAdjust="spacing" textLength="165.2231" x="304" y="213.3044">Indexeerd (XML Sitemap)</text></g><!--link WOOGLE to FCS--><g class="link" data-entity-1="WOOGLE" data-entity-2="FCS" data-source-line="42" data-uid="lnk20" id="link_WOOGLE_FCS"><path d="M511.1,168.4375 C500.44,199.3275 487.5999,236.5266 478.6799,262.3366" fill="none" id="WOOGLE-to-FCS" style="stroke:#181818;stroke-width:1;"/><polygon fill="#181818" points="476.72,268.0075,483.4404,260.8078,478.3532,263.2818,475.8792,258.1946,476.72,268.0075" style="stroke:#181818;stroke-width:1;"/><text fill="#000000" font-family="sans-serif" font-size="13" lengthAdjust="spacing" textLength="100.4517" x="501" y="213.3044">Indexeerd (API)</text></g><!--link Website to OI--><g class="link" data-entity-1="Website" data-entity-2="OI" data-source-line="43" data-uid="lnk21" id="link_Website_OI"><path d="M625.62,138.7175 C622.87,153.7775 616.41,188.3575 610,217.2375 C600.35,260.7175 602.92,273.3275 586,314.5275 C576.77,337.0275 571.4,341.2475 558,361.5275 C546.47,378.9875 536.0997,393.2848 525.3897,407.5048" fill="none" id="Website-to-OI" style="stroke:#181818;stroke-width:1;"/><polygon fill="#181818" points="521.78,412.2975,530.3897,407.5149,524.7881,408.3036,523.9994,402.702,521.78,412.2975" style="stroke:#181818;stroke-width:1;"/><text fill="#000000" font-family="sans-serif" font-size="13" lengthAdjust="spacing" textLength="97.2334" x="610" y="295.9444">Bevraagd (API)</text></g><!--link PublicatiePagina to OI--><g class="link" data-entity-1="PublicatiePagina" data-entity-2="OI" data-source-line="44" data-uid="lnk22" id="link_PublicatiePagina_OI"><path d="M765.92,138.9975 C765.27,166.3375 759.75,258.2275 716,314.5275 C675.05,367.2375 609.5519,398.4783 561.3219,416.1983" fill="none" id="PublicatiePagina-to-OI" style="stroke:#181818;stroke-width:1;"/><polygon fill="#181818" points="555.69,418.2675,565.5173,418.9183,560.3833,416.5432,562.7584,411.4091,555.69,418.2675" style="stroke:#181818;stroke-width:1;"/><text fill="#000000" font-family="sans-serif" font-size="13" lengthAdjust="spacing" textLength="97.2334" x="755" y="295.9444">Bevraagd (API)</text></g><text fill="#888888" font-family="sans-serif" font-size="10" lengthAdjust="spacing" textLength="70.835" x="556.5825" y="488.1097">OpenWoo.app</text><!--SRC=[VL9DJyCm3BtdLrZXm3Xq6Y0cL26aVQA9eKwgqBXwhLUgRKcLXWs1-Eyu_M0TO-IKnC_FVi-sgLqJXBWXjIEpIbK2GKPghdKRimn8mH0jRZ1VYQNMbepVZ8jNmlZtdn3dC7jRhDC8RKgGhT4kjU42q9eY9d03pvCBiJHS4-JVG0cV0lXWPBK1-HW4Cycl7DmDpZgTsqLtq400o7aGF4n7qe7Awm4iLTpw4YEkEAT5dbgIq0kXkf-2Dfl395LOqEz_PyKdd8qlkwDELto9Glk42H9JP9M2ht_KxaErmfZTNM3ECMSXvyRqNaeD9WTjHNgJQKNAWXmJU-v8jWG3hHH51Q5B6W_2WwpCw8Zol6Jd0K58Pfj65JgOxz5VhlM-SNJreAv- -kxD9iSDrujHc58_Xlsc7LNwb19ICTOK3IcDlP6dvExhrCnycDnrV-TvZT8-E8bRCX-QLgGAHBjzprRw4AuHBUYCvok4iydpN01ywDFMiDnOY6Axl5Zl5CSSnYy7GcHYQBqyJI7aRTbWTY6g7Ji9PiSOLArNZJeeLs6EjkaVy3S0]--></g></svg>