<svg xmlns="http://www.w3.org/2000/svg" xmlns:xlink="http://www.w3.org/1999/xlink" contentStyleType="text/css" data-diagram-type="DESCRIPTION" height="968px" preserveAspectRatio="none" style="width:673px;height:968px;background:#FFFFFF;" version="1.1" viewBox="0 0 673 968" width="673px" zoomAndPan="magnify"><title>Federatie</title><defs/><g><text fill="#000000" font-family="sans-serif" font-size="14" font-weight="bold" lengthAdjust="spacing" textLength="75.9131" x="291.7046" y="22.9951">Federatie</text><!--cluster Landelijke voorziening 1--><g class="cluster" data-entity="Landelijke voorziening 1" data-source-line="4" data-uid="ent0002" id="cluster_Landelijke voorziening 1"><rect fill="none" height="376.59" rx="2.5" ry="2.5" style="stroke:#181818;stroke-width:1;" width="209" x="197" y="44.2969"/><path d="M400.0059,44.2969 L400.0059,53.5938 L390.0059,63.5938 L197,63.5938" fill="none" style="stroke:#181818;stroke-width:1;"/><text fill="#000000" font-family="sans-serif" font-size="14" font-weight="bold" lengthAdjust="spacing" textLength="193.0059" x="200" y="58.292">Landelijke voorziening 1</text></g><!--cluster Organisatie 1--><g class="cluster" data-entity="Organisatie 1" data-source-line="10" data-uid="ent0006" id="cluster_Organisatie 1"><rect fill="none" height="366.89" rx="2.5" ry="2.5" style="stroke:#181818;stroke-width:1;" width="205" x="7" y="469.8869"/><path d="M123.4219,469.8869 L123.4219,479.1838 L113.4219,489.1838 L7,489.1838" fill="none" style="stroke:#181818;stroke-width:1;"/><text fill="#000000" font-family="sans-serif" font-size="14" font-weight="bold" lengthAdjust="spacing" textLength="106.4219" x="10" y="483.882">Organisatie 1</text></g><!--cluster Organisatie 2--><g class="cluster" data-entity="Organisatie 2" data-source-line="16" data-uid="ent0010" id="cluster_Organisatie 2"><rect fill="none" height="345.89" rx="2.5" ry="2.5" style="stroke:#181818;stroke-width:1;" width="205" x="352" y="616.1869"/><path d="M468.4219,616.1869 L468.4219,625.4838 L458.4219,635.4838 L352,635.4838" fill="none" style="stroke:#181818;stroke-width:1;"/><text fill="#000000" font-family="sans-serif" font-size="14" font-weight="bold" lengthAdjust="spacing" textLength="106.4219" x="355" y="630.182">Organisatie 2</text></g><!--cluster Organisatie 3--><g class="cluster" data-entity="Organisatie 3" data-source-line="22" data-uid="ent0014" id="cluster_Organisatie 3"><rect fill="none" height="243.59" rx="2.5" ry="2.5" style="stroke:#181818;stroke-width:1;" width="205" x="456" y="323.5969"/><path d="M572.4219,323.5969 L572.4219,332.8937 L562.4219,342.8937 L456,342.8937" fill="none" style="stroke:#181818;stroke-width:1;"/><text fill="#000000" font-family="sans-serif" font-size="14" font-weight="bold" lengthAdjust="spacing" textLength="106.4219" x="459" y="337.592">Organisatie 3</text></g><!--entity KOOP--><g class="entity" data-entity="KOOP" data-source-line="5" data-uid="ent0003" id="entity_KOOP"><ellipse cx="301" cy="108.2969" fill="#1ABC9C" rx="8" ry="8" style="stroke:#181818;stroke-width:0.5;"/><text fill="#000000" font-family="sans-serif" font-size="14" lengthAdjust="spacing" textLength="78.2236" x="261.8882" y="138.292">Koophulpje</text></g><!--entity Api--><g class="entity" data-entity="Api" data-source-line="6" data-uid="ent0004" id="entity_Api"><rect fill="#1ABC9C" height="46.2969" rx="2.5" ry="2.5" style="stroke:#181818;stroke-width:0.5;" width="137.7402" x="232.13" y="214.2969"/><rect fill="#1ABC9C" height="10" style="stroke:#181818;stroke-width:0.5;" width="15" x="349.8702" y="219.2969"/><rect fill="#1ABC9C" height="2" style="stroke:#181818;stroke-width:0.5;" width="4" x="347.8702" y="221.2969"/><rect fill="#1ABC9C" height="2" style="stroke:#181818;stroke-width:0.5;" width="4" x="347.8702" y="225.2969"/><text fill="#000000" font-family="sans-serif" font-size="14" lengthAdjust="spacing" textLength="97.7402" x="247.13" y="247.292">Landelijke API</text></g><!--entity NLX--><g class="entity" data-entity="NLX" data-source-line="7" data-uid="ent0005" id="entity_NLX"><rect fill="#CCE5FF" height="46.2969" rx="2.5" ry="2.5" style="stroke:#181818;stroke-width:0.5;" width="126.0098" x="225" y="358.5969"/><rect fill="#CCE5FF" height="10" style="stroke:#181818;stroke-width:0.5;" width="15" x="331.0098" y="363.5969"/><rect fill="#CCE5FF" height="2" style="stroke:#181818;stroke-width:0.5;" width="4" x="329.0098" y="365.5969"/><rect fill="#CCE5FF" height="2" style="stroke:#181818;stroke-width:0.5;" width="4" x="329.0098" y="369.5969"/><text fill="#000000" font-family="sans-serif" font-size="14" lengthAdjust="spacing" textLength="86.0098" x="240" y="391.592">NLX Outway</text></g><!--entity Org1--><g class="entity" data-entity="Org1" data-source-line="11" data-uid="ent0007" id="entity_Org1"><rect fill="#CCE5FF" height="46.2969" rx="2.5" ry="2.5" style="stroke:#181818;stroke-width:0.5;" width="113.6299" x="32.19" y="504.8869"/><rect fill="#CCE5FF" height="10" style="stroke:#181818;stroke-width:0.5;" width="15" x="125.8199" y="509.8869"/><rect fill="#CCE5FF" height="2" style="stroke:#181818;stroke-width:0.5;" width="4" x="123.8199" y="511.8869"/><rect fill="#CCE5FF" height="2" style="stroke:#181818;stroke-width:0.5;" width="4" x="123.8199" y="515.8869"/><text fill="#000000" font-family="sans-serif" font-size="14" lengthAdjust="spacing" textLength="73.6299" x="47.19" y="537.882">NLX Inway</text></g><!--entity OI1--><g class="entity" data-entity="OI1" data-source-line="12" data-uid="ent0008" id="entity_OI1"><rect fill="#1ABC9C" height="46.2969" rx="2.5" ry="2.5" style="stroke:#181818;stroke-width:0.5;" width="120.6299" x="22.69" y="651.1869"/><rect fill="#1ABC9C" height="10" style="stroke:#181818;stroke-width:0.5;" width="15" x="123.3199" y="656.1869"/><rect fill="#1ABC9C" height="2" style="stroke:#181818;stroke-width:0.5;" width="4" x="121.3199" y="658.1869"/><rect fill="#1ABC9C" height="2" style="stroke:#181818;stroke-width:0.5;" width="4" x="121.3199" y="662.1869"/><text fill="#000000" font-family="sans-serif" font-size="14" lengthAdjust="spacing" textLength="80.6299" x="37.69" y="684.182">Open Index</text></g><!--entity BronnenOrg1--><g class="entity" data-entity="BronnenOrg1" data-source-line="13" data-uid="ent0009" id="entity_BronnenOrg1"><rect fill="#CCE5FF" height="46.2969" rx="2.5" ry="2.5" style="stroke:#181818;stroke-width:0.5;" width="99.1582" x="23.42" y="774.4869"/><rect fill="#CCE5FF" height="10" style="stroke:#181818;stroke-width:0.5;" width="15" x="102.5782" y="779.4869"/><rect fill="#CCE5FF" height="2" style="stroke:#181818;stroke-width:0.5;" width="4" x="100.5782" y="781.4869"/><rect fill="#CCE5FF" height="2" style="stroke:#181818;stroke-width:0.5;" width="4" x="100.5782" y="785.4869"/><text fill="#000000" font-family="sans-serif" font-size="14" lengthAdjust="spacing" textLength="59.1582" x="38.42" y="807.482">Bronnen</text></g><!--entity Org2--><g class="entity" data-entity="Org2" data-source-line="17" data-uid="ent0011" id="entity_Org2"><rect fill="#CCE5FF" height="46.2969" rx="2.5" ry="2.5" style="stroke:#181818;stroke-width:0.5;" width="113.6299" x="368.19" y="651.1869"/><rect fill="#CCE5FF" height="10" style="stroke:#181818;stroke-width:0.5;" width="15" x="461.8199" y="656.1869"/><rect fill="#CCE5FF" height="2" style="stroke:#181818;stroke-width:0.5;" width="4" x="459.8199" y="658.1869"/><rect fill="#CCE5FF" height="2" style="stroke:#181818;stroke-width:0.5;" width="4" x="459.8199" y="662.1869"/><text fill="#000000" font-family="sans-serif" font-size="14" lengthAdjust="spacing" textLength="73.6299" x="383.19" y="684.182">NLX Inway</text></g><!--entity OI2--><g class="entity" data-entity="OI2" data-source-line="18" data-uid="ent0012" id="entity_OI2"><rect fill="#1ABC9C" height="46.2969" rx="2.5" ry="2.5" style="stroke:#181818;stroke-width:0.5;" width="120.6299" x="367.69" y="774.4869"/><rect fill="#1ABC9C" height="10" style="stroke:#181818;stroke-width:0.5;" width="15" x="468.3199" y="779.4869"/><rect fill="#1ABC9C" height="2" style="stroke:#181818;stroke-width:0.5;" width="4" x="466.3199" y="781.4869"/><rect fill="#1ABC9C" height="2" style="stroke:#181818;stroke-width:0.5;" width="4" x="466.3199" y="785.4869"/><text fill="#000000" font-family="sans-serif" font-size="14" lengthAdjust="spacing" textLength="80.6299" x="382.69" y="807.482">Open Index</text></g><!--entity BronnenOrg2--><g class="entity" data-entity="BronnenOrg2" data-source-line="19" data-uid="ent0013" id="entity_BronnenOrg2"><rect fill="#CCE5FF" height="46.2969" rx="2.5" ry="2.5" style="stroke:#181818;stroke-width:0.5;" width="99.1582" x="368.42" y="899.7769"/><rect fill="#CCE5FF" height="10" style="stroke:#181818;stroke-width:0.5;" width="15" x="447.5782" y="904.7769"/><rect fill="#CCE5FF" height="2" style="stroke:#181818;stroke-width:0.5;" width="4" x="445.5782" y="906.7769"/><rect fill="#CCE5FF" height="2" style="stroke:#181818;stroke-width:0.5;" width="4" x="445.5782" y="910.7769"/><text fill="#000000" font-family="sans-serif" font-size="14" lengthAdjust="spacing" textLength="59.1582" x="383.42" y="932.772">Bronnen</text></g><!--entity OI3--><g class="entity" data-entity="OI3" data-source-line="23" data-uid="ent0015" id="entity_OI3"><rect fill="#1ABC9C" height="46.2969" rx="2.5" ry="2.5" style="stroke:#181818;stroke-width:0.5;" width="120.6299" x="471.69" y="358.5969"/><rect fill="#1ABC9C" height="10" style="stroke:#181818;stroke-width:0.5;" width="15" x="572.3199" y="363.5969"/><rect fill="#1ABC9C" height="2" style="stroke:#181818;stroke-width:0.5;" width="4" x="570.3199" y="365.5969"/><rect fill="#1ABC9C" height="2" style="stroke:#181818;stroke-width:0.5;" width="4" x="570.3199" y="369.5969"/><text fill="#000000" font-family="sans-serif" font-size="14" lengthAdjust="spacing" textLength="80.6299" x="486.69" y="391.592">Open Index</text></g><!--entity BronnenOrg3--><g class="entity" data-entity="BronnenOrg3" data-source-line="24" data-uid="ent0016" id="entity_BronnenOrg3"><rect fill="#CCE5FF" height="46.2969" rx="2.5" ry="2.5" style="stroke:#181818;stroke-width:0.5;" width="99.1582" x="474.42" y="504.8869"/><rect fill="#CCE5FF" height="10" style="stroke:#181818;stroke-width:0.5;" width="15" x="553.5782" y="509.8869"/><rect fill="#CCE5FF" height="2" style="stroke:#181818;stroke-width:0.5;" width="4" x="551.5782" y="511.8869"/><rect fill="#CCE5FF" height="2" style="stroke:#181818;stroke-width:0.5;" width="4" x="551.5782" y="515.8869"/><text fill="#000000" font-family="sans-serif" font-size="14" lengthAdjust="spacing" textLength="59.1582" x="489.42" y="537.882">Bronnen</text></g><!--link KOOP to Api--><g class="link" data-entity-1="KOOP" data-entity-2="Api" data-source-line="28" data-uid="lnk17" id="link_KOOP_Api"><path d="M301,117.2469 C301,136.2769 301,178.9869 301,207.9069" fill="none" id="KOOP-to-Api" style="stroke:#181818;stroke-width:1;"/><polygon fill="#181818" points="301,213.9069,305,204.9069,301,208.9069,297,204.9069,301,213.9069" style="stroke:#181818;stroke-width:1;"/><text fill="#000000" font-family="sans-serif" font-size="13" lengthAdjust="spacing" textLength="54.6343" x="302" y="180.3638">Ajax call</text></g><!--link Api to NLX--><g class="link" data-entity-1="Api" data-entity-2="NLX" data-source-line="29" data-uid="lnk18" id="link_Api_NLX"><path d="M298.94,260.9869 C296.51,287.6369 293.0258,325.7218 290.5958,352.3218" fill="none" id="Api-to-NLX" style="stroke:#181818;stroke-width:1;"/><polygon fill="#181818" points="290.05,358.2969,294.8522,349.6981,290.5049,353.3176,286.8854,348.9703,290.05,358.2969" style="stroke:#181818;stroke-width:1;"/><text fill="#000000" font-family="sans-serif" font-size="13" lengthAdjust="spacing" textLength="115.8193" x="297" y="303.6638">Bevragen via NLX</text></g><!--link Api to OI3--><g class="link" data-entity-1="Api" data-entity-2="OI3" data-source-line="31" data-uid="lnk19" id="link_Api_OI3"><path d="M361.81,261.0769 C381.28,269.3169 402.56,279.3869 421,290.5969 C453.46,310.3169 482.3333,334.6276 503.8833,354.2476" fill="none" id="Api-to-OI3" style="stroke:#181818;stroke-width:1;"/><polygon fill="#181818" points="508.32,358.2869,504.3579,349.2701,504.6228,354.9208,498.9721,355.1857,508.32,358.2869" style="stroke:#181818;stroke-width:1;"/><text fill="#000000" font-family="sans-serif" font-size="13" lengthAdjust="spacing" textLength="149.0938" x="444" y="303.6638">Federatieve zoekvraag</text></g><!--link NLX to Org1--><g class="link" data-entity-1="NLX" data-entity-2="Org1" data-source-line="32" data-uid="lnk20" id="link_NLX_Org1"><path d="M224.57,386.7669 C186.62,392.5069 140.23,405.9269 111,436.8869 C93.86,455.0469 89.6589,478.272 88.8189,498.502" fill="none" id="NLX-to-Org1" style="stroke:#181818;stroke-width:1;"/><polygon fill="#181818" points="88.57,504.4969,92.9399,495.6706,88.7774,499.5012,84.9468,495.3387,88.57,504.4969" style="stroke:#181818;stroke-width:1;"/><text fill="#000000" font-family="sans-serif" font-size="13" lengthAdjust="spacing" textLength="149.0938" x="112" y="449.9538">Federatieve zoekvraag</text></g><!--link NLX to Org2--><g class="link" data-entity-1="NLX" data-entity-2="Org2" data-source-line="33" data-uid="lnk21" id="link_NLX_Org2"><path d="M284.61,405.3669 C280.09,443.0269 275.74,519.8969 305,575.1869 C322.31,607.8969 350.5504,630.6094 377.7004,647.5594" fill="none" id="NLX-to-Org2" style="stroke:#181818;stroke-width:1;"/><polygon fill="#181818" points="382.79,650.7369,377.274,642.5776,378.5487,648.089,373.0373,649.3637,382.79,650.7369" style="stroke:#181818;stroke-width:1;"/><text fill="#000000" font-family="sans-serif" font-size="13" lengthAdjust="spacing" textLength="149.0938" x="306" y="532.6038">Federatieve zoekvraag</text></g><!--link Org1 to OI1--><g class="link" data-entity-1="Org1" data-entity-2="OI1" data-source-line="34" data-uid="lnk22" id="link_Org1_OI1"><path d="M88.06,551.5869 C86.94,578.6969 85.3105,617.9121 84.1805,644.9521" fill="none" id="Org1-to-OI1" style="stroke:#181818;stroke-width:1;"/><polygon fill="#181818" points="83.93,650.9469,88.3023,642.1217,84.1388,645.9512,80.3093,641.7877,83.93,650.9469" style="stroke:#181818;stroke-width:1;"/><text fill="#000000" font-family="sans-serif" font-size="13" lengthAdjust="spacing" textLength="136.3223" x="88" y="596.2538">Bevragen bij de bron</text></g><!--link Org2 to OI2--><g class="link" data-entity-1="Org2" data-entity-2="OI2" data-source-line="35" data-uid="lnk23" id="link_Org2_OI2"><path d="M425.56,697.8669 C426.1,719.6569 426.761,746.4787 427.301,768.2187" fill="none" id="Org2-to-OI2" style="stroke:#181818;stroke-width:1;"/><polygon fill="#181818" points="427.45,774.2169,431.2253,765.1203,427.3258,769.2184,423.2278,765.319,427.45,774.2169" style="stroke:#181818;stroke-width:1;"/><text fill="#000000" font-family="sans-serif" font-size="13" lengthAdjust="spacing" textLength="136.3223" x="427" y="740.5538">Bevragen bij de bron</text></g><!--link OI1 to BronnenOrg1--><g class="link" data-entity-1="OI1" data-entity-2="BronnenOrg1" data-source-line="36" data-uid="lnk24" id="link_OI1_BronnenOrg1"><path d="M70.67,697.7469 C66.4,706.7169 62.14,717.3169 60,727.4869 C56.73,743.0169 58.3768,754.8687 62.5168,768.4187" fill="none" id="OI1-to-BronnenOrg1" style="stroke:#181818;stroke-width:1;"/><polygon fill="#181818" points="64.27,774.1569,65.4656,764.3809,62.809,769.3751,57.8148,766.7185,64.27,774.1569" style="stroke:#181818;stroke-width:1;"/><text fill="#000000" font-family="sans-serif" font-size="13" lengthAdjust="spacing" textLength="126.0898" x="61" y="740.5538">Internal connection</text></g><!--link OI1 to OI2--><g class="link" data-entity-1="OI1" data-entity-2="OI2" data-source-line="37" data-uid="lnk25" id="link_OI1_OI2"><path d="M143.49,696.5969 C206.39,718.7169 298.6496,751.157 361.6296,773.297" fill="none" id="OI1-to-OI2" style="stroke:#181818;stroke-width:1;"/><polygon fill="#181818" points="367.29,775.2869,360.1259,768.5285,362.573,773.6287,357.4728,776.0757,367.29,775.2869" style="stroke:#181818;stroke-width:1;"/><text fill="#000000" font-family="sans-serif" font-size="13" lengthAdjust="spacing" textLength="130.8188" x="277" y="740.5538">Zoeken bij de buren</text></g><!--link OI2 to BronnenOrg2--><g class="link" data-entity-1="OI2" data-entity-2="BronnenOrg2" data-source-line="38" data-uid="lnk26" id="link_OI2_BronnenOrg2"><path d="M426.17,821.2469 C424.36,843.4969 422.1049,871.2765 420.3049,893.4765" fill="none" id="OI2-to-BronnenOrg2" style="stroke:#181818;stroke-width:1;"/><polygon fill="#181818" points="419.82,899.4569,424.5343,890.8096,420.2241,894.4732,416.5604,890.1631,419.82,899.4569" style="stroke:#181818;stroke-width:1;"/><text fill="#000000" font-family="sans-serif" font-size="13" lengthAdjust="spacing" textLength="136.3223" x="424" y="865.8438">Bevragen bij de bron</text></g><!--link OI3 to BronnenOrg3--><g class="link" data-entity-1="OI3" data-entity-2="BronnenOrg3" data-source-line="39" data-uid="lnk27" id="link_OI3_BronnenOrg3"><path d="M530.75,405.2869 C529.25,432.3969 527.0725,471.6261 525.5725,498.6561" fill="none" id="OI3-to-BronnenOrg3" style="stroke:#181818;stroke-width:1;"/><polygon fill="#181818" points="525.24,504.6469,529.7325,495.8823,525.517,499.6546,521.7448,495.4391,525.24,504.6469" style="stroke:#181818;stroke-width:1;"/><text fill="#000000" font-family="sans-serif" font-size="13" lengthAdjust="spacing" textLength="136.3223" x="529" y="449.9538">Bevragen bij de bron</text></g><!--SRC=[bPD1Ru8m5CVl_HGlUjZ90oKxZCCIFImXcc5sMdQhvO55R4b1T2xxxclh57IG8QUs_Ff_lpmUbQXoX1UCKRDA824aqMoBC5em6MCkiWr2hPG-2fH2fk2Du8k0UOIiK2UC6tIkLB7UvKM68s0bpADe2MEFhVWJToXNsq99bDLLwdGPEdnQY3xwTV4EqQxQiqz7sksOStnC4l9z4OrqogGehNrZTnCIodE6eRrBo0qP5IWD6kFXX8PUdzXCAsbM3ljTNmLtsz4XTdIm7RtFZlvZvtVO_QdftrVJRzTyW3VCJIaboxKeIkBcP1AhlPmykoa8O9gn0t2MvyJkp-ziZmAOOQrPQdngmUmHkMAiMj3CSOrmLBWnDrXAxFqBPp_JG93sWYwbAUsrzLOYWnXXPPf0N4Z3KUW5moQlFL21wRxvpoJBJRFDARVjEz6dn00-Z5KhRQVH0hGZZlPNzw63ztlu7m00]--></g></svg>