<svg xmlns="http://www.w3.org/2000/svg" xmlns:xlink="http://www.w3.org/1999/xlink" contentStyleType="text/css" data-diagram-type="DESCRIPTION" height="351px" preserveAspectRatio="none" style="width:698px;height:351px;background:#FFFFFF;" version="1.1" viewBox="0 0 698 351" width="698px" zoomAndPan="magnify"><title>Motorblok</title><defs/><g><text fill="#888888" font-family="sans-serif" font-size="10" lengthAdjust="spacing" textLength="70.835" x="613.2129" y="9.2822">OpenWoo.app</text><text fill="#000000" font-family="sans-serif" font-size="14" font-weight="bold" lengthAdjust="spacing" textLength="80.5137" x="301.7671" y="35.6357">Motorblok</text><!--cluster Publicatie platformen --><g class="cluster" data-entity="Publicatie platformen " data-source-line="6" data-uid="ent0002" id="cluster_Publicatie platformen "><rect fill="none" height="109" rx="2.5" ry="2.5" style="stroke:#181818;stroke-width:1;" width="191" x="7" y="56.9375"/><path d="M192.9502,56.9375 L192.9502,66.2344 L182.9502,76.2344 L7,76.2344" fill="none" style="stroke:#181818;stroke-width:1;"/><text fill="#000000" font-family="sans-serif" font-size="14" font-weight="bold" lengthAdjust="spacing" textLength="171.0762" x="10" y="70.9326">Publicatie platformen</text></g><!--cluster Services--><g class="cluster" data-entity="Services" data-source-line="11" data-uid="ent0004" id="cluster_Services"><rect fill="none" height="87.3" rx="2.5" ry="2.5" style="stroke:#181818;stroke-width:1;" width="196" x="259" y="67.7875"/><path d="M335.5342,67.7875 L335.5342,77.0844 L325.5342,87.0844 L259,87.0844" fill="none" style="stroke:#181818;stroke-width:1;"/><text fill="#000000" font-family="sans-serif" font-size="14" font-weight="bold" lengthAdjust="spacing" textLength="66.5342" x="262" y="81.7826">Services</text></g><!--cluster Integratie--><g class="cluster" data-entity="Integratie" data-source-line="16" data-uid="ent0006" id="cluster_Integratie"><rect fill="none" height="96.3" rx="2.5" ry="2.5" style="stroke:#181818;stroke-width:1;" width="132" x="104" y="230.4375"/><path d="M192.7227,230.4375 L192.7227,239.7344 L182.7227,249.7344 L104,249.7344" fill="none" style="stroke:#181818;stroke-width:1;"/><text fill="#000000" font-family="sans-serif" font-size="14" font-weight="bold" lengthAdjust="spacing" textLength="78.7227" x="107" y="244.4326">Integratie</text></g><!--cluster API--><g class="cluster" data-entity="API" data-source-line="21" data-uid="ent0008" id="cluster_API"><rect fill="none" height="97.3" rx="2.5" ry="2.5" style="stroke:#181818;stroke-width:1;" width="132" x="307" y="229.9375"/><path d="M343.3047,229.9375 L343.3047,239.2344 L333.3047,249.2344 L307,249.2344" fill="none" style="stroke:#181818;stroke-width:1;"/><text fill="#000000" font-family="sans-serif" font-size="14" font-weight="bold" lengthAdjust="spacing" textLength="26.3047" x="310" y="243.9326">API</text></g><!--entity Searchsite--><g class="entity" data-entity="Searchsite" data-source-line="7" data-uid="ent0003" id="entity_Searchsite"><ellipse cx="107" cy="120.9375" fill="#1ABC9C" rx="8" ry="8" style="stroke:#181818;stroke-width:0.5;"/><text fill="#000000" font-family="sans-serif" font-size="14" lengthAdjust="spacing" textLength="59.999" x="77.0005" y="150.9326">Afnemer</text></g><!--entity OWS--><g class="entity" data-entity="OWS" data-source-line="12" data-uid="ent0005" id="entity_OWS"><polygon fill="#1ABC9C" points="274.72,102.7875,429.2776,102.7875,439.2776,120.9359,429.2776,139.0844,274.72,139.0844,284.72,120.9359" style="stroke:#181818;stroke-width:0.5;"/><text fill="#000000" font-family="sans-serif" font-size="14" lengthAdjust="spacing" textLength="124.5576" x="294.72" y="125.7826">OpenWoo Service</text></g><!--entity OI--><g class="entity" data-entity="OI" data-source-line="17" data-uid="ent0007" id="entity_OI"><path d="M119.69,275.4375 C119.69,265.4375 170.0049,265.4375 170.0049,265.4375 C170.0049,265.4375 220.3199,265.4375 220.3199,275.4375 L220.3199,300.7344 C220.3199,310.7344 170.0049,310.7344 170.0049,310.7344 C170.0049,310.7344 119.69,310.7344 119.69,300.7344 L119.69,275.4375" fill="#1ABC9C" style="stroke:#181818;stroke-width:0.5;"/><path d="M119.69,275.4375 C119.69,285.4375 170.0049,285.4375 170.0049,285.4375 C170.0049,285.4375 220.3199,285.4375 220.3199,275.4375" fill="none" style="stroke:#181818;stroke-width:0.5;"/><text fill="#000000" font-family="sans-serif" font-size="14" lengthAdjust="spacing" textLength="80.6299" x="129.69" y="302.4326">Open Index</text></g><!--entity Bronnen--><g class="entity" data-entity="Bronnen" data-source-line="22" data-uid="ent0009" id="entity_Bronnen"><rect fill="#CCE5FF" height="46.2969" rx="2.5" ry="2.5" style="stroke:#181818;stroke-width:0.5;" width="99.1582" x="323.42" y="264.9375"/><rect fill="#CCE5FF" height="10" style="stroke:#181818;stroke-width:0.5;" width="15" x="402.5782" y="269.9375"/><rect fill="#CCE5FF" height="2" style="stroke:#181818;stroke-width:0.5;" width="4" x="400.5782" y="271.9375"/><rect fill="#CCE5FF" height="2" style="stroke:#181818;stroke-width:0.5;" width="4" x="400.5782" y="275.9375"/><text fill="#000000" font-family="sans-serif" font-size="14" lengthAdjust="spacing" textLength="59.1582" x="338.42" y="297.9326">Bronnen</text></g><!--link Searchsite to OI--><g class="link" data-entity-1="Searchsite" data-entity-2="OI" data-source-line="26" data-uid="lnk10" id="link_Searchsite_OI"><path d="M104.73,129.9175 C100.49,146.3075 92.76,184.7075 104,213.9375 C111.73,234.0575 123.4106,248.0403 137.7806,261.1703" fill="none" id="Searchsite-to-OI" style="stroke:#181818;stroke-width:1;"/><polygon fill="#181818" points="142.21,265.2175,138.264,256.1937,138.5188,261.8448,132.8677,262.0996,142.21,265.2175" style="stroke:#181818;stroke-width:1;"/><text fill="#000000" font-family="sans-serif" font-size="13" lengthAdjust="spacing" textLength="97.2334" x="105" y="202.5044">Bevraagd (API)</text></g><!--link OWS to OI--><g class="link" data-entity-1="OWS" data-entity-2="OI" data-source-line="27" data-uid="lnk11" id="link_OWS_OI"><path d="M330.37,139.5275 C313.66,150.9575 291.96,166.5575 274,181.9375 C242.8,208.6675 214.0383,238.6382 193.7983,260.6782" fill="none" id="OWS-to-OI" style="stroke:#181818;stroke-width:1;stroke-dasharray:7.0,7.0;"/><polygon fill="#181818" points="189.74,265.0975,198.7737,261.1742,193.122,261.4148,192.8813,255.763,189.74,265.0975" style="stroke:#181818;stroke-width:1;"/><text fill="#000000" font-family="sans-serif" font-size="13" lengthAdjust="spacing" textLength="69.2148" x="275" y="202.5044">Slaat op in</text></g><!--link OWS to Bronnen--><g class="link" data-entity-1="OWS" data-entity-2="Bronnen" data-source-line="29" data-uid="lnk12" id="link_OWS_Bronnen"><path d="M355.89,139.5175 C355.19,151.4775 354.36,167.6575 354,181.9375 C353.64,196.1575 352.2,199.8375 354,213.9375 C356.21,231.2475 359.5108,244.5751 363.8508,258.9051" fill="none" id="OWS-to-Bronnen" style="stroke:#181818;stroke-width:1;"/><polygon fill="#181818" points="365.59,264.6475,366.8095,254.8744,364.1407,259.8622,359.153,257.1933,365.59,264.6475" style="stroke:#181818;stroke-width:1;"/><text fill="#000000" font-family="sans-serif" font-size="13" lengthAdjust="spacing" textLength="130.9204" x="355" y="195.0044">Scrapes periodically</text><text fill="#000000" font-family="sans-serif" font-size="13" lengthAdjust="spacing" textLength="97.519" x="371.7007" y="210.1372">Uses as source</text></g><!--reverse link OWS to Bronnen--><g class="link" data-entity-1="OWS" data-entity-2="Bronnen" data-source-line="32" data-uid="lnk14" id="link_OWS_Bronnen"><path d="M439.403,141.86 C461.273,150.81 477.08,161.9375 490,181.9375 C513.19,217.8475 464.3,249.1475 422.79,268.0575" fill="none" id="OWS-backto-Bronnen" style="stroke:#181818;stroke-width:1;"/><polygon fill="#181818" points="433.85,139.5875,440.6645,146.6982,438.4775,141.4812,443.6945,139.2942,433.85,139.5875" style="stroke:#181818;stroke-width:1;"/><text fill="#000000" font-family="sans-serif" font-size="13" lengthAdjust="spacing" textLength="194.0479" x="496" y="202.5044">Notifies of changes or deletes</text></g><text fill="#888888" font-family="sans-serif" font-size="10" lengthAdjust="spacing" textLength="70.835" x="306.6064" y="341.5197">OpenWoo.app</text><!--SRC=[RP5FJm8n4CNl_HIJvI0U8F4F1pcOm8r4XRWXNBpCTgTiuz9fse8QutTt5YYASK_TcJU_zpfDDhK4ZvmuL2s_AiESA8nXxicjc8VelMe8wxyrTG6BRTLQZSaI-1QJuR0X1_q7n3MCO3cxL2RWXg3uNrZ0fmBvh1D3Wrg44-DeGw40Z50I1jr4cmXwLrZfEws-EjUImivgYWUVsvD9hcUi3on_4OfZwZnOG4UVhyfpx4nIhCC-uu5ySoB_j3AxneGLHZh0PRQczoDtTewT1dRkj9Nh4tEoc6MOverdqIGeZkhz_VCazBIcaJ47tZF90Ysxs5WVrQyT3Mf-SuFxBi0OfhGBubT3NtmkLNVPuR3hZQ5i4HEmbxMhVICFPZ-Hw82U8dWAbcjvkBRzU77BA2N95NaRD7LPdZXPitzNoQFo_63hknX27XyLCiS6T8DktHq3rDHIelWD]--></g></svg>