<svg xmlns="http://www.w3.org/2000/svg" xmlns:xlink="http://www.w3.org/1999/xlink" contentStyleType="text/css" data-diagram-type="DESCRIPTION" height="625px" preserveAspectRatio="none" style="width:1467px;height:625px;background:#FFFFFF;" version="1.1" viewBox="0 0 1467 625" width="1467px" zoomAndPan="magnify"><title>Algemene Architectuur en keuze mogenlijkheden</title><defs/><g><text fill="#888888" font-family="sans-serif" font-size="10" lengthAdjust="spacing" textLength="70.835" x="1382.165" y="9.2822">OpenWoo.app</text><text fill="#000000" font-family="sans-serif" font-size="14" font-weight="bold" lengthAdjust="spacing" textLength="389.2314" x="531.8843" y="35.6357">Algemene Architectuur en keuze mogenlijkheden</text><!--cluster Publicatie platformen --><g class="cluster" data-entity="Publicatie platformen " data-source-line="7" data-uid="ent0002" id="cluster_Publicatie platformen "><rect fill="none" height="127.3" rx="2.5" ry="2.5" style="stroke:#181818;stroke-width:1;" width="703" x="758" y="56.9375"/><path d="M943.9502,56.9375 L943.9502,66.2344 L933.9502,76.2344 L758,76.2344" fill="none" style="stroke:#181818;stroke-width:1;"/><text fill="#000000" font-family="sans-serif" font-size="14" font-weight="bold" lengthAdjust="spacing" textLength="171.0762" x="761" y="70.9326">Publicatie platformen</text></g><!--cluster Services--><g class="cluster" data-entity="Services" data-source-line="17" data-uid="ent0009" id="cluster_Services"><rect fill="none" height="87.3" rx="2.5" ry="2.5" style="stroke:#181818;stroke-width:1;" width="220" x="1211" y="238.2375"/><path d="M1287.5342,238.2375 L1287.5342,247.5344 L1277.5342,257.5344 L1211,257.5344" fill="none" style="stroke:#181818;stroke-width:1;"/><text fill="#000000" font-family="sans-serif" font-size="14" font-weight="bold" lengthAdjust="spacing" textLength="66.5342" x="1214" y="252.2326">Services</text></g><!--cluster Integratie--><g class="cluster" data-entity="Integratie" data-source-line="22" data-uid="ent0011" id="cluster_Integratie"><rect fill="none" height="222.59" rx="2.5" ry="2.5" style="stroke:#181818;stroke-width:1;" width="429" x="699" y="233.2375"/><path d="M787.7227,233.2375 L787.7227,242.5344 L777.7227,252.5344 L699,252.5344" fill="none" style="stroke:#181818;stroke-width:1;"/><text fill="#000000" font-family="sans-serif" font-size="14" font-weight="bold" lengthAdjust="spacing" textLength="78.7227" x="702" y="247.2326">Integratie</text></g><!--cluster API--><g class="cluster" data-entity="API" data-source-line="30" data-uid="ent0016" id="cluster_API"><rect fill="none" height="96.3" rx="2.5" ry="2.5" style="stroke:#181818;stroke-width:1;" width="1332" x="7" y="504.8275"/><path d="M43.3047,504.8275 L43.3047,514.1244 L33.3047,524.1244 L7,524.1244" fill="none" style="stroke:#181818;stroke-width:1;"/><text fill="#000000" font-family="sans-serif" font-size="14" font-weight="bold" lengthAdjust="spacing" textLength="26.3047" x="10" y="518.8226">API</text></g><!--cluster Legenda--><g class="cluster" data-entity="Legenda" data-source-line="39" data-uid="ent0023" id="cluster_Legenda"><rect fill="none" height="258.6" rx="2.5" ry="2.5" style="stroke:#181818;stroke-width:1;" width="448" x="49" y="71.9375"/><path d="M126.3682,71.9375 L126.3682,81.2344 L116.3682,91.2344 L49,91.2344" fill="none" style="stroke:#181818;stroke-width:1;"/><text fill="#000000" font-family="sans-serif" font-size="14" font-weight="bold" lengthAdjust="spacing" textLength="67.3682" x="52" y="85.9326">Legenda</text></g><!--entity OiDashboard--><g class="entity" data-entity="OiDashboard" data-source-line="8" data-uid="ent0003" id="entity_OiDashboard"><ellipse cx="1382" cy="130.0875" fill="#E5352C" rx="8" ry="8" style="stroke:#181818;stroke-width:0.5;"/><text fill="#000000" font-family="sans-serif" font-size="14" lengthAdjust="spacing" textLength="111.624" x="1326.188" y="160.0826">Woo Dashboard</text></g><!--entity KOOP--><g class="entity" data-entity="KOOP" data-source-line="9" data-uid="ent0004" id="entity_KOOP"><ellipse cx="794.0011" cy="100.4375" fill="#008B6C" rx="8" ry="8" style="stroke:#181818;stroke-width:0.5;"/><path d="M794.0011,108.4375 L794.0011,135.4375 M781.0011,116.4375 L807.0011,116.4375 M794.0011,135.4375 L781.0011,150.4375 M794.0011,135.4375 L807.0011,150.4375" fill="none" style="stroke:#181818;stroke-width:0.5;"/><text fill="#000000" font-family="sans-serif" font-size="14" lengthAdjust="spacing" textLength="39.6621" x="774.17" y="164.9326">KOOP</text></g><!--entity WOOGLE--><g class="entity" data-entity="WOOGLE" data-source-line="10" data-uid="ent0005" id="entity_WOOGLE"><ellipse cx="880.998" cy="100.4375" fill="#008B6C" rx="8" ry="8" style="stroke:#181818;stroke-width:0.5;"/><path d="M880.998,108.4375 L880.998,135.4375 M867.998,116.4375 L893.998,116.4375 M880.998,135.4375 L867.998,150.4375 M880.998,135.4375 L893.998,150.4375" fill="none" style="stroke:#181818;stroke-width:0.5;"/><text fill="#000000" font-family="sans-serif" font-size="14" lengthAdjust="spacing" textLength="63.376" x="849.31" y="164.9326">WOOGLE</text></g><!--entity Website--><g class="entity" data-entity="Website" data-source-line="11" data-uid="ent0006" id="entity_Website"><ellipse cx="984" cy="130.0875" fill="#F16E06" rx="8" ry="8" style="stroke:#181818;stroke-width:0.5;"/><text fill="#000000" font-family="sans-serif" font-size="14" lengthAdjust="spacing" textLength="56.6289" x="955.6855" y="160.0826">Website</text></g><!--entity Themasite--><g class="entity" data-entity="Themasite" data-source-line="12" data-uid="ent0007" id="entity_Themasite"><ellipse cx="1101" cy="130.0875" fill="#F16E06" rx="8" ry="8" style="stroke:#181818;stroke-width:0.5;"/><text fill="#000000" font-family="sans-serif" font-size="14" lengthAdjust="spacing" textLength="77.9912" x="1062.0044" y="160.0826">Thema site</text></g><!--entity Searchsite--><g class="entity" data-entity="Searchsite" data-source-line="13" data-uid="ent0008" id="entity_Searchsite"><ellipse cx="1233" cy="130.0875" fill="#F16E06" rx="8" ry="8" style="stroke:#181818;stroke-width:0.5;"/><text fill="#000000" font-family="sans-serif" font-size="14" lengthAdjust="spacing" textLength="87.0215" x="1189.4893" y="160.0826">Zoek pagina</text></g><!--entity OiBF--><g class="entity" data-entity="OiBF" data-source-line="18" data-uid="ent0010" id="entity_OiBF"><polygon fill="#E5352C" points="1226.75,273.2375,1405.2471,273.2375,1415.2471,291.3859,1405.2471,309.5344,1226.75,309.5344,1236.75,291.3859" style="stroke:#181818;stroke-width:0.5;"/><text fill="#000000" font-family="sans-serif" font-size="14" lengthAdjust="spacing" textLength="148.4971" x="1246.75" y="296.2326">Backend for frontend</text></g><!--entity OI--><g class="entity" data-entity="OI" data-source-line="23" data-uid="ent0012" id="entity_OI"><path d="M984.69,404.0375 C984.69,394.0375 1035.0049,394.0375 1035.0049,394.0375 C1035.0049,394.0375 1085.3199,394.0375 1085.3199,404.0375 L1085.3199,429.3344 C1085.3199,439.3344 1035.0049,439.3344 1035.0049,439.3344 C1035.0049,439.3344 984.69,439.3344 984.69,429.3344 L984.69,404.0375" fill="#F16E06" style="stroke:#181818;stroke-width:0.5;"/><path d="M984.69,404.0375 C984.69,414.0375 1035.0049,414.0375 1035.0049,414.0375 C1035.0049,414.0375 1085.3199,414.0375 1085.3199,404.0375" fill="none" style="stroke:#181818;stroke-width:0.5;"/><text fill="#000000" font-family="sans-serif" font-size="14" lengthAdjust="spacing" textLength="80.6299" x="994.69" y="431.0326">Open Index</text></g><!--entity FCS--><g class="entity" data-entity="FCS" data-source-line="24" data-uid="ent0013" id="entity_FCS"><rect fill="#008B6C" height="46.2969" rx="2.5" ry="2.5" style="stroke:#181818;stroke-width:0.5;" width="198.2314" x="913.88" y="268.2375"/><rect fill="#008B6C" height="10" style="stroke:#181818;stroke-width:0.5;" width="15" x="1092.1114" y="273.2375"/><rect fill="#008B6C" height="2" style="stroke:#181818;stroke-width:0.5;" width="4" x="1090.1114" y="275.2375"/><rect fill="#008B6C" height="2" style="stroke:#181818;stroke-width:0.5;" width="4" x="1090.1114" y="279.2375"/><text fill="#000000" font-family="sans-serif" font-size="14" lengthAdjust="spacing" textLength="158.2314" x="928.88" y="301.2326">Federatieve Connectie</text></g><!--entity OWS--><g class="entity" data-entity="OWS" data-source-line="25" data-uid="ent0014" id="entity_OWS"><polygon fill="#F16E06" points="714.72,273.2375,869.2776,273.2375,879.2776,291.3859,869.2776,309.5344,714.72,309.5344,724.72,291.3859" style="stroke:#181818;stroke-width:0.5;"/><text fill="#000000" font-family="sans-serif" font-size="14" lengthAdjust="spacing" textLength="124.5576" x="734.72" y="296.2326">OpenWoo Service</text></g><!--entity IP--><g class="entity" data-entity="IP" data-source-line="26" data-uid="ent0015" id="entity_IP"><rect fill="#008B6C" height="46.2969" rx="2.5" ry="2.5" style="stroke:#181818;stroke-width:0.5;" width="172.0566" x="714.97" y="393.5375"/><rect fill="#008B6C" height="10" style="stroke:#181818;stroke-width:0.5;" width="15" x="867.0266" y="398.5375"/><rect fill="#008B6C" height="2" style="stroke:#181818;stroke-width:0.5;" width="4" x="865.0266" y="400.5375"/><rect fill="#008B6C" height="2" style="stroke:#181818;stroke-width:0.5;" width="4" x="865.0266" y="404.5375"/><text fill="#000000" font-family="sans-serif" font-size="14" lengthAdjust="spacing" textLength="132.0566" x="729.97" y="426.5326">Integratie Platform</text></g><!--entity ZRC--><g class="entity" data-entity="ZRC" data-source-line="31" data-uid="ent0017" id="entity_ZRC"><path d="M22.67,549.8275 C22.67,539.8275 111.003,539.8275 111.003,539.8275 C111.003,539.8275 199.336,539.8275 199.336,549.8275 L199.336,575.1244 C199.336,585.1244 111.003,585.1244 111.003,585.1244 C111.003,585.1244 22.67,585.1244 22.67,575.1244 L22.67,549.8275" fill="#008B6C" style="stroke:#181818;stroke-width:0.5;"/><path d="M22.67,549.8275 C22.67,559.8275 111.003,559.8275 111.003,559.8275 C111.003,559.8275 199.336,559.8275 199.336,549.8275" fill="none" style="stroke:#181818;stroke-width:0.5;"/><text fill="#000000" font-family="sans-serif" font-size="14" lengthAdjust="spacing" textLength="156.666" x="32.67" y="576.8226">Zaaksysteem (XXllNC)</text></g><!--entity RIS--><g class="entity" data-entity="RIS" data-source-line="32" data-uid="ent0018" id="entity_RIS"><path d="M234.29,549.8275 C234.29,539.8275 365.997,539.8275 365.997,539.8275 C365.997,539.8275 497.7041,539.8275 497.7041,549.8275 L497.7041,575.1244 C497.7041,585.1244 365.997,585.1244 365.997,585.1244 C365.997,585.1244 234.29,585.1244 234.29,575.1244 L234.29,549.8275" fill="#008B6C" style="stroke:#181818;stroke-width:0.5;"/><path d="M234.29,549.8275 C234.29,559.8275 365.997,559.8275 365.997,559.8275 C365.997,559.8275 497.7041,559.8275 497.7041,549.8275" fill="none" style="stroke:#181818;stroke-width:0.5;"/><text fill="#000000" font-family="sans-serif" font-size="14" lengthAdjust="spacing" textLength="243.4141" x="244.29" y="576.8226">Raadsinformatiesysteem (Notubiz)</text></g><!--entity BIS--><g class="entity" data-entity="BIS" data-source-line="33" data-uid="ent0019" id="entity_BIS"><path d="M532.56,549.8275 C532.56,539.8275 665.9965,539.8275 665.9965,539.8275 C665.9965,539.8275 799.433,539.8275 799.433,549.8275 L799.433,575.1244 C799.433,585.1244 665.9965,585.1244 665.9965,585.1244 C665.9965,585.1244 532.56,585.1244 532.56,575.1244 L532.56,549.8275" fill="#008B6C" style="stroke:#181818;stroke-width:0.5;"/><path d="M532.56,549.8275 C532.56,559.8275 665.9965,559.8275 665.9965,559.8275 C665.9965,559.8275 799.433,559.8275 799.433,549.8275" fill="none" style="stroke:#181818;stroke-width:0.5;"/><text fill="#000000" font-family="sans-serif" font-size="14" lengthAdjust="spacing" textLength="246.873" x="542.56" y="576.8226">Bestuursinformatiesysteem (iBabs)</text></g><!--entity CMS--><g class="entity" data-entity="CMS" data-source-line="34" data-uid="ent0020" id="entity_CMS"><path d="M834.4,549.8275 C834.4,539.8275 901.9996,539.8275 901.9996,539.8275 C901.9996,539.8275 969.5992,539.8275 969.5992,549.8275 L969.5992,575.1244 C969.5992,585.1244 901.9996,585.1244 901.9996,585.1244 C901.9996,585.1244 834.4,585.1244 834.4,575.1244 L834.4,549.8275" fill="#008B6C" style="stroke:#181818;stroke-width:0.5;"/><path d="M834.4,549.8275 C834.4,559.8275 901.9996,559.8275 901.9996,559.8275 C901.9996,559.8275 969.5992,559.8275 969.5992,549.8275" fill="none" style="stroke:#181818;stroke-width:0.5;"/><text fill="#000000" font-family="sans-serif" font-size="14" lengthAdjust="spacing" textLength="115.1992" x="844.4" y="576.8226">Website (Typo3)</text></g><!--entity SP--><g class="entity" data-entity="SP" data-source-line="35" data-uid="ent0021" id="entity_SP"><path d="M1004.23,549.8275 C1004.23,539.8275 1075.9961,539.8275 1075.9961,539.8275 C1075.9961,539.8275 1147.7622,539.8275 1147.7622,549.8275 L1147.7622,575.1244 C1147.7622,585.1244 1075.9961,585.1244 1075.9961,585.1244 C1075.9961,585.1244 1004.23,585.1244 1004.23,575.1244 L1004.23,549.8275" fill="#008B6C" style="stroke:#181818;stroke-width:0.5;"/><path d="M1004.23,549.8275 C1004.23,559.8275 1075.9961,559.8275 1075.9961,559.8275 C1075.9961,559.8275 1147.7622,559.8275 1147.7622,549.8275" fill="none" style="stroke:#181818;stroke-width:0.5;"/><text fill="#000000" font-family="sans-serif" font-size="14" lengthAdjust="spacing" textLength="123.5322" x="1014.23" y="576.8226">DMS (Sharepoint)</text></g><!--entity DEPOT--><g class="entity" data-entity="DEPOT" data-source-line="36" data-uid="ent0022" id="entity_DEPOT"><path d="M1182.74,549.8275 C1182.74,539.8275 1252.9954,539.8275 1252.9954,539.8275 C1252.9954,539.8275 1323.2507,539.8275 1323.2507,549.8275 L1323.2507,575.1244 C1323.2507,585.1244 1252.9954,585.1244 1252.9954,585.1244 C1252.9954,585.1244 1182.74,585.1244 1182.74,575.1244 L1182.74,549.8275" fill="#008B6C" style="stroke:#181818;stroke-width:0.5;"/><path d="M1182.74,549.8275 C1182.74,559.8275 1252.9954,559.8275 1252.9954,559.8275 C1252.9954,559.8275 1323.2507,559.8275 1323.2507,549.8275" fill="none" style="stroke:#181818;stroke-width:0.5;"/><text fill="#000000" font-family="sans-serif" font-size="14" lengthAdjust="spacing" textLength="120.5107" x="1192.74" y="576.8226">Archief (DeVault)</text></g><!--entity Herbruikbaar--><g class="entity" data-entity="Herbruikbaar" data-source-line="40" data-uid="ent0024" id="entity_Herbruikbaar"><rect fill="#008B6C" height="46.2969" rx="2.5" ry="2.5" style="stroke:#181818;stroke-width:0.5;" width="132.21" x="64.9" y="106.9375"/><rect fill="#008B6C" height="10" style="stroke:#181818;stroke-width:0.5;" width="15" x="177.11" y="111.9375"/><rect fill="#008B6C" height="2" style="stroke:#181818;stroke-width:0.5;" width="4" x="175.11" y="113.9375"/><rect fill="#008B6C" height="2" style="stroke:#181818;stroke-width:0.5;" width="4" x="175.11" y="117.9375"/><text fill="#000000" font-family="sans-serif" font-size="14" lengthAdjust="spacing" textLength="92.21" x="79.9" y="139.9326">Herbruikbaar</text></g><!--entity Uitbreiden (doorontwikkeling)--><g class="entity" data-entity="Uitbreiden (doorontwikkeling)" data-source-line="41" data-uid="ent0025" id="entity_Uitbreiden (doorontwikkeling)"><rect fill="#F16E06" height="46.2969" rx="2.5" ry="2.5" style="stroke:#181818;stroke-width:0.5;" width="248.9268" x="232.54" y="106.9375"/><rect fill="#F16E06" height="10" style="stroke:#181818;stroke-width:0.5;" width="15" x="461.4668" y="111.9375"/><rect fill="#F16E06" height="2" style="stroke:#181818;stroke-width:0.5;" width="4" x="459.4668" y="113.9375"/><rect fill="#F16E06" height="2" style="stroke:#181818;stroke-width:0.5;" width="4" x="459.4668" y="117.9375"/><text fill="#000000" font-family="sans-serif" font-size="14" lengthAdjust="spacing" textLength="208.9268" x="247.54" y="139.9326">Uitbreiden (doorontwikkeling)</text></g><!--entity Te ontwikkelen (nieuw)--><g class="entity" data-entity="Te ontwikkelen (nieuw)" data-source-line="42" data-uid="ent0026" id="entity_Te ontwikkelen (nieuw)"><rect fill="#E5352C" height="46.2969" rx="2.5" ry="2.5" style="stroke:#181818;stroke-width:0.5;" width="203.1602" x="65.42" y="268.2375"/><rect fill="#E5352C" height="10" style="stroke:#181818;stroke-width:0.5;" width="15" x="248.5802" y="273.2375"/><rect fill="#E5352C" height="2" style="stroke:#181818;stroke-width:0.5;" width="4" x="246.5802" y="275.2375"/><rect fill="#E5352C" height="2" style="stroke:#181818;stroke-width:0.5;" width="4" x="246.5802" y="279.2375"/><text fill="#000000" font-family="sans-serif" font-size="14" lengthAdjust="spacing" textLength="163.1602" x="80.42" y="301.2326">Te ontwikkelen (nieuw)</text></g><!--link OiDashboard to OiBF--><g class="link" data-entity-1="OiDashboard" data-entity-2="OiBF" data-source-line="48" data-uid="lnk27" id="link_OiDashboard_OiBF"><path d="M1380.8,138.8975 C1378.29,154.2775 1371.79,189.3875 1361,217.2375 C1353.26,237.2075 1344.243,253.4266 1335.363,267.8666" fill="none" id="OiDashboard-to-OiBF" style="stroke:#181818;stroke-width:1;"/><polygon fill="#181818" points="1332.22,272.9775,1340.3418,267.4065,1334.8392,268.7184,1333.5272,263.2158,1332.22,272.9775" style="stroke:#181818;stroke-width:1;"/></g><!--link OWS to IP--><g class="link" data-entity-1="OWS" data-entity-2="IP" data-source-line="49" data-uid="lnk28" id="link_OWS_IP"><path d="M795.2,309.9375 C793.97,324.3475 792.78,345.2775 794,363.5375 C794.65,373.2875 795.1179,378.0598 796.4479,387.2198" fill="none" id="OWS-to-IP" style="stroke:#181818;stroke-width:1;"/><polygon fill="#181818" points="797.31,393.1575,799.9753,383.6761,796.5916,388.2094,792.0583,384.8257,797.31,393.1575" style="stroke:#181818;stroke-width:1;"/><text fill="#000000" font-family="sans-serif" font-size="13" lengthAdjust="spacing" textLength="85.7949" x="795" y="359.6044">Bevraagd via</text></g><!--link IP to ZRC--><g class="link" data-entity-1="IP" data-entity-2="ZRC" data-source-line="50" data-uid="lnk29" id="link_IP_ZRC"><path d="M714.77,418.3975 C598.49,421.8075 386.46,436.6575 217,496.8275 C188.77,506.8575 164.83,521.5807 144.38,536.1207" fill="none" id="IP-to-ZRC" style="stroke:#181818;stroke-width:1;"/><polygon fill="#181818" points="139.49,539.5975,149.1428,537.6423,143.565,536.7002,144.5071,531.1223,139.49,539.5975" style="stroke:#181818;stroke-width:1;"/><text fill="#000000" font-family="sans-serif" font-size="13" lengthAdjust="spacing" textLength="100.4707" x="295" y="484.8944">Woo verzoeken</text></g><!--link IP to SP--><g class="link" data-entity-1="IP" data-entity-2="SP" data-source-line="51" data-uid="lnk30" id="link_IP_SP"><path d="M879.78,440.2775 C907.31,447.9875 938.46,456.5075 967,463.8275 C982.04,467.6875 987.79,463.6775 1001,471.8275 C1028.29,488.6575 1047.2681,513.787 1060.2481,534.447" fill="none" id="IP-to-SP" style="stroke:#181818;stroke-width:1;"/><polygon fill="#181818" points="1063.44,539.5275,1062.0391,529.7788,1060.7801,535.2937,1055.2651,534.0347,1063.44,539.5275" style="stroke:#181818;stroke-width:1;"/><text fill="#000000" font-family="sans-serif" font-size="13" lengthAdjust="spacing" textLength="86.7407" x="1022" y="484.8944">Convenanten</text></g><!--link IP to RIS--><g class="link" data-entity-1="IP" data-entity-2="RIS" data-source-line="52" data-uid="lnk31" id="link_IP_RIS"><path d="M714.62,438.2375 C657.37,452.6875 580.94,473.5275 515,496.8275 C479.91,509.2275 446.8421,523.5327 417.7621,536.8927" fill="none" id="IP-to-RIS" style="stroke:#181818;stroke-width:1;"/><polygon fill="#181818" points="412.31,539.3975,422.1581,539.275,416.8534,537.3101,418.8183,532.0055,412.31,539.3975" style="stroke:#181818;stroke-width:1;"/><text fill="#000000" font-family="sans-serif" font-size="13" lengthAdjust="spacing" textLength="91.3936" x="586" y="484.8944">Raadsstukken</text></g><!--link IP to BIS--><g class="link" data-entity-1="IP" data-entity-2="BIS" data-source-line="53" data-uid="lnk32" id="link_IP_BIS"><path d="M761.56,440.1275 C748.08,448.9375 733.51,459.8275 722,471.8275 C702.57,492.0975 689.0963,514.8278 679.2063,534.1278" fill="none" id="IP-to-BIS" style="stroke:#181818;stroke-width:1;"/><polygon fill="#181818" points="676.47,539.4675,684.1342,533.2821,678.7502,535.0177,677.0146,529.6337,676.47,539.4675" style="stroke:#181818;stroke-width:1;"/><text fill="#000000" font-family="sans-serif" font-size="13" lengthAdjust="spacing" textLength="108.7861" x="723" y="484.8944">Bestuursstukken</text></g><!--link IP to CMS--><g class="link" data-entity-1="IP" data-entity-2="CMS" data-source-line="54" data-uid="lnk33" id="link_IP_CMS"><path d="M816.78,440.1475 C835.87,467.3275 864.3322,507.837 883.2122,534.727" fill="none" id="IP-to-CMS" style="stroke:#181818;stroke-width:1;"/><polygon fill="#181818" points="886.66,539.6375,884.762,529.9733,883.7869,535.5454,878.2147,534.5703,886.66,539.6375" style="stroke:#181818;stroke-width:1;"/><text fill="#000000" font-family="sans-serif" font-size="13" lengthAdjust="spacing" textLength="142.4287" x="850" y="484.8944">Organisatie gegevens</text></g><!--link IP to DEPOT--><g class="link" data-entity-1="IP" data-entity-2="DEPOT" data-source-line="55" data-uid="lnk34" id="link_IP_DEPOT"><path d="M869.3,440.2875 C898.99,449.1675 934.38,458.4875 967,463.8275 C1032.88,474.6175 1052.6,454.2375 1117,471.8275 C1140.2,478.1675 1144.58,484.1175 1165,496.8275 C1185.92,509.8575 1203.5358,522.6672 1220.4858,535.7172" fill="none" id="IP-to-DEPOT" style="stroke:#181818;stroke-width:1;"/><polygon fill="#181818" points="1225.24,539.3775,1220.5489,530.7176,1221.2782,536.3273,1215.6685,537.0565,1225.24,539.3775" style="stroke:#181818;stroke-width:1;"/><text fill="#000000" font-family="sans-serif" font-size="13" lengthAdjust="spacing" textLength="163.0015" x="1153" y="484.8944">Gearchiveerde gegevens</text></g><!--link OWS to OI--><g class="link" data-entity-1="OWS" data-entity-2="OI" data-source-line="56" data-uid="lnk35" id="link_OWS_OI"><path d="M830.85,309.9175 C873.33,331.9275 940.8727,366.917 987.0927,390.867" fill="none" id="OWS-to-OI" style="stroke:#181818;stroke-width:1;stroke-dasharray:7.0,7.0;"/><polygon fill="#181818" points="992.42,393.6275,986.2694,385.9353,987.9806,391.3271,982.5888,393.0383,992.42,393.6275" style="stroke:#181818;stroke-width:1;"/><text fill="#000000" font-family="sans-serif" font-size="13" lengthAdjust="spacing" textLength="69.2148" x="931" y="359.6044">Slaat op in</text></g><!--link OiBF to OI--><g class="link" data-entity-1="OiBF" data-entity-2="OI" data-source-line="57" data-uid="lnk36" id="link_OiBF_OI"><path d="M1280.33,309.9175 C1229.13,331.9975 1146.6798,367.5322 1091.1698,391.4622" fill="none" id="OiBF-to-OI" style="stroke:#181818;stroke-width:1;"/><polygon fill="#181818" points="1085.66,393.8375,1095.5082,393.9478,1090.2515,391.8581,1092.3412,386.6014,1085.66,393.8375" style="stroke:#181818;stroke-width:1;"/><text fill="#000000" font-family="sans-serif" font-size="13" lengthAdjust="spacing" textLength="54.7485" x="1196" y="359.6044">Beheerd</text></g><!--link FCS to OI--><g class="link" data-entity-1="FCS" data-entity-2="OI" data-source-line="59" data-uid="lnk37" id="link_FCS_OI"><path d="M1017.04,314.9975 C1021.03,337.3875 1026.0585,365.5304 1030.0085,387.7204" fill="none" id="FCS-to-OI" style="stroke:#181818;stroke-width:1;"/><polygon fill="#181818" points="1031.06,393.6275,1033.4208,384.0658,1030.1837,388.7049,1025.5446,385.4678,1031.06,393.6275" style="stroke:#181818;stroke-width:1;"/><text fill="#000000" font-family="sans-serif" font-size="13" lengthAdjust="spacing" textLength="62.3911" x="1026" y="359.6044">Bevraagd</text></g><!--link KOOP to FCS--><g class="link" data-entity-1="KOOP" data-entity-2="FCS" data-source-line="61" data-uid="lnk38" id="link_KOOP_FCS"><path d="M773.74,137.3575 C733.94,150.6075 652.12,183.0975 685,217.2375 C693.18,225.7275 885.66,222.0375 897,225.2375 C928.12,234.0075 954.9259,249.3122 977.3259,264.4222" fill="none" id="KOOP-to-FCS" style="stroke:#181818;stroke-width:1;"/><polygon fill="#181818" points="982.3,267.7775,977.0757,259.4285,978.1549,264.9814,972.6019,266.0606,982.3,267.7775" style="stroke:#181818;stroke-width:1;"/><text fill="#000000" font-family="sans-serif" font-size="13" lengthAdjust="spacing" textLength="165.2231" x="686" y="213.3044">Indexeerd (XML Sitemap)</text></g><!--link WOOGLE to FCS--><g class="link" data-entity-1="WOOGLE" data-entity-2="FCS" data-source-line="62" data-uid="lnk39" id="link_WOOGLE_FCS"><path d="M863.14,168.5575 C858.1,184.9575 856.48,203.5375 867,217.2375 C875.41,228.1775 884.22,220.0375 897,225.2375 C925.56,236.8475 950.7686,250.9252 973.2486,264.7452" fill="none" id="WOOGLE-to-FCS" style="stroke:#181818;stroke-width:1;"/><polygon fill="#181818" points="978.36,267.8875,972.7878,259.7665,974.1005,265.2689,968.5981,266.5816,978.36,267.8875" style="stroke:#181818;stroke-width:1;"/><text fill="#000000" font-family="sans-serif" font-size="13" lengthAdjust="spacing" textLength="100.4517" x="868" y="213.3044">Indexeerd (API)</text></g><!--link Website to FCS--><g class="link" data-entity-1="Website" data-entity-2="FCS" data-source-line="63" data-uid="lnk40" id="link_Website_FCS"><path d="M982.33,138.8075 C979.34,154.0075 973.89,188.8375 980,217.2375 C983.84,235.0775 989.5806,248.5159 997.0206,262.5559" fill="none" id="Website-to-FCS" style="stroke:#181818;stroke-width:1;"/><polygon fill="#181818" points="999.83,267.8575,999.1503,258.0321,997.4888,263.4395,992.0815,261.778,999.83,267.8575" style="stroke:#181818;stroke-width:1;"/><text fill="#000000" font-family="sans-serif" font-size="13" lengthAdjust="spacing" textLength="97.2334" x="981" y="213.3044">Bevraagd (API)</text></g><!--link Themasite to FCS--><g class="link" data-entity-1="Themasite" data-entity-2="FCS" data-source-line="64" data-uid="lnk41" id="link_Themasite_FCS"><path d="M1100.8,138.6975 C1100.09,154.3175 1096.95,190.7375 1083,217.2375 C1072.76,236.6775 1060.2831,250.5563 1045.6431,263.7763" fill="none" id="Themasite-to-FCS" style="stroke:#181818;stroke-width:1;"/><polygon fill="#181818" points="1041.19,267.7975,1050.5504,264.7345,1044.9009,264.4465,1045.1889,258.797,1041.19,267.7975" style="stroke:#181818;stroke-width:1;"/><text fill="#000000" font-family="sans-serif" font-size="13" lengthAdjust="spacing" textLength="97.2334" x="1090" y="213.3044">Bevraagd (API)</text></g><!--link Searchsite to FCS--><g class="link" data-entity-1="Searchsite" data-entity-2="FCS" data-source-line="65" data-uid="lnk42" id="link_Searchsite_FCS"><path d="M1231.72,138.8875 C1228.59,155.5075 1219.08,194.7375 1196,217.2375 C1172.11,240.5275 1145.525,254.6541 1114.765,265.7341" fill="none" id="Searchsite-to-FCS" style="stroke:#181818;stroke-width:1;"/><polygon fill="#181818" points="1109.12,267.7675,1118.943,268.4808,1113.8241,266.073,1116.2319,260.9542,1109.12,267.7675" style="stroke:#181818;stroke-width:1;"/><text fill="#000000" font-family="sans-serif" font-size="13" lengthAdjust="spacing" textLength="97.2334" x="1209" y="213.3044">Bevraagd (API)</text></g><text fill="#888888" font-family="sans-serif" font-size="10" lengthAdjust="spacing" textLength="70.835" x="691.0825" y="615.4097">OpenWoo.app</text><!--SRC=[VLHDKzj03BtxLsZCeU40Gw4mdHmwWnD2FGquWqDXkCcsucpjx7hMJYXq-j-hNN_4eGIVTgttf9Nqf4fKES5bdjAA91zql1GLnTLwhO4aPBH-9LYfb6GkVcLBIaWw2wKgqaC82f8FIXrZKJXBmkJjFyVv1BDrb8iOAq5Gv5WjbEOuC9WYfd0Ez_wXiz2u8d3V1xhmnm7-XEI82umPoDvXZEKoKgWJ5ov324HtXmCwFpi_ZIq9uqffS7y4mSpbMmdc10Sd9r-ZYr4F0Umq2AwdLwu1rSSTM3ywHIKNoCPjpd0m-NnnTNBn5ZfVqWgXHhDVU_q8_wGeWm9J8T4IGaBknWxZhobfI7eZOYhh8dxfAjZ-RsjMQCMt4bmFuuna0bnJM6Z54MLI5oGGtgGhcNNkipNLjWsr_xFE_zRKHaYmmWXBjfcsCpUXturZVoVBMAqA9KbMu4vOGjR9Xc2af6Ij6OU6D1c5EsNl4cX4rMRUX7W8zyNe9J5hj5Hp_6txRRQUDYzezNZQfNevy__FyGanAr_AYcW5WyV7FByT7Tf6FTsDTjwzfTmX9gMGvW7cDHtxLbNhIBpMz3i_t4Ftg3I3-9u7uM5KrdnlBxyLw63-KgYp6ZswsOSUisKGBb5JeLYMDJoSxK7RJK4B68pf9wxp1Zw-cWNpVesRWaw9DqY2RL5xlVfEEj9haKM8sjs9rGFTYohI91BJgaGfe-5daMMK2vbou3qoc1DqGCEKWjRF1ju8dZz-ONzx72NgMHvzitFX684TySMV3S6ZZMQ99B0HwB2AMY2tVWX6cXlIhpo_l1rxrf2PhF4DIJH3rpTnquTWvS4jpjxmF6Dic_-EdNl8crQdA4LfLPvoUJbAsGVPLWpXscuHiI7IIGzeaZi-vapz8OGvOWMgu6Nas8rWiZO6ZvQ6vZXcCkkViAs5uzXzsiOpc66z0mo9H-Hc2Y7BRuN5eTDirRrWdZW6DNhTHNMrhq7RFVeXhBSzFyBz0m00]--></g></svg>