<svg xmlns="http://www.w3.org/2000/svg" xmlns:xlink="http://www.w3.org/1999/xlink" contentStyleType="text/css" data-diagram-type="DESCRIPTION" height="363px" preserveAspectRatio="none" style="width:702px;height:363px;background:#FFFFFF;" version="1.1" viewBox="0 0 702 363" width="702px" zoomAndPan="magnify"><title>Losse frontend met integratie</title><defs/><g><text fill="#000000" font-family="sans-serif" font-size="14" font-weight="bold" lengthAdjust="spacing" textLength="237.166" x="225.4909" y="22.9951">Losse frontend met integratie</text><!--entity Website--><g class="entity" data-entity="Website" data-source-line="4" data-uid="ent0002" id="entity_Website"><ellipse cx="263.1" cy="51.2969" fill="#F1F1F1" rx="8" ry="8" style="stroke:#181818;stroke-width:0.5;"/><text fill="#000000" font-family="sans-serif" font-size="14" lengthAdjust="spacing" textLength="190.0869" x="168.0565" y="81.292">Open Webconcept Website</text></g><!--entity Harvester--><g class="entity" data-entity="Harvester" data-source-line="5" data-uid="ent0003" id="entity_Harvester"><ellipse cx="552.1" cy="51.2969" fill="#F1F1F1" rx="8" ry="8" style="stroke:#181818;stroke-width:0.5;"/><text fill="#000000" font-family="sans-serif" font-size="14" lengthAdjust="spacing" textLength="108.5615" x="497.8192" y="81.292">Koop Harvester</text></g><!--entity Api--><g class="entity" data-entity="Api" data-source-line="6" data-uid="ent0004" id="entity_Api"><ellipse cx="676.1" cy="51.2969" fill="#F1F1F1" rx="8" ry="8" style="stroke:#181818;stroke-width:0.5;"/><text fill="#000000" font-family="sans-serif" font-size="14" lengthAdjust="spacing" textLength="22.1484" x="665.0258" y="81.292">API</text></g><!--entity CMS--><g class="entity" data-entity="CMS" data-source-line="9" data-uid="ent0005" id="entity_CMS"><rect fill="#F1F1F1" height="46.2969" rx="2.5" ry="2.5" style="stroke:#181818;stroke-width:0.5;" width="204.1992" x="7" y="301.4469"/><rect fill="#F1F1F1" height="10" style="stroke:#181818;stroke-width:0.5;" width="15" x="191.1992" y="306.4469"/><rect fill="#F1F1F1" height="2" style="stroke:#181818;stroke-width:0.5;" width="4" x="189.1992" y="308.4469"/><rect fill="#F1F1F1" height="2" style="stroke:#181818;stroke-width:0.5;" width="4" x="189.1992" y="312.4469"/><text fill="#000000" font-family="sans-serif" font-size="14" lengthAdjust="spacing" textLength="164.1992" x="22" y="334.442">Open Webconcept CMS</text></g><!--entity Integratie--><g class="entity" data-entity="Integratie" data-source-line="10" data-uid="ent0006" id="entity_Integratie"><rect fill="#F1F1F1" height="46.2969" rx="2.5" ry="2.5" style="stroke:#181818;stroke-width:0.5;" width="108.3184" x="290.94" y="157.2969"/><rect fill="#F1F1F1" height="10" style="stroke:#181818;stroke-width:0.5;" width="15" x="379.2584" y="162.2969"/><rect fill="#F1F1F1" height="2" style="stroke:#181818;stroke-width:0.5;" width="4" x="377.2584" y="164.2969"/><rect fill="#F1F1F1" height="2" style="stroke:#181818;stroke-width:0.5;" width="4" x="377.2584" y="168.2969"/><text fill="#000000" font-family="sans-serif" font-size="14" lengthAdjust="spacing" textLength="68.3184" x="305.94" y="190.292">Integratie</text></g><!--entity Bronnen--><g class="entity" data-entity="Bronnen" data-source-line="11" data-uid="ent0007" id="entity_Bronnen"><rect fill="#F1F1F1" height="46.2969" rx="2.5" ry="2.5" style="stroke:#181818;stroke-width:0.5;" width="99.1582" x="295.52" y="301.4469"/><rect fill="#F1F1F1" height="10" style="stroke:#181818;stroke-width:0.5;" width="15" x="374.6782" y="306.4469"/><rect fill="#F1F1F1" height="2" style="stroke:#181818;stroke-width:0.5;" width="4" x="372.6782" y="308.4469"/><rect fill="#F1F1F1" height="2" style="stroke:#181818;stroke-width:0.5;" width="4" x="372.6782" y="312.4469"/><text fill="#000000" font-family="sans-serif" font-size="14" lengthAdjust="spacing" textLength="59.1582" x="310.52" y="334.442">Bronnen</text></g><!--entity API--><g class="entity" data-entity="API" data-source-line="14" data-uid="ent0008" id="entity_API"><ellipse cx="428.1" cy="51.2969" fill="#F1F1F1" rx="8" ry="8" style="stroke:#181818;stroke-width:0.5;"/><text fill="#000000" font-family="sans-serif" font-size="14" lengthAdjust="spacing" textLength="22.1484" x="417.0258" y="81.292">API</text></g><!--entity Zaaksysteem--><g class="entity" data-entity="Zaaksysteem" data-source-line="20" data-uid="ent0014" id="entity_Zaaksysteem"><ellipse cx="517.1" cy="324.5969" fill="#F1F1F1" rx="8" ry="8" style="stroke:#181818;stroke-width:0.5;"/><text fill="#000000" font-family="sans-serif" font-size="14" lengthAdjust="spacing" textLength="94.083" x="470.0585" y="354.592">Zaaksysteem</text></g><!--link API to Integratie--><g class="link" data-entity-1="API" data-entity-2="Integratie" data-source-line="14" data-uid="lnk9" id="link_API_Integratie"><path d="M424.75,60.0669 C418.58,74.0369 404.62,104.1369 389.1,127.2969 C382.24,137.5369 377.6373,143.5295 369.8973,152.4295" fill="none" id="API-to-Integratie" style="stroke:#181818;stroke-width:1;"/><polygon fill="#181818" points="365.96,156.9569,374.8843,152.7906,369.2411,153.184,368.8477,147.5409,365.96,156.9569" style="stroke:#181818;stroke-width:1;"/><text fill="#000000" font-family="sans-serif" font-size="13" lengthAdjust="spacing" textLength="122.7192" x="399.1" y="123.3638">Directly connected</text></g><!--link Website to Integratie--><g class="link" data-entity-1="Website" data-entity-2="Integratie" data-source-line="15" data-uid="lnk10" id="link_Website_Integratie"><path d="M260.51,59.9169 C256.15,74.1869 248.94,105.4469 261.1,127.2969 C267.94,139.5969 273.9633,146.1374 285.8633,153.7374" fill="none" id="Website-to-Integratie" style="stroke:#181818;stroke-width:1;"/><polygon fill="#181818" points="290.92,156.9669,285.4879,148.7515,286.7061,154.2756,281.1819,155.4938,290.92,156.9669" style="stroke:#181818;stroke-width:1;"/><text fill="#000000" font-family="sans-serif" font-size="13" lengthAdjust="spacing" textLength="122.7192" x="262.1" y="123.3638">Directly connected</text></g><!--link Integratie to Bronnen--><g class="link" data-entity-1="Integratie" data-entity-2="Bronnen" data-source-line="16" data-uid="lnk11" id="link_Integratie_Bronnen"><path d="M343.52,204.0269 C342.95,213.1969 342.38,223.8969 342.1,233.5969 C341.69,247.8169 341.73,251.3769 342.1,265.5969 C342.4,277.2869 342.7091,284.3066 343.3191,295.0266" fill="none" id="Integratie-to-Bronnen" style="stroke:#181818;stroke-width:1;"/><polygon fill="#181818" points="343.66,301.0169,347.1422,291.8042,343.3759,296.025,339.1552,292.2587,343.66,301.0169" style="stroke:#181818;stroke-width:1;"/><text fill="#000000" font-family="sans-serif" font-size="13" lengthAdjust="spacing" textLength="130.9204" x="343.1" y="246.6638">Scrapes periodically</text><text fill="#000000" font-family="sans-serif" font-size="13" lengthAdjust="spacing" textLength="97.519" x="359.8007" y="261.7966">Uses as source</text></g><!--reverse link Integratie to CMS--><g class="link" data-entity-1="Integratie" data-entity-2="CMS" data-source-line="19" data-uid="lnk13" id="link_Integratie_CMS"><path d="M284.9929,189.8494 C231.0329,198.3394 159.08,212.8169 137.1,233.5969 C118.55,251.1369 112.21,280.7169 110.09,301.1569" fill="none" id="Integratie-backto-CMS" style="stroke:#181818;stroke-width:1;"/><polygon fill="#181818" points="290.92,188.9169,281.4077,186.3643,285.9808,189.694,282.6511,194.2671,290.92,188.9169" style="stroke:#181818;stroke-width:1;"/><text fill="#000000" font-family="sans-serif" font-size="13" lengthAdjust="spacing" textLength="194.0479" x="138.1" y="254.1638">Notifies of changes or deletes</text></g><!--reverse link Integratie to Zaaksysteem--><g class="link" data-entity-1="Integratie" data-entity-2="Zaaksysteem" data-source-line="20" data-uid="lnk16" id="link_Integratie_Zaaksysteem"><path d="M405.4599,194.1471 C431.8899,201.8571 456.69,212.9269 478.1,233.5969 C502.48,257.1369 512.52,298.4569 515.79,315.6969" fill="none" id="Integratie-backto-Zaaksysteem" style="stroke:#181818;stroke-width:1;"/><polygon fill="#181818" points="399.7,192.4669,407.2197,198.8272,404.4999,193.8671,409.4601,191.1473,399.7,192.4669" style="stroke:#181818;stroke-width:1;"/><text fill="#000000" font-family="sans-serif" font-size="13" lengthAdjust="spacing" textLength="194.0479" x="500.1" y="254.1638">Notifies of changes or deletes</text></g><!--SRC=[bP7FJiCm3CRlUGfh5qvz0Gv8spXGyLTC20bn2QcxHKlZACv0VNkSq9O8Bd3A5_ltjL_iP9D3k25cX3wIJ-Wx63215RcFEbbKwWoU62EqKegzDWXR6W9vz4dPfRQw3-ZX6TyCUOCXPSasuGeqpxh6hua2NEduZYorGYstcbi_jAMv3ZOdsMXpp1cN2ApCB7zdsDxkYbdE6ckNnvNkzxM6DZ8EKOMOT0xmY4v8ydomWPMaWwQZ3zzSL9-1SxYq4Kro8vZiD0axDGtXptpLdorJ3k5t9kg0306ZfSuQxTpuwcLFdFCodQ8fcxkZP7jfbyXAvW3DAVpy-HSaLkh17BJVPncXGuS9MRreVUHH5eF3_zsV]--></g></svg>