<svg xmlns="http://www.w3.org/2000/svg" xmlns:xlink="http://www.w3.org/1999/xlink" contentStyleType="text/css" data-diagram-type="DESCRIPTION" height="335px" preserveAspectRatio="none" style="width:476px;height:335px;background:#FFFFFF;" version="1.1" viewBox="0 0 476 335" width="476px" zoomAndPan="magnify"><title>Open Webconcept met integratie</title><defs/><g><text fill="#888888" font-family="sans-serif" font-size="10" lengthAdjust="spacing" textLength="70.835" x="391.165" y="9.2822">OpenWoo.app</text><text fill="#000000" font-family="sans-serif" font-size="14" font-weight="bold" lengthAdjust="spacing" textLength="262.4453" x="99.7773" y="35.6357">Open Webconcept met integratie</text><!--cluster Publicatie platformen --><g class="cluster" data-entity="Publicatie platformen " data-source-line="6" data-uid="ent0002" id="cluster_Publicatie platformen "><rect fill="none" height="109" rx="2.5" ry="2.5" style="stroke:#181818;stroke-width:1;" width="238" x="7" y="56.9375"/><path d="M192.9502,56.9375 L192.9502,66.2344 L182.9502,76.2344 L7,76.2344" fill="none" style="stroke:#181818;stroke-width:1;"/><text fill="#000000" font-family="sans-serif" font-size="14" font-weight="bold" lengthAdjust="spacing" textLength="171.0762" x="10" y="70.9326">Publicatie platformen</text></g><!--cluster Services--><g class="cluster" data-entity="Services" data-source-line="11" data-uid="ent0004" id="cluster_Services"><rect fill="none" height="87.3" rx="2.5" ry="2.5" style="stroke:#181818;stroke-width:1;" width="196" x="274" y="67.7875"/><path d="M350.5342,67.7875 L350.5342,77.0844 L340.5342,87.0844 L274,87.0844" fill="none" style="stroke:#181818;stroke-width:1;"/><text fill="#000000" font-family="sans-serif" font-size="14" font-weight="bold" lengthAdjust="spacing" textLength="66.5342" x="277" y="81.7826">Services</text></g><!--cluster Integratie--><g class="cluster" data-entity="Integratie" data-source-line="16" data-uid="ent0006" id="cluster_Integratie"><rect fill="none" height="96.3" rx="2.5" ry="2.5" style="stroke:#181818;stroke-width:1;" width="132" x="101" y="214.9375"/><path d="M189.7227,214.9375 L189.7227,224.2344 L179.7227,234.2344 L101,234.2344" fill="none" style="stroke:#181818;stroke-width:1;"/><text fill="#000000" font-family="sans-serif" font-size="14" font-weight="bold" lengthAdjust="spacing" textLength="78.7227" x="104" y="228.9326">Integratie</text></g><!--cluster API--><g class="cluster" data-entity="API" data-source-line="21" data-uid="ent0008" id="cluster_API"><rect fill="none" height="96.3" rx="2.5" ry="2.5" style="stroke:#181818;stroke-width:1;" width="154" x="299" y="214.9375"/><path d="M335.3047,214.9375 L335.3047,224.2344 L325.3047,234.2344 L299,234.2344" fill="none" style="stroke:#181818;stroke-width:1;"/><text fill="#000000" font-family="sans-serif" font-size="14" font-weight="bold" lengthAdjust="spacing" textLength="26.3047" x="302" y="228.9326">API</text></g><!--entity Website--><g class="entity" data-entity="Website" data-source-line="7" data-uid="ent0003" id="entity_Website"><ellipse cx="126" cy="120.9375" fill="#CCE5FF" rx="8" ry="8" style="stroke:#181818;stroke-width:0.5;"/><text fill="#000000" font-family="sans-serif" font-size="14" lengthAdjust="spacing" textLength="190.0869" x="30.9565" y="150.9326">Open Webconcept Website</text></g><!--entity OWS--><g class="entity" data-entity="OWS" data-source-line="12" data-uid="ent0005" id="entity_OWS"><polygon fill="#1ABC9C" points="289.72,102.7875,444.2776,102.7875,454.2776,120.9359,444.2776,139.0844,289.72,139.0844,299.72,120.9359" style="stroke:#181818;stroke-width:0.5;"/><text fill="#000000" font-family="sans-serif" font-size="14" lengthAdjust="spacing" textLength="124.5576" x="309.72" y="125.7826">OpenWoo Service</text></g><!--entity OI--><g class="entity" data-entity="OI" data-source-line="17" data-uid="ent0007" id="entity_OI"><path d="M116.69,259.9375 C116.69,249.9375 167.0049,249.9375 167.0049,249.9375 C167.0049,249.9375 217.3199,249.9375 217.3199,259.9375 L217.3199,285.2344 C217.3199,295.2344 167.0049,295.2344 167.0049,295.2344 C167.0049,295.2344 116.69,295.2344 116.69,285.2344 L116.69,259.9375" fill="#1ABC9C" style="stroke:#181818;stroke-width:0.5;"/><path d="M116.69,259.9375 C116.69,269.9375 167.0049,269.9375 167.0049,269.9375 C167.0049,269.9375 217.3199,269.9375 217.3199,259.9375" fill="none" style="stroke:#181818;stroke-width:0.5;"/><text fill="#000000" font-family="sans-serif" font-size="14" lengthAdjust="spacing" textLength="80.6299" x="126.69" y="286.9326">Open Index</text></g><!--entity CMS--><g class="entity" data-entity="CMS" data-source-line="22" data-uid="ent0009" id="entity_CMS"><path d="M314.63,259.9375 C314.63,249.9375 376.0021,249.9375 376.0021,249.9375 C376.0021,249.9375 437.3741,249.9375 437.3741,259.9375 L437.3741,285.2344 C437.3741,295.2344 376.0021,295.2344 376.0021,295.2344 C376.0021,295.2344 314.63,295.2344 314.63,285.2344 L314.63,259.9375" fill="#CCE5FF" style="stroke:#181818;stroke-width:0.5;"/><path d="M314.63,259.9375 C314.63,269.9375 376.0021,269.9375 376.0021,269.9375 C376.0021,269.9375 437.3741,269.9375 437.3741,259.9375" fill="none" style="stroke:#181818;stroke-width:0.5;"/><text fill="#000000" font-family="sans-serif" font-size="14" lengthAdjust="spacing" textLength="102.7441" x="324.63" y="286.9326">Website (CMS)</text></g><!--link OWS to CMS--><g class="link" data-entity-1="OWS" data-entity-2="CMS" data-source-line="25" data-uid="lnk10" id="link_OWS_CMS"><path d="M372.47,139.3975 C373.2,166.7675 374.4496,213.7396 375.2496,243.6496" fill="none" id="OWS-to-CMS" style="stroke:#181818;stroke-width:1;"/><polygon fill="#181818" points="375.41,249.6475,379.1679,240.5438,375.2763,244.6493,371.1708,240.7577,375.41,249.6475" style="stroke:#181818;stroke-width:1;"/><text fill="#000000" font-family="sans-serif" font-size="13" lengthAdjust="spacing" textLength="65.6094" x="375" y="195.0044">Indexeerd</text></g><!--link OWS to OI--><g class="link" data-entity-1="OWS" data-entity-2="OI" data-source-line="26" data-uid="lnk11" id="link_OWS_OI"><path d="M348.08,139.3975 C310.59,166.7675 242.876,216.1997 201.906,246.1097" fill="none" id="OWS-to-OI" style="stroke:#181818;stroke-width:1;stroke-dasharray:7.0,7.0;"/><polygon fill="#181818" points="197.06,249.6475,206.6876,247.5715,201.0983,246.6993,201.9705,241.1101,197.06,249.6475" style="stroke:#181818;stroke-width:1;"/><text fill="#000000" font-family="sans-serif" font-size="13" lengthAdjust="spacing" textLength="69.2148" x="288" y="195.0044">Slaat op in</text></g><!--link Website to OI--><g class="link" data-entity-1="Website" data-entity-2="OI" data-source-line="28" data-uid="lnk12" id="link_Website_OI"><path d="M124.14,129.7775 C121.13,143.8975 116.16,174.4575 123,198.9375 C128.16,217.4075 135.9181,230.9755 145.7581,244.6655" fill="none" id="Website-to-OI" style="stroke:#181818;stroke-width:1;"/><polygon fill="#181818" points="149.26,249.5375,147.2552,239.8948,146.3418,245.4775,140.7591,244.564,149.26,249.5375" style="stroke:#181818;stroke-width:1;"/><text fill="#000000" font-family="sans-serif" font-size="13" lengthAdjust="spacing" textLength="97.2334" x="124" y="195.0044">Bevraagd (API)</text></g><text fill="#888888" font-family="sans-serif" font-size="10" lengthAdjust="spacing" textLength="70.835" x="195.5825" y="325.5197">OpenWoo.app</text><!--SRC=[RP0zJyCm48Pt_ufJEf0EZSH71p9KeaoHGAqKeSmN-rmi9RRbc8A4-E_OIHsWnTFvFfxtlVFATmGxIneQQhdHdAo7dZmexUdWq2jYqXXFhXpR6cCAj9Qz4ehp7Bk2_LlRAHwdm7RefN5zGETFY0TOmqkrPD9XJv3ztvZ19uFmehYJo4FZkRSG3ifJ1ZYa61QSqrfAzXKjrEIEYjCmYTxDYYcVDAmpuJTC2c65D9X1HE-Q6XRNsF9xFc6h-HwdTMvdyayfiGLwR758zYijwEF4hVvYjyveFP_ePcO-xAjBMDetVtokb-C5Gl1x- -Xw9SoxNcrYgPoKYPmOIqMn2GPAg3j43yQ6EpEMe6akE2nXIqSN30d8Wv7bDm00]--></g></svg>