<svg xmlns="http://www.w3.org/2000/svg" xmlns:xlink="http://www.w3.org/1999/xlink" contentStyleType="text/css" data-diagram-type="DESCRIPTION" height="370px" preserveAspectRatio="none" style="width:2265px;height:370px;background:#FFFFFF;" version="1.1" viewBox="0 0 2265 370" width="2265px" zoomAndPan="magnify"><title>Publicatie platformen</title><defs/><g><text fill="#888888" font-family="sans-serif" font-size="10" lengthAdjust="spacing" textLength="70.835" x="2180.5454" y="9.2822">OpenWoo.app</text><text fill="#000000" font-family="sans-serif" font-size="14" font-weight="bold" lengthAdjust="spacing" textLength="171.0762" x="1040.1521" y="35.6357">Publicatie platformen</text><!--cluster Publicatie platformen --><g class="cluster" data-entity="Publicatie platformen " data-source-line="6" data-uid="ent0002" id="cluster_Publicatie platformen "><rect fill="none" height="127.29" rx="2.5" ry="2.5" style="stroke:#181818;stroke-width:1;" width="542" x="118.46" y="56.9375"/><path d="M304.4102,56.9375 L304.4102,66.2344 L294.4102,76.2344 L118.46,76.2344" fill="none" style="stroke:#181818;stroke-width:1;"/><text fill="#000000" font-family="sans-serif" font-size="14" font-weight="bold" lengthAdjust="spacing" textLength="171.0762" x="121.46" y="70.9326">Publicatie platformen</text></g><!--cluster Services--><g class="cluster" data-entity="Services" data-source-line="15" data-uid="ent0008" id="cluster_Services"><rect fill="none" height="87.29" rx="2.5" ry="2.5" style="stroke:#181818;stroke-width:1;" width="196" x="1354.46" y="76.9375"/><path d="M1430.9942,76.9375 L1430.9942,86.2344 L1420.9942,96.2344 L1354.46,96.2344" fill="none" style="stroke:#181818;stroke-width:1;"/><text fill="#000000" font-family="sans-serif" font-size="14" font-weight="bold" lengthAdjust="spacing" textLength="66.5342" x="1357.46" y="90.9326">Services</text></g><!--cluster Integratie--><g class="cluster" data-entity="Integratie" data-source-line="20" data-uid="ent0010" id="cluster_Integratie"><rect fill="none" height="96.3" rx="2.5" ry="2.5" style="stroke:#181818;stroke-width:1;" width="132" x="347.46" y="248.7275"/><path d="M436.1827,248.7275 L436.1827,258.0244 L426.1827,268.0244 L347.46,268.0244" fill="none" style="stroke:#181818;stroke-width:1;"/><text fill="#000000" font-family="sans-serif" font-size="14" font-weight="bold" lengthAdjust="spacing" textLength="78.7227" x="350.46" y="262.7226">Integratie</text></g><!--cluster API--><g class="cluster" data-entity="API" data-source-line="25" data-uid="ent0012" id="cluster_API"><rect fill="none" height="97.3" rx="2.5" ry="2.5" style="stroke:#181818;stroke-width:1;" width="865" x="1249.46" y="248.2275"/><path d="M1285.7647,248.2275 L1285.7647,257.5244 L1275.7647,267.5244 L1249.46,267.5244" fill="none" style="stroke:#181818;stroke-width:1;"/><text fill="#000000" font-family="sans-serif" font-size="14" font-weight="bold" lengthAdjust="spacing" textLength="26.3047" x="1252.46" y="262.2226">API</text></g><!--entity KOOP--><g class="entity" data-entity="KOOP" data-source-line="7" data-uid="ent0003" id="entity_KOOP"><ellipse cx="154.4611" cy="100.4375" fill="#CCE5FF" rx="8" ry="8" style="stroke:#181818;stroke-width:0.5;"/><path d="M154.4611,108.4375 L154.4611,135.4375 M141.4611,116.4375 L167.4611,116.4375 M154.4611,135.4375 L141.4611,150.4375 M154.4611,135.4375 L167.4611,150.4375" fill="none" style="stroke:#181818;stroke-width:0.5;"/><text fill="#000000" font-family="sans-serif" font-size="14" lengthAdjust="spacing" textLength="39.6621" x="134.63" y="164.9326">KOOP</text></g><!--entity WOOGLE--><g class="entity" data-entity="WOOGLE" data-source-line="8" data-uid="ent0004" id="entity_WOOGLE"><ellipse cx="241.468" cy="100.4375" fill="#CCE5FF" rx="8" ry="8" style="stroke:#181818;stroke-width:0.5;"/><path d="M241.468,108.4375 L241.468,135.4375 M228.468,116.4375 L254.468,116.4375 M241.468,135.4375 L228.468,150.4375 M241.468,135.4375 L254.468,150.4375" fill="none" style="stroke:#181818;stroke-width:0.5;"/><text fill="#000000" font-family="sans-serif" font-size="14" lengthAdjust="spacing" textLength="63.376" x="209.78" y="164.9326">WOOGLE</text></g><!--entity Website--><g class="entity" data-entity="Website" data-source-line="9" data-uid="ent0005" id="entity_Website"><ellipse cx="344.46" cy="130.0775" fill="#1ABC9C" rx="8" ry="8" style="stroke:#181818;stroke-width:0.5;"/><text fill="#000000" font-family="sans-serif" font-size="14" lengthAdjust="spacing" textLength="56.6289" x="316.1455" y="160.0726">Website</text></g><!--entity Themasite--><g class="entity" data-entity="Themasite" data-source-line="10" data-uid="ent0006" id="entity_Themasite"><ellipse cx="461.46" cy="130.0775" fill="#1ABC9C" rx="8" ry="8" style="stroke:#181818;stroke-width:0.5;"/><text fill="#000000" font-family="sans-serif" font-size="14" lengthAdjust="spacing" textLength="77.9912" x="422.4644" y="160.0726">Thema site</text></g><!--entity Searchsite--><g class="entity" data-entity="Searchsite" data-source-line="11" data-uid="ent0007" id="entity_Searchsite"><ellipse cx="593.46" cy="130.0775" fill="#1ABC9C" rx="8" ry="8" style="stroke:#181818;stroke-width:0.5;"/><text fill="#000000" font-family="sans-serif" font-size="14" lengthAdjust="spacing" textLength="87.0215" x="549.9493" y="160.0726">Zoek pagina</text></g><!--entity OWS--><g class="entity" data-entity="OWS" data-source-line="16" data-uid="ent0009" id="entity_OWS"><polygon fill="#1ABC9C" points="1370.18,111.9375,1524.7376,111.9375,1534.7376,130.0859,1524.7376,148.2344,1370.18,148.2344,1380.18,130.0859" style="stroke:#181818;stroke-width:0.5;"/><text fill="#000000" font-family="sans-serif" font-size="14" lengthAdjust="spacing" textLength="124.5576" x="1390.18" y="134.9326">OpenWoo Service</text></g><!--entity OI--><g class="entity" data-entity="OI" data-source-line="21" data-uid="ent0011" id="entity_OI"><path d="M363.15,293.7275 C363.15,283.7275 413.4649,283.7275 413.4649,283.7275 C413.4649,283.7275 463.7799,283.7275 463.7799,293.7275 L463.7799,319.0244 C463.7799,329.0244 413.4649,329.0244 413.4649,329.0244 C413.4649,329.0244 363.15,329.0244 363.15,319.0244 L363.15,293.7275" fill="#1ABC9C" style="stroke:#181818;stroke-width:0.5;"/><path d="M363.15,293.7275 C363.15,303.7275 413.4649,303.7275 413.4649,303.7275 C413.4649,303.7275 463.7799,303.7275 463.7799,293.7275" fill="none" style="stroke:#181818;stroke-width:0.5;"/><text fill="#000000" font-family="sans-serif" font-size="14" lengthAdjust="spacing" textLength="80.6299" x="373.15" y="320.7226">Open Index</text></g><!--entity Zaaksysteem--><g class="entity" data-entity="Zaaksysteem" data-source-line="26" data-uid="ent0013" id="entity_Zaaksysteem"><rect fill="#CCE5FF" height="46.2969" rx="2.5" ry="2.5" style="stroke:#181818;stroke-width:0.5;" width="134.083" x="1265.42" y="283.2275"/><rect fill="#CCE5FF" height="10" style="stroke:#181818;stroke-width:0.5;" width="15" x="1379.503" y="288.2275"/><rect fill="#CCE5FF" height="2" style="stroke:#181818;stroke-width:0.5;" width="4" x="1377.503" y="290.2275"/><rect fill="#CCE5FF" height="2" style="stroke:#181818;stroke-width:0.5;" width="4" x="1377.503" y="294.2275"/><text fill="#000000" font-family="sans-serif" font-size="14" lengthAdjust="spacing" textLength="94.083" x="1280.42" y="316.2226">Zaaksysteem</text></g><!--entity CMS--><g class="entity" data-entity="CMS" data-source-line="27" data-uid="ent0014" id="entity_CMS"><rect fill="#CCE5FF" height="46.2969" rx="2.5" ry="2.5" style="stroke:#181818;stroke-width:0.5;" width="70.7412" x="1434.09" y="283.2275"/><rect fill="#CCE5FF" height="10" style="stroke:#181818;stroke-width:0.5;" width="15" x="1484.8312" y="288.2275"/><rect fill="#CCE5FF" height="2" style="stroke:#181818;stroke-width:0.5;" width="4" x="1482.8312" y="290.2275"/><rect fill="#CCE5FF" height="2" style="stroke:#181818;stroke-width:0.5;" width="4" x="1482.8312" y="294.2275"/><text fill="#000000" font-family="sans-serif" font-size="14" lengthAdjust="spacing" textLength="30.7412" x="1449.09" y="316.2226">CMS</text></g><!--entity Raadsinfo--><g class="entity" data-entity="Raadsinfo" data-source-line="28" data-uid="ent0015" id="entity_Raadsinfo"><rect fill="#CCE5FF" height="46.2969" rx="2.5" ry="2.5" style="stroke:#181818;stroke-width:0.5;" width="223.415" x="1539.76" y="283.2275"/><rect fill="#CCE5FF" height="10" style="stroke:#181818;stroke-width:0.5;" width="15" x="1743.175" y="288.2275"/><rect fill="#CCE5FF" height="2" style="stroke:#181818;stroke-width:0.5;" width="4" x="1741.175" y="290.2275"/><rect fill="#CCE5FF" height="2" style="stroke:#181818;stroke-width:0.5;" width="4" x="1741.175" y="294.2275"/><text fill="#000000" font-family="sans-serif" font-size="14" lengthAdjust="spacing" textLength="183.415" x="1554.76" y="316.2226">Raads informatie systeem</text></g><!--entity eDepot--><g class="entity" data-entity="eDepot" data-source-line="29" data-uid="ent0016" id="entity_eDepot"><rect fill="#CCE5FF" height="46.2969" rx="2.5" ry="2.5" style="stroke:#181818;stroke-width:0.5;" width="90.9482" x="1797.99" y="283.2275"/><rect fill="#CCE5FF" height="10" style="stroke:#181818;stroke-width:0.5;" width="15" x="1868.9382" y="288.2275"/><rect fill="#CCE5FF" height="2" style="stroke:#181818;stroke-width:0.5;" width="4" x="1866.9382" y="290.2275"/><rect fill="#CCE5FF" height="2" style="stroke:#181818;stroke-width:0.5;" width="4" x="1866.9382" y="294.2275"/><text fill="#000000" font-family="sans-serif" font-size="14" lengthAdjust="spacing" textLength="50.9482" x="1812.99" y="316.2226">eDepot</text></g><!--entity DMS--><g class="entity" data-entity="DMS" data-source-line="30" data-uid="ent0017" id="entity_DMS"><rect fill="#CCE5FF" height="46.2969" rx="2.5" ry="2.5" style="stroke:#181818;stroke-width:0.5;" width="71.7461" x="1923.59" y="283.2275"/><rect fill="#CCE5FF" height="10" style="stroke:#181818;stroke-width:0.5;" width="15" x="1975.3361" y="288.2275"/><rect fill="#CCE5FF" height="2" style="stroke:#181818;stroke-width:0.5;" width="4" x="1973.3361" y="290.2275"/><rect fill="#CCE5FF" height="2" style="stroke:#181818;stroke-width:0.5;" width="4" x="1973.3361" y="294.2275"/><text fill="#000000" font-family="sans-serif" font-size="14" lengthAdjust="spacing" textLength="31.7461" x="1938.59" y="316.2226">DMS</text></g><!--entity VTH--><g class="entity" data-entity="VTH" data-source-line="31" data-uid="ent0018" id="entity_VTH"><rect fill="#CCE5FF" height="46.2969" rx="2.5" ry="2.5" style="stroke:#181818;stroke-width:0.5;" width="68.6563" x="2030.14" y="283.2275"/><rect fill="#CCE5FF" height="10" style="stroke:#181818;stroke-width:0.5;" width="15" x="2078.7963" y="288.2275"/><rect fill="#CCE5FF" height="2" style="stroke:#181818;stroke-width:0.5;" width="4" x="2076.7963" y="290.2275"/><rect fill="#CCE5FF" height="2" style="stroke:#181818;stroke-width:0.5;" width="4" x="2076.7963" y="294.2275"/><text fill="#000000" font-family="sans-serif" font-size="14" lengthAdjust="spacing" textLength="28.6563" x="2045.14" y="316.2226">VTH</text></g><!--link KOOP to OI--><g class="link" data-entity-1="KOOP" data-entity-2="OI" data-source-line="35" data-uid="lnk19" id="link_KOOP_OI"><path d="M134.28,138.0475 C93.09,153.3075 6,191.5875 39.46,232.2275 C79.89,281.3275 264.5296,297.5986 356.9696,302.8286" fill="none" id="KOOP-to-OI" style="stroke:#181818;stroke-width:1;"/><polygon fill="#181818" points="362.96,303.1675,354.2003,298.6655,357.968,302.8851,353.7484,306.6527,362.96,303.1675" style="stroke:#181818;stroke-width:1;"/><text fill="#000000" font-family="sans-serif" font-size="13" lengthAdjust="spacing" textLength="165.2231" x="40.46" y="220.7944">Indexeerd (XML Sitemap)</text></g><!--link WOOGLE to OI--><g class="link" data-entity-1="WOOGLE" data-entity-2="OI" data-source-line="36" data-uid="lnk20" id="link_WOOGLE_OI"><path d="M221.33,168.4775 C213.31,188.8675 208.67,213.6575 221.46,232.2275 C253.04,278.0475 311.4885,294.3516 356.9785,300.7516" fill="none" id="WOOGLE-to-OI" style="stroke:#181818;stroke-width:1;"/><polygon fill="#181818" points="362.92,301.5875,354.565,296.3726,357.9688,300.8909,353.4505,304.2946,362.92,301.5875" style="stroke:#181818;stroke-width:1;"/><text fill="#000000" font-family="sans-serif" font-size="13" lengthAdjust="spacing" textLength="100.4517" x="222.46" y="220.7944">Indexeerd (API)</text></g><!--link Website to OI--><g class="link" data-entity-1="Website" data-entity-2="OI" data-source-line="37" data-uid="lnk21" id="link_Website_OI"><path d="M341.63,138.8375 C335.71,156.3175 323.68,199.8375 337.46,232.2275 C346.28,252.9575 359.4597,266.941 375.6697,279.731" fill="none" id="Website-to-OI" style="stroke:#181818;stroke-width:1;"/><polygon fill="#181818" points="380.38,283.4475,375.7922,274.7325,376.4547,280.3504,370.8368,281.0129,380.38,283.4475" style="stroke:#181818;stroke-width:1;"/><text fill="#000000" font-family="sans-serif" font-size="13" lengthAdjust="spacing" textLength="97.2334" x="338.46" y="220.7944">Bevraagd (API)</text></g><!--link Themasite to OI--><g class="link" data-entity-1="Themasite" data-entity-2="OI" data-source-line="38" data-uid="lnk22" id="link_Themasite_OI"><path d="M460.79,138.8375 C459.15,155.9575 454.38,198.2075 444.46,232.2275 C439.29,249.9775 433.5854,263.7542 426.8954,278.0342" fill="none" id="Themasite-to-OI" style="stroke:#181818;stroke-width:1;"/><polygon fill="#181818" points="424.35,283.4675,431.7904,277.0145,426.4712,278.9397,424.5459,273.6206,424.35,283.4675" style="stroke:#181818;stroke-width:1;"/><text fill="#000000" font-family="sans-serif" font-size="13" lengthAdjust="spacing" textLength="97.2334" x="453.46" y="220.7944">Bevraagd (API)</text></g><!--link Searchsite to OI--><g class="link" data-entity-1="Searchsite" data-entity-2="OI" data-source-line="39" data-uid="lnk23" id="link_Searchsite_OI"><path d="M592.84,138.9175 C590.99,157.3375 584.01,203.9775 559.46,232.2275 C534.46,261.0175 501.0663,277.718 469.6563,289.008" fill="none" id="Searchsite-to-OI" style="stroke:#181818;stroke-width:1;"/><polygon fill="#181818" points="464.01,291.0375,473.8325,291.7574,468.7153,289.3462,471.1265,284.229,464.01,291.0375" style="stroke:#181818;stroke-width:1;"/><text fill="#000000" font-family="sans-serif" font-size="13" lengthAdjust="spacing" textLength="97.2334" x="578.46" y="220.7944">Bevraagd (API)</text></g><!--link OWS to OI--><g class="link" data-entity-1="OWS" data-entity-2="OI" data-source-line="40" data-uid="lnk24" id="link_OWS_OI"><path d="M1369.73,134.0575 C1242.5,139.8875 991.69,156.3275 783.46,200.2275 C738.22,209.7675 728.8,219.0875 684.46,232.2275 C608.07,254.8675 524.5302,276.9303 469.9302,291.0003" fill="none" id="OWS-to-OI" style="stroke:#181818;stroke-width:1;stroke-dasharray:7.0,7.0;"/><polygon fill="#181818" points="464.12,292.4975,473.8334,294.1251,468.9618,291.2498,471.8371,286.3782,464.12,292.4975" style="stroke:#181818;stroke-width:1;"/><text fill="#000000" font-family="sans-serif" font-size="13" lengthAdjust="spacing" textLength="69.2148" x="784.46" y="220.7944">Slaat op in</text></g><!--link OWS to CMS--><g class="link" data-entity-1="OWS" data-entity-2="CMS" data-source-line="42" data-uid="lnk25" id="link_OWS_CMS"><path d="M1369.93,148.7275 C1308.5,165.4375 1241.08,193.7075 1277.46,232.2275 C1288.16,243.5575 1403.62,233.0775 1417.46,240.2275 C1435.33,249.4675 1446.0609,262.7219 1454.9309,277.6219" fill="none" id="OWS-to-CMS" style="stroke:#181818;stroke-width:1;"/><polygon fill="#181818" points="1458,282.7775,1456.8334,272.998,1455.4424,278.4812,1449.9592,277.0902,1458,282.7775" style="stroke:#181818;stroke-width:1;"/><text fill="#000000" font-family="sans-serif" font-size="13" lengthAdjust="spacing" textLength="130.9204" x="1278.46" y="213.2944">Scrapes periodically</text><text fill="#000000" font-family="sans-serif" font-size="13" lengthAdjust="spacing" textLength="97.519" x="1295.1607" y="228.4272">Uses as source</text></g><!--reverse link OWS to CMS--><g class="link" data-entity-1="OWS" data-entity-2="CMS" data-source-line="50" data-uid="lnk32" id="link_OWS_CMS"><path d="M1449.5678,154.683 C1447.3878,174.933 1445.56,203.1575 1449.46,232.2275 C1451.79,249.5875 1457.1,268.6475 1461.66,282.9675" fill="none" id="OWS-backto-CMS" style="stroke:#181818;stroke-width:1;"/><polygon fill="#181818" points="1450.21,148.7175,1445.2697,157.2377,1449.6748,153.6888,1453.2237,158.0939,1450.21,148.7175" style="stroke:#181818;stroke-width:1;"/><text fill="#000000" font-family="sans-serif" font-size="13" lengthAdjust="spacing" textLength="194.0479" x="1450.46" y="220.7944">Notifies of changes or deletes</text></g><!--link OWS to Zaaksysteem--><g class="link" data-entity-1="OWS" data-entity-2="Zaaksysteem" data-source-line="43" data-uid="lnk26" id="link_OWS_Zaaksysteem"><path d="M1369.85,134.9075 C1216.9,142.8375 902.13,163.4675 869.46,200.2275 C860.02,210.8675 860.22,221.4175 869.46,232.2275 C919.55,290.8575 1143.1911,302.6516 1259.1111,304.8916" fill="none" id="OWS-to-Zaaksysteem" style="stroke:#181818;stroke-width:1;"/><polygon fill="#181818" points="1265.11,305.0075,1256.189,300.8344,1260.1109,304.9109,1256.0344,308.8329,1265.11,305.0075" style="stroke:#181818;stroke-width:1;"/><text fill="#000000" font-family="sans-serif" font-size="13" lengthAdjust="spacing" textLength="130.9204" x="870.46" y="213.2944">Scrapes periodically</text><text fill="#000000" font-family="sans-serif" font-size="13" lengthAdjust="spacing" textLength="97.519" x="887.1607" y="228.4272">Uses as source</text></g><!--reverse link OWS to Zaaksysteem--><g class="link" data-entity-1="OWS" data-entity-2="Zaaksysteem" data-source-line="51" data-uid="lnk34" id="link_OWS_Zaaksysteem"><path d="M1364.0979,134.0448 C1261.7379,139.2948 1101.79,154.4875 1063.46,200.2275 C1004.53,270.5675 1167.31,294.0775 1264.94,301.7575" fill="none" id="OWS-backto-Zaaksysteem" style="stroke:#181818;stroke-width:1;"/><polygon fill="#181818" points="1370.09,133.7375,1360.8969,130.2038,1365.0966,133.9936,1361.3067,138.1932,1370.09,133.7375" style="stroke:#181818;stroke-width:1;"/><text fill="#000000" font-family="sans-serif" font-size="13" lengthAdjust="spacing" textLength="194.0479" x="1064.46" y="220.7944">Notifies of changes or deletes</text></g><!--link OWS to Raadsinfo--><g class="link" data-entity-1="OWS" data-entity-2="Raadsinfo" data-source-line="44" data-uid="lnk27" id="link_OWS_Raadsinfo"><path d="M1535.07,138.3275 C1576.46,146.5875 1623.23,163.9575 1649.46,200.2275 C1666.8,224.1975 1664.2951,254.0812 1659.1651,277.1012" fill="none" id="OWS-to-Raadsinfo" style="stroke:#181818;stroke-width:1;"/><polygon fill="#181818" points="1657.86,282.9575,1663.7219,275.043,1658.9476,278.0772,1655.9134,273.3029,1657.86,282.9575" style="stroke:#181818;stroke-width:1;"/><text fill="#000000" font-family="sans-serif" font-size="13" lengthAdjust="spacing" textLength="130.9204" x="1662.46" y="213.2944">Scrapes periodically</text><text fill="#000000" font-family="sans-serif" font-size="13" lengthAdjust="spacing" textLength="97.519" x="1679.1607" y="228.4272">Uses as source</text></g><!--link OWS to eDepot--><g class="link" data-entity-1="OWS" data-entity-2="eDepot" data-source-line="45" data-uid="lnk28" id="link_OWS_eDepot"><path d="M1534.89,138.3475 C1624.95,147.8275 1761.73,167.2275 1801.46,200.2275 C1826.41,220.9575 1835.6418,252.7328 1839.7618,276.9028" fill="none" id="OWS-to-eDepot" style="stroke:#181818;stroke-width:1;"/><polygon fill="#181818" points="1840.77,282.8175,1843.2008,273.2733,1839.9298,277.8886,1835.3146,274.6176,1840.77,282.8175" style="stroke:#181818;stroke-width:1;"/><text fill="#000000" font-family="sans-serif" font-size="13" lengthAdjust="spacing" textLength="130.9204" x="1826.46" y="213.2944">Scrapes periodically</text><text fill="#000000" font-family="sans-serif" font-size="13" lengthAdjust="spacing" textLength="97.519" x="1843.1607" y="228.4272">Uses as source</text></g><!--link OWS to DMS--><g class="link" data-entity-1="OWS" data-entity-2="DMS" data-source-line="46" data-uid="lnk29" id="link_OWS_DMS"><path d="M1535.11,136.3375 C1672.98,145.9575 1937.61,168.3675 1965.46,200.2275 C1985.2,222.8075 1979.1873,253.9497 1970.8773,277.4897" fill="none" id="OWS-to-DMS" style="stroke:#181818;stroke-width:1;"/><polygon fill="#181818" points="1968.88,283.1475,1975.6478,275.9923,1970.5444,278.4327,1968.1041,273.3293,1968.88,283.1475" style="stroke:#181818;stroke-width:1;"/><text fill="#000000" font-family="sans-serif" font-size="13" lengthAdjust="spacing" textLength="130.9204" x="1978.46" y="213.2944">Scrapes periodically</text><text fill="#000000" font-family="sans-serif" font-size="13" lengthAdjust="spacing" textLength="97.519" x="1995.1607" y="228.4272">Uses as source</text></g><!--link OWS to VTH--><g class="link" data-entity-1="OWS" data-entity-2="VTH" data-source-line="47" data-uid="lnk30" id="link_OWS_VTH"><path d="M1535.08,133.6075 C1704.6,139.6375 2079.12,157.6875 2117.46,200.2275 C2139.5,224.6775 2117.1017,255.7239 2094.2917,278.5439" fill="none" id="OWS-to-VTH" style="stroke:#181818;stroke-width:1;"/><polygon fill="#181818" points="2090.05,282.7875,2099.2416,279.25,2093.5848,279.2512,2093.5835,273.5943,2090.05,282.7875" style="stroke:#181818;stroke-width:1;"/><text fill="#000000" font-family="sans-serif" font-size="13" lengthAdjust="spacing" textLength="130.9204" x="2126.46" y="213.2944">Scrapes periodically</text><text fill="#000000" font-family="sans-serif" font-size="13" lengthAdjust="spacing" textLength="97.519" x="2143.1607" y="228.4272">Uses as source</text></g><text fill="#888888" font-family="sans-serif" font-size="10" lengthAdjust="spacing" textLength="70.835" x="1090.2727" y="359.8097">OpenWoo.app</text><!--SRC=[dLJBRjim4BphAnRAeSd11lh8eJuKIEgYDUfKHfHKHP3BcbhPH2IH8EcqGT5_xvAIR2c8ZS2wYEJE3CdPaPnq9S5YioobG2S9T8ckKAQYEYgKScGca6YgCwN6g7Mq9ioVhqLlNXQ0qpdY2ixXTdOM5GOhWlXbO0n_8-07XLC6ukz9ieXvPi6Fu4G8EY-A7W8WpfBaw_nBx47DS02JDP-yGC4xPhIqqb4C5ocqOpXvYqlnKJo7tgofGcZGh1kcX_1tYXv0uqhM60WfeH7h0UEVToSbyoW5sSQF3ripklNk-jeedbc8MtSxOkD5agL3sHcVP6M2buto-wtohjHfv-XmYPOQSURczAVLdGrbBusgwstttcqrBnQpJaoeIYl6EFO0yS4-MKTK1GzwSnYqfCVvV9K6BB_tOguHSyjc-uI4A_Ot2KLVsqkdAMdb0hWPxaLEsyDC3npcvystWE7t3XFCkYPEiLIrNKjjen3NKQv-rwDFtjT9upEHoU7qrzKSKiv6XVeiQZEx3yjUCwPDwm1qIO-6-z9XTXazXEe5yn3C9smyzhK9f2MY0wMv1L4eT4JVD2uBWveiQ39IvVn5b-NJVNrhUObzicfZ10re_LmSGTzr_0Xocu0ZcDFZBkjpyaeQP-Y7Sh88FqNEKUJz7MsqRr7cDs-gp545Y3NMApyqa5D9ZcpKz_NrjFy0]--></g></svg>