<svg xmlns="http://www.w3.org/2000/svg" xmlns:xlink="http://www.w3.org/1999/xlink" contentStyleType="text/css" data-diagram-type="DESCRIPTION" height="543px" preserveAspectRatio="none" style="width:563px;height:543px;background:#FFFFFF;" version="1.1" viewBox="0 0 563 543" width="563px" zoomAndPan="magnify"><title>Publiceren vanuit Zaaksysteem</title><defs/><g><text fill="#888888" font-family="sans-serif" font-size="10" lengthAdjust="spacing" textLength="70.835" x="478.2129" y="9.2822">OpenWoo.app</text><text fill="#000000" font-family="sans-serif" font-size="14" font-weight="bold" lengthAdjust="spacing" textLength="248.1719" x="150.438" y="35.6357">Publiceren vanuit Zaaksysteem</text><!--cluster Publicatie platformen --><g class="cluster" data-entity="Publicatie platformen " data-source-line="6" data-uid="ent0002" id="cluster_Publicatie platformen "><rect fill="none" height="109" rx="2.5" ry="2.5" style="stroke:#181818;stroke-width:1;" width="191" x="7" y="264.2275"/><path d="M192.9502,264.2275 L192.9502,273.5244 L182.9502,283.5244 L7,283.5244" fill="none" style="stroke:#181818;stroke-width:1;"/><text fill="#000000" font-family="sans-serif" font-size="14" font-weight="bold" lengthAdjust="spacing" textLength="171.0762" x="10" y="278.2226">Publicatie platformen</text></g><!--cluster Services--><g class="cluster" data-entity="Services" data-source-line="11" data-uid="ent0004" id="cluster_Services"><rect fill="none" height="87.3" rx="2.5" ry="2.5" style="stroke:#181818;stroke-width:1;" width="196" x="222" y="275.0775"/><path d="M298.5342,275.0775 L298.5342,284.3744 L288.5342,294.3744 L222,294.3744" fill="none" style="stroke:#181818;stroke-width:1;"/><text fill="#000000" font-family="sans-serif" font-size="14" font-weight="bold" lengthAdjust="spacing" textLength="66.5342" x="225" y="289.0726">Services</text></g><!--cluster Integratie--><g class="cluster" data-entity="Integratie" data-source-line="16" data-uid="ent0006" id="cluster_Integratie"><rect fill="none" height="96.3" rx="2.5" ry="2.5" style="stroke:#181818;stroke-width:1;" width="132" x="165" y="422.2275"/><path d="M253.7227,422.2275 L253.7227,431.5244 L243.7227,441.5244 L165,441.5244" fill="none" style="stroke:#181818;stroke-width:1;"/><text fill="#000000" font-family="sans-serif" font-size="14" font-weight="bold" lengthAdjust="spacing" textLength="78.7227" x="168" y="436.2226">Integratie</text></g><!--cluster API--><g class="cluster" data-entity="API" data-source-line="21" data-uid="ent0008" id="cluster_API"><rect fill="none" height="96.29" rx="2.5" ry="2.5" style="stroke:#181818;stroke-width:1;" width="196" x="290" y="56.9375"/><path d="M326.3047,56.9375 L326.3047,66.2344 L316.3047,76.2344 L290,76.2344" fill="none" style="stroke:#181818;stroke-width:1;"/><text fill="#000000" font-family="sans-serif" font-size="14" font-weight="bold" lengthAdjust="spacing" textLength="26.3047" x="293" y="70.9326">API</text></g><!--entity Searchsite--><g class="entity" data-entity="Searchsite" data-source-line="7" data-uid="ent0003" id="entity_Searchsite"><ellipse cx="131" cy="328.2275" fill="#1ABC9C" rx="8" ry="8" style="stroke:#181818;stroke-width:0.5;"/><text fill="#000000" font-family="sans-serif" font-size="14" lengthAdjust="spacing" textLength="87.0215" x="87.4893" y="358.2226">Zoek pagina</text></g><!--entity OWS--><g class="entity" data-entity="OWS" data-source-line="12" data-uid="ent0005" id="entity_OWS"><polygon fill="#1ABC9C" points="237.72,310.0775,392.2776,310.0775,402.2776,328.2259,392.2776,346.3744,237.72,346.3744,247.72,328.2259" style="stroke:#181818;stroke-width:0.5;"/><text fill="#000000" font-family="sans-serif" font-size="14" lengthAdjust="spacing" textLength="124.5576" x="257.72" y="333.0726">OpenWoo Service</text></g><!--entity OI--><g class="entity" data-entity="OI" data-source-line="17" data-uid="ent0007" id="entity_OI"><path d="M180.69,467.2275 C180.69,457.2275 231.0049,457.2275 231.0049,457.2275 C231.0049,457.2275 281.3199,457.2275 281.3199,467.2275 L281.3199,492.5244 C281.3199,502.5244 231.0049,502.5244 231.0049,502.5244 C231.0049,502.5244 180.69,502.5244 180.69,492.5244 L180.69,467.2275" fill="#1ABC9C" style="stroke:#181818;stroke-width:0.5;"/><path d="M180.69,467.2275 C180.69,477.2275 231.0049,477.2275 231.0049,477.2275 C231.0049,477.2275 281.3199,477.2275 281.3199,467.2275" fill="none" style="stroke:#181818;stroke-width:0.5;"/><text fill="#000000" font-family="sans-serif" font-size="14" lengthAdjust="spacing" textLength="80.6299" x="190.69" y="494.2226">Open Index</text></g><!--entity ZRC--><g class="entity" data-entity="ZRC" data-source-line="22" data-uid="ent0009" id="entity_ZRC"><path d="M306.13,101.9375 C306.13,91.9375 387.9996,91.9375 387.9996,91.9375 C387.9996,91.9375 469.8693,91.9375 469.8693,101.9375 L469.8693,127.2344 C469.8693,137.2344 387.9996,137.2344 387.9996,137.2344 C387.9996,137.2344 306.13,137.2344 306.13,127.2344 L306.13,101.9375" fill="#CCE5FF" style="stroke:#181818;stroke-width:0.5;"/><path d="M306.13,101.9375 C306.13,111.9375 387.9996,111.9375 387.9996,111.9375 C387.9996,111.9375 469.8693,111.9375 469.8693,101.9375" fill="none" style="stroke:#181818;stroke-width:0.5;"/><text fill="#000000" font-family="sans-serif" font-size="14" lengthAdjust="spacing" textLength="143.7393" x="316.13" y="128.9326">Zaaksysteem (ZGW)</text></g><!--link Searchsite to OI--><g class="link" data-entity-1="Searchsite" data-entity-2="OI" data-source-line="26" data-uid="lnk10" id="link_Searchsite_OI"><path d="M133.85,336.7975 C139.37,351.0175 152.37,382.4275 168,406.2275 C180.01,424.5075 192.1109,438.7354 205.0809,452.5354" fill="none" id="Searchsite-to-OI" style="stroke:#181818;stroke-width:1;"/><polygon fill="#181818" points="209.19,456.9075,205.941,447.61,205.7657,453.2641,200.1116,453.0888,209.19,456.9075" style="stroke:#181818;stroke-width:1;"/><text fill="#000000" font-family="sans-serif" font-size="13" lengthAdjust="spacing" textLength="97.2334" x="169" y="402.2944">Bevraagd (API)</text></g><!--link OWS to ZRC--><g class="link" data-entity-1="OWS" data-entity-2="ZRC" data-source-line="27" data-uid="lnk11" id="link_OWS_ZRC"><path d="M305.9,309.7975 C287.49,284.7575 259.64,237.5275 278,200.2275 C291.46,172.8775 313.3252,154.958 337.2152,140.728" fill="none" id="OWS-to-ZRC" style="stroke:#181818;stroke-width:1;"/><polygon fill="#181818" points="342.37,137.6575,332.5908,138.8266,338.0743,140.2162,336.6847,145.6997,342.37,137.6575" style="stroke:#181818;stroke-width:1;"/><text fill="#000000" font-family="sans-serif" font-size="13" lengthAdjust="spacing" textLength="65.6094" x="279" y="213.2944">Indexeerd</text></g><!--link ZRC to OWS--><g class="link" data-entity-1="ZRC" data-entity-2="OWS" data-source-line="29" data-uid="lnk13" id="link_ZRC_OWS"><path d="M380.98,137.4375 C367.44,179.5775 339.8053,265.5851 327.4553,304.0251" fill="none" id="ZRC-to-OWS" style="stroke:#181818;stroke-width:1;stroke-dasharray:7.0,7.0;"/><polygon fill="#181818" points="325.62,309.7375,332.1812,302.3924,327.1494,304.9772,324.5646,299.9453,325.62,309.7375" style="stroke:#181818;stroke-width:1;"/><text fill="#000000" font-family="sans-serif" font-size="13" lengthAdjust="spacing" textLength="194.0479" x="361" y="213.2944">Notifies of changes or deletes</text></g><!--link OWS to OI--><g class="link" data-entity-1="OWS" data-entity-2="OI" data-source-line="28" data-uid="lnk12" id="link_OWS_OI"><path d="M309.62,346.6875 C293.34,374.0575 264.9072,421.8707 247.1172,451.7807" fill="none" id="OWS-to-OI" style="stroke:#181818;stroke-width:1;stroke-dasharray:7.0,7.0;"/><polygon fill="#181818" points="244.05,456.9375,252.0886,451.2471,246.606,452.6402,245.2129,447.1575,244.05,456.9375" style="stroke:#181818;stroke-width:1;"/><text fill="#000000" font-family="sans-serif" font-size="13" lengthAdjust="spacing" textLength="69.2148" x="284" y="402.2944">Slaat op in</text></g><text fill="#888888" font-family="sans-serif" font-size="10" lengthAdjust="spacing" textLength="70.835" x="239.1064" y="532.8097">OpenWoo.app</text><!--SRC=[RP4zJyCm48Pt_ufJEj0EZSH71p8WKGOK2T6A25NATdNEgTNKjcotW13_7JjfGWjuik_ZUTyxU-aRWkL-tKXEbXGSKEsbXn9nwpwS9zeneRKdcy72a5ffdQ8nR4DO_OwnYoC8lIGm3NgXxIumnq-8DSpWDPymON57aFnVcC0dWt2a2e82UIWiDMt1O2qL9e0E2aBBDqvwWj4bhlajPrzHkI1x22EuJkjc4EhZFTfO7LuEagFplZ61I5-iYdDi7fpKjlNPaQy7ya-gPrVeSOsEEdZehUZzoCtFiNEhbHesSpKmxvVvNzZ9Ny2uV5nDsaMKBmymufncGaGcErdCjD9lQdeNLJEOqy46aGh60JvXSS8-7n1PvvB8LcqgJMDR1aM3w46Ry1KiAgLfv8M239wrbqAI0os0Rr3LyMgXeeOykMy0]--></g></svg>